G04 #@! TF.GenerationSoftware,KiCad,Pcbnew,(5.99.0-11324-gb6e8beb38c)*
G04 #@! TF.CreationDate,2021-07-19T22:25:18+09:00*
G04 #@! TF.ProjectId,RPi_IO-Link_Hat,5250695f-494f-42d4-9c69-6e6b5f486174,rev?*
G04 #@! TF.SameCoordinates,Original*
G04 #@! TF.FileFunction,Copper,L2,Bot*
G04 #@! TF.FilePolarity,Positive*
%FSLAX46Y46*%
G04 Gerber Fmt 4.6, Leading zero omitted, Abs format (unit mm)*
G04 Created by KiCad (PCBNEW (5.99.0-11324-gb6e8beb38c)) date 2021-07-19 22:25:18*
%MOMM*%
%LPD*%
G01*
G04 APERTURE LIST*
G04 Aperture macros list*
%AMRoundRect*
0 Rectangle with rounded corners*
0 $1 Rounding radius*
0 $2 $3 $4 $5 $6 $7 $8 $9 X,Y pos of 4 corners*
0 Add a 4 corners polygon primitive as box body*
4,1,4,$2,$3,$4,$5,$6,$7,$8,$9,$2,$3,0*
0 Add four circle primitives for the rounded corners*
1,1,$1+$1,$2,$3*
1,1,$1+$1,$4,$5*
1,1,$1+$1,$6,$7*
1,1,$1+$1,$8,$9*
0 Add four rect primitives between the rounded corners*
20,1,$1+$1,$2,$3,$4,$5,0*
20,1,$1+$1,$4,$5,$6,$7,0*
20,1,$1+$1,$6,$7,$8,$9,0*
20,1,$1+$1,$8,$9,$2,$3,0*%
G04 Aperture macros list end*
G04 #@! TA.AperFunction,ComponentPad*
%ADD10C,2.000000*%
G04 #@! TD*
G04 #@! TA.AperFunction,ComponentPad*
%ADD11R,1.600000X1.600000*%
G04 #@! TD*
G04 #@! TA.AperFunction,ComponentPad*
%ADD12C,1.600000*%
G04 #@! TD*
G04 #@! TA.AperFunction,ComponentPad*
%ADD13R,2.000000X4.000000*%
G04 #@! TD*
G04 #@! TA.AperFunction,ComponentPad*
%ADD14O,2.000000X3.300000*%
G04 #@! TD*
G04 #@! TA.AperFunction,ComponentPad*
%ADD15O,3.500000X2.000000*%
G04 #@! TD*
G04 #@! TA.AperFunction,ComponentPad*
%ADD16RoundRect,0.250000X-0.725000X0.600000X-0.725000X-0.600000X0.725000X-0.600000X0.725000X0.600000X0*%
G04 #@! TD*
G04 #@! TA.AperFunction,ComponentPad*
%ADD17O,1.950000X1.700000*%
G04 #@! TD*
G04 #@! TA.AperFunction,ComponentPad*
%ADD18RoundRect,0.250000X-0.600000X-0.725000X0.600000X-0.725000X0.600000X0.725000X-0.600000X0.725000X0*%
G04 #@! TD*
G04 #@! TA.AperFunction,ComponentPad*
%ADD19O,1.700000X1.950000*%
G04 #@! TD*
G04 #@! TA.AperFunction,ComponentPad*
%ADD20C,1.500000*%
G04 #@! TD*
G04 #@! TA.AperFunction,ComponentPad*
%ADD21C,2.400000*%
G04 #@! TD*
G04 #@! TA.AperFunction,SMDPad,CuDef*
%ADD22RoundRect,0.250000X0.337500X0.475000X-0.337500X0.475000X-0.337500X-0.475000X0.337500X-0.475000X0*%
G04 #@! TD*
G04 #@! TA.AperFunction,ComponentPad*
%ADD23R,1.700000X1.700000*%
G04 #@! TD*
G04 #@! TA.AperFunction,ComponentPad*
%ADD24O,1.700000X1.700000*%
G04 #@! TD*
G04 #@! TA.AperFunction,ViaPad*
%ADD25C,0.600000*%
G04 #@! TD*
G04 #@! TA.AperFunction,Conductor*
%ADD26C,0.500000*%
G04 #@! TD*
G04 #@! TA.AperFunction,Conductor*
%ADD27C,0.250000*%
G04 #@! TD*
G04 #@! TA.AperFunction,Conductor*
%ADD28C,2.000000*%
G04 #@! TD*
G04 #@! TA.AperFunction,Conductor*
%ADD29C,0.750000*%
G04 #@! TD*
G04 #@! TA.AperFunction,Conductor*
%ADD30C,1.000000*%
G04 #@! TD*
G04 APERTURE END LIST*
D10*
G04 #@! TO.P,TP3,1,1*
G04 #@! TO.N,GND*
X36000000Y-62000000D03*
G04 #@! TD*
G04 #@! TO.P,TP2,1,1*
G04 #@! TO.N,CQ1*
X36000000Y-58400000D03*
G04 #@! TD*
G04 #@! TO.P,TP1,1,1*
G04 #@! TO.N,L+1*
X36000000Y-54800000D03*
G04 #@! TD*
D11*
G04 #@! TO.P,C7,1*
G04 #@! TO.N,+24V*
X39370000Y-80010000D03*
D12*
G04 #@! TO.P,C7,2*
G04 #@! TO.N,GND*
X39370000Y-83510000D03*
G04 #@! TD*
D13*
G04 #@! TO.P,J1,1*
G04 #@! TO.N,+24V*
X31750000Y-76200000D03*
D14*
G04 #@! TO.P,J1,2*
G04 #@! TO.N,GND*
X25750000Y-76200000D03*
D15*
G04 #@! TO.P,J1,MP,MountPin*
X24750000Y-71700000D03*
X24750000Y-80700000D03*
G04 #@! TD*
D16*
G04 #@! TO.P,J3,1,Pin_1*
G04 #@! TO.N,L+1*
X22860000Y-55880000D03*
D17*
G04 #@! TO.P,J3,2,Pin_2*
G04 #@! TO.N,CQ1*
X22860000Y-58380000D03*
G04 #@! TO.P,J3,3,Pin_3*
G04 #@! TO.N,GND*
X22860000Y-60880000D03*
G04 #@! TD*
D18*
G04 #@! TO.P,J4,1,Pin_1*
G04 #@! TO.N,GND*
X71120000Y-56515000D03*
D19*
G04 #@! TO.P,J4,2,Pin_2*
G04 #@! TO.N,I2C_SDA*
X73620000Y-56515000D03*
G04 #@! TO.P,J4,3,Pin_3*
G04 #@! TO.N,I2C_SCL*
X76120000Y-56515000D03*
G04 #@! TO.P,J4,4,Pin_4*
G04 #@! TO.N,+3V3*
X78620000Y-56515000D03*
G04 #@! TD*
D18*
G04 #@! TO.P,J5,1,Pin_1*
G04 #@! TO.N,GND*
X71120000Y-65405000D03*
D19*
G04 #@! TO.P,J5,2,Pin_2*
G04 #@! TO.N,I2C_SDA*
X73620000Y-65405000D03*
G04 #@! TO.P,J5,3,Pin_3*
G04 #@! TO.N,I2C_SCL*
X76120000Y-65405000D03*
G04 #@! TO.P,J5,4,Pin_4*
G04 #@! TO.N,+3V3*
X78620000Y-65405000D03*
G04 #@! TD*
D18*
G04 #@! TO.P,J6,1,Pin_1*
G04 #@! TO.N,GND*
X71120000Y-73660000D03*
D19*
G04 #@! TO.P,J6,2,Pin_2*
G04 #@! TO.N,I2C_SDA*
X73620000Y-73660000D03*
G04 #@! TO.P,J6,3,Pin_3*
G04 #@! TO.N,I2C_SCL*
X76120000Y-73660000D03*
G04 #@! TO.P,J6,4,Pin_4*
G04 #@! TO.N,+3V3*
X78620000Y-73660000D03*
G04 #@! TD*
D20*
G04 #@! TO.P,U1,11,GND*
G04 #@! TO.N,GND*
X50800000Y-78740000D03*
G04 #@! TD*
D21*
G04 #@! TO.P,U2,39,GND*
G04 #@! TO.N,GND*
X48895000Y-52070000D03*
G04 #@! TD*
D22*
G04 #@! TO.P,C8,1*
G04 #@! TO.N,+3V3*
X75565000Y-59055000D03*
G04 #@! TO.P,C8,2*
G04 #@! TO.N,GND*
X73490000Y-59055000D03*
G04 #@! TD*
G04 #@! TO.P,C9,1*
G04 #@! TO.N,+3V3*
X75967500Y-67945000D03*
G04 #@! TO.P,C9,2*
G04 #@! TO.N,GND*
X73892500Y-67945000D03*
G04 #@! TD*
G04 #@! TO.P,C10,1*
G04 #@! TO.N,+3V3*
X75967500Y-76200000D03*
G04 #@! TO.P,C10,2*
G04 #@! TO.N,GND*
X73892500Y-76200000D03*
G04 #@! TD*
D23*
G04 #@! TO.P,J2,1,3V3*
G04 #@! TO.N,+3V3*
X26200000Y-38250000D03*
D24*
G04 #@! TO.P,J2,2,5V*
G04 #@! TO.N,+5V*
X26200000Y-35710000D03*
G04 #@! TO.P,J2,3,SDA/GPIO2*
G04 #@! TO.N,I2C_SDA*
X28740000Y-38250000D03*
G04 #@! TO.P,J2,4,5V*
G04 #@! TO.N,+5V*
X28740000Y-35710000D03*
G04 #@! TO.P,J2,5,SCL/GPIO3*
G04 #@! TO.N,I2C_SCL*
X31280000Y-38250000D03*
G04 #@! TO.P,J2,6,GND*
G04 #@! TO.N,GND*
X31280000Y-35710000D03*
G04 #@! TO.P,J2,7,GCLK0/GPIO4*
G04 #@! TO.N,unconnected-(J2-Pad7)*
X33820000Y-38250000D03*
G04 #@! TO.P,J2,8,GPIO14/TXD*
G04 #@! TO.N,TXD*
X33820000Y-35710000D03*
G04 #@! TO.P,J2,9,GND*
G04 #@! TO.N,GND*
X36360000Y-38250000D03*
G04 #@! TO.P,J2,10,GPIO15/RXD*
G04 #@! TO.N,RXD*
X36360000Y-35710000D03*
G04 #@! TO.P,J2,11,GPIO17*
G04 #@! TO.N,unconnected-(J2-Pad11)*
X38900000Y-38250000D03*
G04 #@! TO.P,J2,12,GPIO18/PWM0*
G04 #@! TO.N,unconnected-(J2-Pad12)*
X38900000Y-35710000D03*
G04 #@! TO.P,J2,13,GPIO27*
G04 #@! TO.N,unconnected-(J2-Pad13)*
X41440000Y-38250000D03*
G04 #@! TO.P,J2,14,GND*
G04 #@! TO.N,GND*
X41440000Y-35710000D03*
G04 #@! TO.P,J2,15,GPIO22*
G04 #@! TO.N,unconnected-(J2-Pad15)*
X43980000Y-38250000D03*
G04 #@! TO.P,J2,16,GPIO23*
G04 #@! TO.N,unconnected-(J2-Pad16)*
X43980000Y-35710000D03*
G04 #@! TO.P,J2,17,3V3*
G04 #@! TO.N,+3V3*
X46520000Y-38250000D03*
G04 #@! TO.P,J2,18,GPIO24*
G04 #@! TO.N,unconnected-(J2-Pad18)*
X46520000Y-35710000D03*
G04 #@! TO.P,J2,19,MOSI0/GPIO10*
G04 #@! TO.N,SPI_MOSI*
X49060000Y-38250000D03*
G04 #@! TO.P,J2,20,GND*
G04 #@! TO.N,GND*
X49060000Y-35710000D03*
G04 #@! TO.P,J2,21,MISO0/GPIO9*
G04 #@! TO.N,SPI_MISO*
X51600000Y-38250000D03*
G04 #@! TO.P,J2,22,GPIO25*
G04 #@! TO.N,unconnected-(J2-Pad22)*
X51600000Y-35710000D03*
G04 #@! TO.P,J2,23,SCLK0/GPIO11*
G04 #@! TO.N,SPI_SCK*
X54140000Y-38250000D03*
G04 #@! TO.P,J2,24,~CE0~/GPIO8*
G04 #@! TO.N,SPI_CS*
X54140000Y-35710000D03*
G04 #@! TO.P,J2,25,GND*
G04 #@! TO.N,GND*
X56680000Y-38250000D03*
G04 #@! TO.P,J2,26,~CE1~/GPIO7*
G04 #@! TO.N,unconnected-(J2-Pad26)*
X56680000Y-35710000D03*
G04 #@! TO.P,J2,27,ID_SD/GPIO0*
G04 #@! TO.N,unconnected-(J2-Pad27)*
X59220000Y-38250000D03*
G04 #@! TO.P,J2,28,ID_SC/GPIO1*
G04 #@! TO.N,unconnected-(J2-Pad28)*
X59220000Y-35710000D03*
G04 #@! TO.P,J2,29,GCLK1/GPIO5*
G04 #@! TO.N,unconnected-(J2-Pad29)*
X61760000Y-38250000D03*
G04 #@! TO.P,J2,30,GND*
G04 #@! TO.N,GND*
X61760000Y-35710000D03*
G04 #@! TO.P,J2,31,GCLK2/GPIO6*
G04 #@! TO.N,unconnected-(J2-Pad31)*
X64300000Y-38250000D03*
G04 #@! TO.P,J2,32,PWM0/GPIO12*
G04 #@! TO.N,unconnected-(J2-Pad32)*
X64300000Y-35710000D03*
G04 #@! TO.P,J2,33,PWM1/GPIO13*
G04 #@! TO.N,unconnected-(J2-Pad33)*
X66840000Y-38250000D03*
G04 #@! TO.P,J2,34,GND*
G04 #@! TO.N,GND*
X66840000Y-35710000D03*
G04 #@! TO.P,J2,35,GPIO19/MISO1*
G04 #@! TO.N,unconnected-(J2-Pad35)*
X69380000Y-38250000D03*
G04 #@! TO.P,J2,36,GPIO16*
G04 #@! TO.N,unconnected-(J2-Pad36)*
X69380000Y-35710000D03*
G04 #@! TO.P,J2,37,GPIO26*
G04 #@! TO.N,unconnected-(J2-Pad37)*
X71920000Y-38250000D03*
G04 #@! TO.P,J2,38,GPIO20/MOSI1*
G04 #@! TO.N,unconnected-(J2-Pad38)*
X71920000Y-35710000D03*
G04 #@! TO.P,J2,39,GND*
G04 #@! TO.N,GND*
X74460000Y-38250000D03*
G04 #@! TO.P,J2,40,GPIO21/SCLK1*
G04 #@! TO.N,unconnected-(J2-Pad40)*
X74460000Y-35710000D03*
G04 #@! TD*
D25*
G04 #@! TO.N,+3V3*
X44400000Y-50400000D03*
G04 #@! TO.N,GND*
X40000000Y-53800000D03*
X39000000Y-53800000D03*
X38000000Y-53800000D03*
X40000000Y-59200000D03*
X39000000Y-59200000D03*
X30000000Y-54400000D03*
X32600000Y-60000000D03*
X30400000Y-60000000D03*
X32000000Y-61000000D03*
X33500000Y-54500000D03*
X28800000Y-54400000D03*
X34500000Y-61000000D03*
X34500000Y-60000000D03*
X21590000Y-47625000D03*
X28550000Y-59750000D03*
X30480000Y-41910000D03*
X37642800Y-75742800D03*
X34406500Y-63500000D03*
X41275000Y-78105000D03*
X27940000Y-71120000D03*
X56616600Y-68529200D03*
X54000400Y-61772800D03*
X43281600Y-47675800D03*
X20320000Y-57785000D03*
X33020000Y-60960000D03*
X59690000Y-88900000D03*
X41910000Y-66675000D03*
X24765000Y-53975000D03*
X43180000Y-71120000D03*
X59690000Y-81280000D03*
X43281600Y-46405800D03*
X42545000Y-78105000D03*
X54610000Y-73025000D03*
X44551600Y-46405800D03*
X54000400Y-60909200D03*
X19050000Y-64135000D03*
X19812000Y-40640000D03*
X62230000Y-88900000D03*
X44551600Y-52324000D03*
X51435000Y-80645000D03*
X47625000Y-66675000D03*
X36830000Y-71120000D03*
X57886600Y-68529200D03*
X74930000Y-53975000D03*
X58064400Y-61823600D03*
X58064400Y-60960000D03*
X52324000Y-50800000D03*
X41275000Y-71120000D03*
X27400000Y-47900000D03*
X21590000Y-46355000D03*
X38000000Y-59200000D03*
X24765000Y-52705000D03*
X52070000Y-73025000D03*
X43281600Y-54559200D03*
X29210000Y-71120000D03*
X57150000Y-73025000D03*
X59690000Y-80010000D03*
X74676000Y-70840600D03*
X34925000Y-66675000D03*
X74676000Y-49022000D03*
X29100000Y-58150000D03*
X30988000Y-45593000D03*
X53441600Y-66624200D03*
X52171600Y-66624200D03*
X50900000Y-53200000D03*
X53441600Y-65354200D03*
X76962000Y-44450000D03*
X36830000Y-66675000D03*
X76962000Y-49022000D03*
X60960000Y-88900000D03*
X43180000Y-66675000D03*
X55400000Y-50350000D03*
X30988000Y-47625000D03*
X77470000Y-53975000D03*
X52171600Y-65354200D03*
X29210000Y-72390000D03*
X19050000Y-59690000D03*
X29445308Y-53645308D03*
X20320000Y-52705000D03*
X74676000Y-62509400D03*
X22950000Y-41900000D03*
X59690000Y-87630000D03*
X29150000Y-59000000D03*
X43281600Y-53289200D03*
X22860000Y-47625000D03*
X27940000Y-72390000D03*
X62230000Y-87630000D03*
X34925000Y-71120000D03*
X74676000Y-43815000D03*
X30988000Y-44577000D03*
X19050000Y-52705000D03*
X50546000Y-80645000D03*
X43815000Y-82550000D03*
X57886600Y-69799200D03*
X30988000Y-46609000D03*
X52070000Y-81153000D03*
X56616600Y-69799200D03*
X19050000Y-58420000D03*
G04 #@! TO.N,Net-(C2-Pad1)*
X53340000Y-74930000D03*
X53975000Y-76200000D03*
G04 #@! TO.N,+5V*
X43180000Y-76200000D03*
X25400000Y-59055000D03*
X24028400Y-40843200D03*
X26606500Y-59690000D03*
X24993600Y-40792400D03*
X24993600Y-39827200D03*
X25400000Y-60325000D03*
X26606500Y-58674000D03*
X60960000Y-83820000D03*
X59690000Y-83820000D03*
X62230000Y-83820000D03*
X23977600Y-39776400D03*
X48895000Y-76200000D03*
G04 #@! TO.N,+3V3*
X59690000Y-47117000D03*
X52070000Y-40640000D03*
X51816000Y-47117000D03*
X51816000Y-46355000D03*
X59690000Y-40640000D03*
X59690000Y-46355000D03*
X60452000Y-40640000D03*
G04 #@! TO.N,Net-(D2-Pad1)*
X31200000Y-54000000D03*
X26670000Y-46990000D03*
G04 #@! TO.N,L+1*
X20955000Y-56515000D03*
X50165000Y-65405000D03*
X50165000Y-66675000D03*
X19685000Y-55245000D03*
X20955000Y-55245000D03*
X48895000Y-66675000D03*
X19685000Y-56515000D03*
X48895000Y-65405000D03*
G04 #@! TO.N,CQ1*
X54610000Y-52070000D03*
X27940000Y-61595000D03*
X55880000Y-52070000D03*
X54610000Y-53340000D03*
X27940000Y-62865000D03*
X29210000Y-62865000D03*
X29210000Y-61595000D03*
X55880000Y-53340000D03*
G04 #@! TO.N,I2C_SDA*
X31750000Y-43180000D03*
G04 #@! TO.N,I2C_SCL*
X31750000Y-41910000D03*
G04 #@! TO.N,TXD*
X54559200Y-48717200D03*
X41275000Y-45085000D03*
G04 #@! TO.N,RXD*
X54559200Y-49580800D03*
X41275000Y-43815000D03*
G04 #@! TO.N,SPI_MOSI*
X46228000Y-45720000D03*
X48006000Y-48056800D03*
G04 #@! TO.N,SPI_MISO*
X58521600Y-39624000D03*
X51409600Y-48056800D03*
X58521600Y-48056800D03*
G04 #@! TD*
D26*
G04 #@! TO.N,+3V3*
X47956398Y-50400000D02*
X51239398Y-47117000D01*
X44400000Y-50400000D02*
X47956398Y-50400000D01*
D27*
G04 #@! TO.N,Net-(D2-Pad1)*
X26670000Y-48053193D02*
X26670000Y-46990000D01*
X29625000Y-51008193D02*
X26670000Y-48053193D01*
X29625000Y-52425000D02*
X29625000Y-51008193D01*
X31200000Y-54000000D02*
X29625000Y-52425000D01*
D26*
G04 #@! TO.N,GND*
X71120000Y-65405000D02*
X71120000Y-61425000D01*
X71120000Y-70717500D02*
X73892500Y-67945000D01*
X73490000Y-58885000D02*
X71120000Y-56515000D01*
D27*
X56680000Y-38250000D02*
X57855001Y-37074999D01*
D28*
X50165000Y-80645000D02*
X50165000Y-79375000D01*
D26*
X71120000Y-61425000D02*
X73490000Y-59055000D01*
D28*
X50800000Y-78740000D02*
X43180000Y-78740000D01*
D26*
X73892500Y-67945000D02*
X73660000Y-67945000D01*
D28*
X50165000Y-79375000D02*
X50800000Y-78740000D01*
D26*
X73660000Y-67945000D02*
X71120000Y-65405000D01*
X71120000Y-73660000D02*
X71352500Y-73660000D01*
D27*
X57855001Y-37074999D02*
X60395001Y-37074999D01*
D28*
X43180000Y-78740000D02*
X42545000Y-78105000D01*
D26*
X73490000Y-59055000D02*
X73490000Y-58885000D01*
D28*
X59690000Y-87630000D02*
X50800000Y-78740000D01*
D26*
X71120000Y-73660000D02*
X71120000Y-70717500D01*
X71352500Y-73660000D02*
X73892500Y-76200000D01*
D27*
X60395001Y-37074999D02*
X61760000Y-35710000D01*
G04 #@! TO.N,Net-(C2-Pad1)*
X53975000Y-75565000D02*
X53340000Y-74930000D01*
X53975000Y-76200000D02*
X53975000Y-75565000D01*
D29*
G04 #@! TO.N,+5V*
X24774999Y-38979001D02*
X23977600Y-39776400D01*
D27*
X48895000Y-76200000D02*
X49520001Y-76825001D01*
D30*
X23977600Y-39776400D02*
X23977600Y-39317402D01*
X23977600Y-40792400D02*
X24028400Y-40843200D01*
D28*
X48984997Y-73429999D02*
X34334130Y-73429999D01*
X26670000Y-59753717D02*
X26384358Y-60039359D01*
X59374998Y-83820000D02*
X48984997Y-73429999D01*
D29*
X24774999Y-37135001D02*
X24774999Y-38979001D01*
D28*
X25400000Y-59055000D02*
X26035000Y-59055000D01*
D30*
X23977600Y-39317402D02*
X24649999Y-38645003D01*
D28*
X62230000Y-83820000D02*
X59374998Y-83820000D01*
X26670000Y-59690000D02*
X26670000Y-59753717D01*
D29*
X26200000Y-35710000D02*
X24774999Y-37135001D01*
X24774999Y-37135001D02*
X24774999Y-40573799D01*
D30*
X24942800Y-40843200D02*
X24993600Y-40792400D01*
D28*
X28740000Y-35710000D02*
X26200000Y-35710000D01*
D27*
X49520001Y-76825001D02*
X52695001Y-76825001D01*
D29*
X23977600Y-39776400D02*
X24530001Y-39223999D01*
D30*
X24942800Y-40843200D02*
X24942800Y-39878000D01*
X24649999Y-38645003D02*
X24649999Y-38013801D01*
D28*
X26035000Y-59055000D02*
X26670000Y-59690000D01*
D30*
X23977600Y-39776400D02*
X23977600Y-40792400D01*
D28*
X25400000Y-60325000D02*
X25400000Y-59055000D01*
D29*
X24530001Y-39223999D02*
X24530001Y-38580001D01*
X24530001Y-38580001D02*
X24530001Y-37338000D01*
D27*
X43180000Y-76200000D02*
X48895000Y-76200000D01*
D29*
X23977600Y-39776400D02*
X23977600Y-38906401D01*
D30*
X24942800Y-39878000D02*
X24993600Y-39827200D01*
D28*
X34334130Y-73429999D02*
X25400000Y-64495869D01*
X25400000Y-64495869D02*
X25400000Y-60325000D01*
D30*
X24028400Y-40843200D02*
X24942800Y-40843200D01*
D29*
X24774999Y-40573799D02*
X24993600Y-40792400D01*
D27*
X52695001Y-76825001D02*
X59690000Y-83820000D01*
D30*
G04 #@! TO.N,+3V3*
X36830000Y-40640000D02*
X46355000Y-40640000D01*
D26*
X75565000Y-59055000D02*
X75565000Y-62350000D01*
D30*
X78620000Y-64890000D02*
X78620000Y-73660000D01*
X26200000Y-39535000D02*
X27305000Y-40640000D01*
D27*
X50292000Y-40640000D02*
X50165000Y-40640000D01*
D30*
X51816000Y-46355000D02*
X51816000Y-47117000D01*
X46520000Y-38250000D02*
X46520000Y-40475000D01*
X27305000Y-40640000D02*
X36830000Y-40640000D01*
X51816000Y-46355000D02*
X59690000Y-46355000D01*
X52070000Y-40640000D02*
X53340000Y-40640000D01*
D26*
X78620000Y-73660000D02*
X78507500Y-73660000D01*
X78620000Y-65405000D02*
X78507500Y-65405000D01*
D30*
X59629799Y-47056799D02*
X51876201Y-47056799D01*
D26*
X51816000Y-47117000D02*
X51239398Y-47117000D01*
X75967500Y-71007500D02*
X78620000Y-73660000D01*
X75967500Y-67945000D02*
X75967500Y-71007500D01*
X78507500Y-73660000D02*
X75967500Y-76200000D01*
X78507500Y-65405000D02*
X75967500Y-67945000D01*
D30*
X59690000Y-47117000D02*
X59629799Y-47056799D01*
X52070000Y-40640000D02*
X76595000Y-40640000D01*
X59690000Y-46355000D02*
X59690000Y-47117000D01*
X76595000Y-40640000D02*
X78620000Y-42665000D01*
X26200000Y-38250000D02*
X26200000Y-39535000D01*
X46520000Y-40475000D02*
X46355000Y-40640000D01*
X51876201Y-47056799D02*
X51816000Y-47117000D01*
D26*
X78620000Y-56515000D02*
X78105000Y-56515000D01*
D30*
X78620000Y-42665000D02*
X78620000Y-64890000D01*
X50165000Y-40640000D02*
X52070000Y-40640000D01*
D26*
X75565000Y-62350000D02*
X78620000Y-65405000D01*
X78105000Y-56515000D02*
X75565000Y-59055000D01*
D30*
X46355000Y-40640000D02*
X50165000Y-40640000D01*
D28*
G04 #@! TO.N,L+1*
X49530000Y-64770000D02*
X40870001Y-56110001D01*
X50165000Y-66040000D02*
X49530000Y-66675000D01*
D30*
X19685000Y-56515000D02*
X20955000Y-56515000D01*
X20955000Y-55245000D02*
X19685000Y-55245000D01*
D28*
X40870001Y-56110001D02*
X23090001Y-56110001D01*
X22860000Y-55880000D02*
X20955000Y-55880000D01*
X50165000Y-65405000D02*
X50165000Y-66040000D01*
D30*
X19685000Y-55245000D02*
X19685000Y-56515000D01*
D28*
X23090001Y-56110001D02*
X22860000Y-55880000D01*
X49530000Y-66675000D02*
X49530000Y-64770000D01*
G04 #@! TO.N,CQ1*
X55880000Y-66405802D02*
X55880000Y-63436283D01*
X55880000Y-63436283D02*
X55880000Y-53340000D01*
X53410792Y-68875010D02*
X55880000Y-66405802D01*
X54610000Y-52070000D02*
X54610000Y-53340000D01*
X55880000Y-53340000D02*
X54610000Y-53340000D01*
X27940000Y-62865000D02*
X33950010Y-68875010D01*
X55880000Y-53340000D02*
X55880000Y-52070000D01*
X27940000Y-61595000D02*
X29210000Y-61595000D01*
X33950010Y-68875010D02*
X53410792Y-68875010D01*
X29210000Y-61595000D02*
X29210000Y-62865000D01*
X55880000Y-52070000D02*
X54610000Y-52070000D01*
D27*
G04 #@! TO.N,I2C_SDA*
X73025000Y-43180000D02*
X73660000Y-43815000D01*
X31750000Y-43180000D02*
X73025000Y-43180000D01*
X73660000Y-56475000D02*
X73620000Y-56515000D01*
X73660000Y-43815000D02*
X73660000Y-56475000D01*
X73660000Y-43815000D02*
X73620000Y-43855000D01*
G04 #@! TO.N,I2C_SCL*
X75565000Y-41910000D02*
X76120000Y-42465000D01*
X76120000Y-42465000D02*
X76120000Y-56515000D01*
X31750000Y-41910000D02*
X75565000Y-41910000D01*
G04 #@! TO.N,TXD*
X59256540Y-48717200D02*
X60515010Y-47458730D01*
X54559200Y-48717200D02*
X59256540Y-48717200D01*
X60515010Y-46013270D02*
X59586740Y-45085000D01*
X60515010Y-47458730D02*
X60515010Y-46013270D01*
X41275000Y-45085000D02*
X51725002Y-45085000D01*
X59586740Y-45085000D02*
X51725002Y-45085000D01*
G04 #@! TO.N,RXD*
X60965020Y-45826870D02*
X60965019Y-47645131D01*
X59029350Y-49580800D02*
X54559200Y-49580800D01*
X58953150Y-43815000D02*
X60965020Y-45826870D01*
X60965019Y-47645131D02*
X59029350Y-49580800D01*
X41275000Y-43815000D02*
X58953150Y-43815000D01*
G04 #@! TO.N,SPI_MOSI*
X46228000Y-46278800D02*
X48006000Y-48056800D01*
X46228000Y-45720000D02*
X46228000Y-46278800D01*
G04 #@! TO.N,SPI_MISO*
X51409600Y-48056800D02*
X58267600Y-48056800D01*
X51600000Y-38250000D02*
X52775001Y-39425001D01*
X52775001Y-39425001D02*
X58322601Y-39425001D01*
X58322601Y-39425001D02*
X58521600Y-39624000D01*
G04 #@! TD*
G04 #@! TA.AperFunction,Conductor*
G04 #@! TO.N,GND*
G36*
X78452473Y-34048002D02*
G01*
X78498966Y-34101658D01*
X78509070Y-34171932D01*
X78479576Y-34236512D01*
X78425165Y-34273207D01*
X78370672Y-34291864D01*
X78191678Y-34353147D01*
X77892370Y-34495910D01*
X77611454Y-34672128D01*
X77608620Y-34674398D01*
X77608615Y-34674402D01*
X77494431Y-34765881D01*
X77352654Y-34879466D01*
X77311811Y-34920739D01*
X77123626Y-35110905D01*
X77119400Y-35115175D01*
X77117159Y-35118033D01*
X76997452Y-35270702D01*
X76914784Y-35376132D01*
X76741517Y-35658878D01*
X76739992Y-35662163D01*
X76739990Y-35662167D01*
X76704193Y-35739285D01*
X76601897Y-35959664D01*
X76575009Y-36040965D01*
X76515924Y-36219623D01*
X76497773Y-36274505D01*
X76497037Y-36278060D01*
X76497036Y-36278063D01*
X76435000Y-36577626D01*
X76430527Y-36599226D01*
X76430205Y-36602837D01*
X76401735Y-36921833D01*
X76401048Y-36929525D01*
X76401143Y-36933155D01*
X76401143Y-36933156D01*
X76408615Y-37218500D01*
X76409729Y-37261023D01*
X76410239Y-37264609D01*
X76410240Y-37264617D01*
X76452826Y-37563843D01*
X76456453Y-37589327D01*
X76540602Y-37910084D01*
X76661061Y-38219044D01*
X76662765Y-38222262D01*
X76772938Y-38430342D01*
X76816232Y-38512111D01*
X76818284Y-38515096D01*
X76818289Y-38515105D01*
X77002002Y-38782409D01*
X77002008Y-38782416D01*
X77004059Y-38785401D01*
X77073163Y-38864616D01*
X77184070Y-38991751D01*
X77222052Y-39035291D01*
X77238973Y-39050688D01*
X77433002Y-39227240D01*
X77467323Y-39258470D01*
X77736619Y-39451979D01*
X78026372Y-39613254D01*
X78332741Y-39740156D01*
X78336235Y-39741151D01*
X78336237Y-39741152D01*
X78648165Y-39830007D01*
X78648170Y-39830008D01*
X78651666Y-39831004D01*
X78655247Y-39831590D01*
X78655254Y-39831592D01*
X78975339Y-39884008D01*
X78975343Y-39884008D01*
X78978919Y-39884594D01*
X78982545Y-39884765D01*
X79306536Y-39900044D01*
X79306537Y-39900044D01*
X79310163Y-39900215D01*
X79317389Y-39899722D01*
X79637374Y-39877908D01*
X79637381Y-39877907D01*
X79641006Y-39877660D01*
X79644582Y-39876997D01*
X79644584Y-39876997D01*
X79963500Y-39817890D01*
X79963504Y-39817889D01*
X79967065Y-39817229D01*
X80284018Y-39719722D01*
X80472285Y-39637078D01*
X80584339Y-39587890D01*
X80584343Y-39587888D01*
X80587662Y-39586431D01*
X80634554Y-39559030D01*
X80870834Y-39420959D01*
X80870836Y-39420958D01*
X80873974Y-39419124D01*
X80876883Y-39416940D01*
X81136252Y-39222200D01*
X81136256Y-39222197D01*
X81139159Y-39220017D01*
X81379702Y-38991751D01*
X81592414Y-38737350D01*
X81594402Y-38734324D01*
X81772489Y-38463212D01*
X81772494Y-38463203D01*
X81774476Y-38460186D01*
X81894140Y-38222262D01*
X81921849Y-38167170D01*
X81921852Y-38167162D01*
X81923476Y-38163934D01*
X82027674Y-37879198D01*
X82069868Y-37822100D01*
X82136234Y-37796878D01*
X82205700Y-37811540D01*
X82256212Y-37861430D01*
X82272000Y-37922499D01*
X82272000Y-85127022D01*
X82251998Y-85195143D01*
X82198342Y-85241636D01*
X82128068Y-85251740D01*
X82063488Y-85222246D01*
X82025189Y-85162808D01*
X81991120Y-85047793D01*
X81990088Y-85044308D01*
X81859984Y-84739285D01*
X81830520Y-84687628D01*
X81697475Y-84454376D01*
X81695684Y-84451236D01*
X81534278Y-84231507D01*
X81501509Y-84186898D01*
X81501507Y-84186895D01*
X81499366Y-84183981D01*
X81273631Y-83941061D01*
X81195744Y-83874539D01*
X81064163Y-83762159D01*
X81021471Y-83725697D01*
X80746229Y-83540742D01*
X80705229Y-83519580D01*
X80454773Y-83390310D01*
X80451553Y-83388648D01*
X80141349Y-83271432D01*
X79819728Y-83190646D01*
X79681204Y-83172409D01*
X79494557Y-83147836D01*
X79494549Y-83147835D01*
X79490953Y-83147362D01*
X79354505Y-83145219D01*
X79163024Y-83142211D01*
X79163020Y-83142211D01*
X79159382Y-83142154D01*
X79155767Y-83142515D01*
X79155762Y-83142515D01*
X78921457Y-83165902D01*
X78829410Y-83175089D01*
X78760234Y-83190172D01*
X78508955Y-83244960D01*
X78508951Y-83244961D01*
X78505411Y-83245733D01*
X78191678Y-83353147D01*
X77892370Y-83495910D01*
X77611454Y-83672128D01*
X77608620Y-83674398D01*
X77608615Y-83674402D01*
X77446745Y-83804085D01*
X77352654Y-83879466D01*
X77119400Y-84115175D01*
X77117159Y-84118033D01*
X77015803Y-84247298D01*
X76914784Y-84376132D01*
X76741517Y-84658878D01*
X76739992Y-84662163D01*
X76739990Y-84662167D01*
X76704193Y-84739285D01*
X76601897Y-84959664D01*
X76548074Y-85122410D01*
X76500825Y-85265278D01*
X76497773Y-85274505D01*
X76497037Y-85278060D01*
X76497036Y-85278063D01*
X76486591Y-85328500D01*
X76430527Y-85599226D01*
X76401048Y-85929525D01*
X76401143Y-85933155D01*
X76401143Y-85933156D01*
X76408226Y-86203639D01*
X76409729Y-86261023D01*
X76410239Y-86264609D01*
X76410240Y-86264617D01*
X76450643Y-86548504D01*
X76456453Y-86589327D01*
X76540602Y-86910084D01*
X76661061Y-87219044D01*
X76676297Y-87247819D01*
X76762501Y-87410630D01*
X76816232Y-87512111D01*
X76818284Y-87515096D01*
X76818289Y-87515105D01*
X77002002Y-87782409D01*
X77002008Y-87782416D01*
X77004059Y-87785401D01*
X77006447Y-87788138D01*
X77184070Y-87991751D01*
X77222052Y-88035291D01*
X77467323Y-88258470D01*
X77736619Y-88451979D01*
X78026372Y-88613254D01*
X78332741Y-88740156D01*
X78336235Y-88741151D01*
X78336237Y-88741152D01*
X78419328Y-88764821D01*
X78479363Y-88802720D01*
X78509377Y-88867060D01*
X78499842Y-88937413D01*
X78453785Y-88991443D01*
X78384809Y-89012000D01*
X22172035Y-89012000D01*
X22103914Y-88991998D01*
X22057421Y-88938342D01*
X22047317Y-88868068D01*
X22076811Y-88803488D01*
X22134986Y-88765570D01*
X22280540Y-88720792D01*
X22280541Y-88720792D01*
X22284018Y-88719722D01*
X22530579Y-88611489D01*
X22584339Y-88587890D01*
X22584343Y-88587888D01*
X22587662Y-88586431D01*
X22607536Y-88574818D01*
X22870834Y-88420959D01*
X22870836Y-88420958D01*
X22873974Y-88419124D01*
X22919039Y-88385288D01*
X23136252Y-88222200D01*
X23136256Y-88222197D01*
X23139159Y-88220017D01*
X23379702Y-87991751D01*
X23592414Y-87737350D01*
X23594402Y-87734324D01*
X23772489Y-87463212D01*
X23772494Y-87463203D01*
X23774476Y-87460186D01*
X23894140Y-87222262D01*
X23921849Y-87167170D01*
X23921852Y-87167162D01*
X23923476Y-87163934D01*
X23940751Y-87116727D01*
X24036189Y-86855931D01*
X24036192Y-86855922D01*
X24037437Y-86852519D01*
X24038282Y-86848997D01*
X24038285Y-86848989D01*
X24114003Y-86533599D01*
X24114004Y-86533595D01*
X24114850Y-86530070D01*
X24116069Y-86520000D01*
X24154353Y-86203639D01*
X24154354Y-86203632D01*
X24154689Y-86200860D01*
X24160373Y-86020000D01*
X24155156Y-85929525D01*
X24141493Y-85692558D01*
X24141492Y-85692553D01*
X24141284Y-85688938D01*
X24084270Y-85362264D01*
X24075655Y-85333178D01*
X23991120Y-85047793D01*
X23990088Y-85044308D01*
X23859984Y-84739285D01*
X23830520Y-84687628D01*
X23778292Y-84596062D01*
X38648493Y-84596062D01*
X38657789Y-84608077D01*
X38708994Y-84643931D01*
X38718489Y-84649414D01*
X38915947Y-84741490D01*
X38926239Y-84745236D01*
X39136688Y-84801625D01*
X39147481Y-84803528D01*
X39364525Y-84822517D01*
X39375475Y-84822517D01*
X39592519Y-84803528D01*
X39603312Y-84801625D01*
X39813761Y-84745236D01*
X39824053Y-84741490D01*
X40021511Y-84649414D01*
X40031006Y-84643931D01*
X40083048Y-84607491D01*
X40091424Y-84597012D01*
X40084356Y-84583566D01*
X39382812Y-83882022D01*
X39368868Y-83874408D01*
X39367035Y-83874539D01*
X39360420Y-83878790D01*
X38654923Y-84584287D01*
X38648493Y-84596062D01*
X23778292Y-84596062D01*
X23697475Y-84454376D01*
X23695684Y-84451236D01*
X23534278Y-84231507D01*
X23501509Y-84186898D01*
X23501507Y-84186895D01*
X23499366Y-84183981D01*
X23273631Y-83941061D01*
X23195744Y-83874539D01*
X23064163Y-83762159D01*
X23021471Y-83725697D01*
X22746229Y-83540742D01*
X22705229Y-83519580D01*
X22676060Y-83504525D01*
X38057483Y-83504525D01*
X38057483Y-83515475D01*
X38076472Y-83732519D01*
X38078375Y-83743312D01*
X38134764Y-83953761D01*
X38138510Y-83964053D01*
X38230586Y-84161511D01*
X38236069Y-84171006D01*
X38272509Y-84223048D01*
X38282988Y-84231424D01*
X38296434Y-84224356D01*
X38997978Y-83522812D01*
X39004356Y-83511132D01*
X39734408Y-83511132D01*
X39734539Y-83512965D01*
X39738790Y-83519580D01*
X40444287Y-84225077D01*
X40456062Y-84231507D01*
X40468077Y-84222211D01*
X40503931Y-84171006D01*
X40509414Y-84161511D01*
X40601490Y-83964053D01*
X40605236Y-83953761D01*
X40661625Y-83743312D01*
X40663528Y-83732519D01*
X40682517Y-83515475D01*
X40682517Y-83504525D01*
X40663528Y-83287481D01*
X40661624Y-83276682D01*
X40605236Y-83066239D01*
X40601490Y-83055947D01*
X40509414Y-82858489D01*
X40503931Y-82848994D01*
X40467491Y-82796952D01*
X40457012Y-82788576D01*
X40443566Y-82795644D01*
X39742022Y-83497188D01*
X39734408Y-83511132D01*
X39004356Y-83511132D01*
X39005592Y-83508868D01*
X39005461Y-83507035D01*
X39001210Y-83500420D01*
X38295713Y-82794923D01*
X38283938Y-82788493D01*
X38271923Y-82797789D01*
X38236069Y-82848994D01*
X38230586Y-82858489D01*
X38138510Y-83055947D01*
X38134764Y-83066239D01*
X38078376Y-83276682D01*
X38076472Y-83287481D01*
X38057483Y-83504525D01*
X22676060Y-83504525D01*
X22454773Y-83390310D01*
X22451553Y-83388648D01*
X22141349Y-83271432D01*
X21819728Y-83190646D01*
X21681204Y-83172409D01*
X21494557Y-83147836D01*
X21494549Y-83147835D01*
X21490953Y-83147362D01*
X21354505Y-83145219D01*
X21163024Y-83142211D01*
X21163020Y-83142211D01*
X21159382Y-83142154D01*
X21155767Y-83142515D01*
X21155762Y-83142515D01*
X20921457Y-83165902D01*
X20829410Y-83175089D01*
X20760234Y-83190172D01*
X20508955Y-83244960D01*
X20508951Y-83244961D01*
X20505411Y-83245733D01*
X20191678Y-83353147D01*
X19892370Y-83495910D01*
X19611454Y-83672128D01*
X19608620Y-83674398D01*
X19608615Y-83674402D01*
X19446745Y-83804085D01*
X19352654Y-83879466D01*
X19119400Y-84115175D01*
X19117159Y-84118033D01*
X19015803Y-84247298D01*
X18914784Y-84376132D01*
X18741517Y-84658878D01*
X18739992Y-84662163D01*
X18739990Y-84662167D01*
X18704193Y-84739285D01*
X18601897Y-84959664D01*
X18536141Y-85158490D01*
X18533628Y-85166090D01*
X18493248Y-85224485D01*
X18427707Y-85251779D01*
X18357815Y-85239307D01*
X18305761Y-85191027D01*
X18288000Y-85126527D01*
X18288000Y-82422988D01*
X38648576Y-82422988D01*
X38655644Y-82436434D01*
X39357188Y-83137978D01*
X39371132Y-83145592D01*
X39372965Y-83145461D01*
X39379580Y-83141210D01*
X40085077Y-82435713D01*
X40091507Y-82423938D01*
X40082211Y-82411923D01*
X40031006Y-82376069D01*
X40021511Y-82370586D01*
X39824053Y-82278510D01*
X39813761Y-82274764D01*
X39603312Y-82218375D01*
X39592519Y-82216472D01*
X39375475Y-82197483D01*
X39364525Y-82197483D01*
X39147481Y-82216472D01*
X39136688Y-82218375D01*
X38926239Y-82274764D01*
X38915947Y-82278510D01*
X38718489Y-82370586D01*
X38708994Y-82376069D01*
X38656952Y-82412509D01*
X38648576Y-82422988D01*
X18288000Y-82422988D01*
X18288000Y-80971114D01*
X22513275Y-80971114D01*
X22515325Y-80988830D01*
X22517285Y-80998727D01*
X22580604Y-81222494D01*
X22584116Y-81231938D01*
X22682399Y-81442705D01*
X22687378Y-81451471D01*
X22818087Y-81643802D01*
X22824419Y-81651677D01*
X22984186Y-81820626D01*
X22991695Y-81827387D01*
X23176426Y-81968625D01*
X23184905Y-81974089D01*
X23389847Y-82083978D01*
X23399099Y-82088020D01*
X23618971Y-82163727D01*
X23628743Y-82166236D01*
X23858971Y-82206004D01*
X23866843Y-82206859D01*
X23890551Y-82207936D01*
X23893384Y-82208000D01*
X24477885Y-82208000D01*
X24493124Y-82203525D01*
X24494329Y-82202135D01*
X24496000Y-82194452D01*
X24496000Y-80972115D01*
X24494659Y-80967548D01*
X25004000Y-80967548D01*
X25004000Y-82189885D01*
X25008475Y-82205124D01*
X25009865Y-82206329D01*
X25017548Y-82208000D01*
X25558456Y-82208000D01*
X25563488Y-82207798D01*
X25736843Y-82193850D01*
X25746796Y-82192238D01*
X25972633Y-82136767D01*
X25982203Y-82133584D01*
X26196265Y-82042720D01*
X26205207Y-82038045D01*
X26401987Y-81914126D01*
X26410060Y-81908086D01*
X26584500Y-81754297D01*
X26591504Y-81747044D01*
X26739110Y-81567346D01*
X26744866Y-81559064D01*
X26861841Y-81358081D01*
X26866203Y-81348976D01*
X26949537Y-81131885D01*
X26952388Y-81122196D01*
X26983821Y-80971736D01*
X26982698Y-80957675D01*
X26972590Y-80954000D01*
X25022115Y-80954000D01*
X25006876Y-80958475D01*
X25005671Y-80959865D01*
X25004000Y-80967548D01*
X24494659Y-80967548D01*
X24491525Y-80956876D01*
X24490135Y-80955671D01*
X24482452Y-80954000D01*
X22529410Y-80954000D01*
X22515324Y-80958136D01*
X22513275Y-80971114D01*
X18288000Y-80971114D01*
X18288000Y-80428264D01*
X22516179Y-80428264D01*
X22517302Y-80442325D01*
X22527410Y-80446000D01*
X24477885Y-80446000D01*
X24493124Y-80441525D01*
X24494329Y-80440135D01*
X24496000Y-80432452D01*
X24496000Y-79210115D01*
X24494659Y-79205548D01*
X25004000Y-79205548D01*
X25004000Y-80427885D01*
X25008475Y-80443124D01*
X25009865Y-80444329D01*
X25017548Y-80446000D01*
X26970590Y-80446000D01*
X26984676Y-80441864D01*
X26986725Y-80428886D01*
X26984675Y-80411170D01*
X26982715Y-80401273D01*
X26919396Y-80177506D01*
X26915884Y-80168062D01*
X26817601Y-79957295D01*
X26812622Y-79948529D01*
X26681913Y-79756198D01*
X26675581Y-79748323D01*
X26515814Y-79579374D01*
X26508305Y-79572613D01*
X26323574Y-79431375D01*
X26315095Y-79425911D01*
X26110153Y-79316022D01*
X26100901Y-79311980D01*
X25881029Y-79236273D01*
X25871257Y-79233764D01*
X25733681Y-79210000D01*
X38056500Y-79210000D01*
X38056500Y-80810000D01*
X38061727Y-80883079D01*
X38102904Y-81023316D01*
X38107775Y-81030895D01*
X38177051Y-81138691D01*
X38177053Y-81138694D01*
X38181923Y-81146271D01*
X38188733Y-81152172D01*
X38285569Y-81236082D01*
X38285572Y-81236084D01*
X38292381Y-81241984D01*
X38425330Y-81302700D01*
X38434245Y-81303982D01*
X38434246Y-81303982D01*
X38565552Y-81322861D01*
X38565559Y-81322862D01*
X38570000Y-81323500D01*
X40170000Y-81323500D01*
X40243079Y-81318273D01*
X40321165Y-81295345D01*
X40374670Y-81279635D01*
X40374672Y-81279634D01*
X40383316Y-81277096D01*
X40468278Y-81222494D01*
X40498691Y-81202949D01*
X40498694Y-81202947D01*
X40506271Y-81198077D01*
X40546048Y-81152172D01*
X40596082Y-81094431D01*
X40596084Y-81094428D01*
X40601984Y-81087619D01*
X40662700Y-80954670D01*
X40673962Y-80876340D01*
X40682861Y-80814448D01*
X40682862Y-80814441D01*
X40683500Y-80810000D01*
X40683500Y-79790161D01*
X50114393Y-79790161D01*
X50123687Y-79802175D01*
X50164088Y-79830464D01*
X50173584Y-79835947D01*
X50363113Y-79924326D01*
X50373405Y-79928072D01*
X50575401Y-79982196D01*
X50586196Y-79984099D01*
X50794525Y-80002326D01*
X50805475Y-80002326D01*
X51013804Y-79984099D01*
X51024599Y-79982196D01*
X51226595Y-79928072D01*
X51236887Y-79924326D01*
X51426416Y-79835947D01*
X51435912Y-79830464D01*
X51477148Y-79801590D01*
X51485523Y-79791112D01*
X51478457Y-79777668D01*
X50812811Y-79112021D01*
X50798868Y-79104408D01*
X50797034Y-79104539D01*
X50790420Y-79108790D01*
X50120820Y-79778391D01*
X50114393Y-79790161D01*
X40683500Y-79790161D01*
X40683500Y-79210000D01*
X40678273Y-79136921D01*
X40637096Y-78996684D01*
X40612574Y-78958528D01*
X40562949Y-78881309D01*
X40562947Y-78881306D01*
X40558077Y-78873729D01*
X40533188Y-78852162D01*
X40454431Y-78783918D01*
X40454428Y-78783916D01*
X40447619Y-78778016D01*
X40381401Y-78747775D01*
X40352388Y-78734525D01*
X49537674Y-78734525D01*
X49537674Y-78745475D01*
X49555901Y-78953804D01*
X49557804Y-78964599D01*
X49611928Y-79166595D01*
X49615674Y-79176887D01*
X49704054Y-79366417D01*
X49709534Y-79375907D01*
X49738411Y-79417149D01*
X49748887Y-79425523D01*
X49762334Y-79418455D01*
X50427979Y-78752811D01*
X50435592Y-78738868D01*
X50435461Y-78737034D01*
X50431210Y-78730420D01*
X49761609Y-78060820D01*
X49749839Y-78054393D01*
X49737824Y-78063689D01*
X49709534Y-78104093D01*
X49704054Y-78113583D01*
X49615674Y-78303113D01*
X49611928Y-78313405D01*
X49557804Y-78515401D01*
X49555901Y-78526196D01*
X49537674Y-78734525D01*
X40352388Y-78734525D01*
X40322864Y-78721042D01*
X40322863Y-78721042D01*
X40314670Y-78717300D01*
X40305755Y-78716018D01*
X40305754Y-78716018D01*
X40174448Y-78697139D01*
X40174441Y-78697138D01*
X40170000Y-78696500D01*
X38570000Y-78696500D01*
X38496921Y-78701727D01*
X38443884Y-78717300D01*
X38365330Y-78740365D01*
X38365328Y-78740366D01*
X38356684Y-78742904D01*
X38349105Y-78747775D01*
X38241309Y-78817051D01*
X38241306Y-78817053D01*
X38233729Y-78821923D01*
X38227828Y-78828733D01*
X38143918Y-78925569D01*
X38143916Y-78925572D01*
X38138016Y-78932381D01*
X38077300Y-79065330D01*
X38076018Y-79074245D01*
X38076018Y-79074246D01*
X38057139Y-79205552D01*
X38057138Y-79205559D01*
X38056500Y-79210000D01*
X25733681Y-79210000D01*
X25641029Y-79193996D01*
X25633157Y-79193141D01*
X25609449Y-79192064D01*
X25606616Y-79192000D01*
X25022115Y-79192000D01*
X25006876Y-79196475D01*
X25005671Y-79197865D01*
X25004000Y-79205548D01*
X24494659Y-79205548D01*
X24491525Y-79194876D01*
X24490135Y-79193671D01*
X24482452Y-79192000D01*
X23941544Y-79192000D01*
X23936512Y-79192202D01*
X23763157Y-79206150D01*
X23753204Y-79207762D01*
X23527367Y-79263233D01*
X23517797Y-79266416D01*
X23303735Y-79357280D01*
X23294793Y-79361955D01*
X23098013Y-79485874D01*
X23089940Y-79491914D01*
X22915500Y-79645703D01*
X22908496Y-79652956D01*
X22760890Y-79832654D01*
X22755134Y-79840936D01*
X22638159Y-80041919D01*
X22633797Y-80051024D01*
X22550463Y-80268115D01*
X22547612Y-80277804D01*
X22516179Y-80428264D01*
X18288000Y-80428264D01*
X18288000Y-76200000D01*
X21436502Y-76200000D01*
X21456457Y-76428087D01*
X21457881Y-76433400D01*
X21457881Y-76433402D01*
X21496566Y-76577773D01*
X21515716Y-76649243D01*
X21518039Y-76654224D01*
X21518039Y-76654225D01*
X21610151Y-76851762D01*
X21610154Y-76851767D01*
X21612477Y-76856749D01*
X21615634Y-76861257D01*
X21731380Y-77026559D01*
X21743802Y-77044300D01*
X21905700Y-77206198D01*
X21910208Y-77209355D01*
X21910211Y-77209357D01*
X21927206Y-77221257D01*
X22093251Y-77337523D01*
X22098233Y-77339846D01*
X22098238Y-77339849D01*
X22291866Y-77430138D01*
X22300757Y-77434284D01*
X22306065Y-77435706D01*
X22306067Y-77435707D01*
X22516598Y-77492119D01*
X22516600Y-77492119D01*
X22521913Y-77493543D01*
X22750000Y-77513498D01*
X22978087Y-77493543D01*
X22983400Y-77492119D01*
X22983402Y-77492119D01*
X23193933Y-77435707D01*
X23193935Y-77435706D01*
X23199243Y-77434284D01*
X23208134Y-77430138D01*
X23401762Y-77339849D01*
X23401767Y-77339846D01*
X23406749Y-77337523D01*
X23572794Y-77221257D01*
X23589789Y-77209357D01*
X23589792Y-77209355D01*
X23594300Y-77206198D01*
X23756198Y-77044300D01*
X23768621Y-77026559D01*
X23884366Y-76861257D01*
X23887523Y-76856749D01*
X23889846Y-76851767D01*
X23889849Y-76851762D01*
X23981961Y-76654225D01*
X23981961Y-76654224D01*
X23984284Y-76649243D01*
X23994293Y-76611889D01*
X24031245Y-76551266D01*
X24095105Y-76520245D01*
X24165600Y-76528673D01*
X24220347Y-76573876D01*
X24242000Y-76644500D01*
X24242000Y-76908456D01*
X24242202Y-76913488D01*
X24256150Y-77086843D01*
X24257762Y-77096796D01*
X24313233Y-77322633D01*
X24316416Y-77332203D01*
X24407280Y-77546265D01*
X24411955Y-77555207D01*
X24535874Y-77751987D01*
X24541914Y-77760060D01*
X24695703Y-77934500D01*
X24702956Y-77941504D01*
X24882654Y-78089110D01*
X24890936Y-78094866D01*
X25091919Y-78211841D01*
X25101024Y-78216203D01*
X25318115Y-78299537D01*
X25327804Y-78302388D01*
X25478264Y-78333821D01*
X25492325Y-78332698D01*
X25496000Y-78322590D01*
X25496000Y-76467548D01*
X26004000Y-76467548D01*
X26004000Y-78320590D01*
X26008136Y-78334676D01*
X26021114Y-78336725D01*
X26038830Y-78334675D01*
X26048727Y-78332715D01*
X26272494Y-78269396D01*
X26281938Y-78265884D01*
X26492705Y-78167601D01*
X26501471Y-78162622D01*
X26693802Y-78031913D01*
X26701677Y-78025581D01*
X26870626Y-77865814D01*
X26877387Y-77858305D01*
X27018625Y-77673574D01*
X27024089Y-77665095D01*
X27133978Y-77460153D01*
X27138020Y-77450901D01*
X27213727Y-77231029D01*
X27216236Y-77221257D01*
X27256004Y-76991029D01*
X27256859Y-76983157D01*
X27257936Y-76959449D01*
X27258000Y-76956616D01*
X27258000Y-76472115D01*
X27253525Y-76456876D01*
X27252135Y-76455671D01*
X27244452Y-76454000D01*
X26022115Y-76454000D01*
X26006876Y-76458475D01*
X26005671Y-76459865D01*
X26004000Y-76467548D01*
X25496000Y-76467548D01*
X25496000Y-74079410D01*
X25495413Y-74077410D01*
X26004000Y-74077410D01*
X26004000Y-75927885D01*
X26008475Y-75943124D01*
X26009865Y-75944329D01*
X26017548Y-75946000D01*
X27239885Y-75946000D01*
X27255124Y-75941525D01*
X27256329Y-75940135D01*
X27258000Y-75932452D01*
X27258000Y-75491544D01*
X27257798Y-75486512D01*
X27243850Y-75313157D01*
X27242238Y-75303204D01*
X27186767Y-75077367D01*
X27183584Y-75067797D01*
X27092720Y-74853735D01*
X27088045Y-74844793D01*
X26964126Y-74648013D01*
X26958086Y-74639940D01*
X26804297Y-74465500D01*
X26797044Y-74458496D01*
X26617346Y-74310890D01*
X26609064Y-74305134D01*
X26408081Y-74188159D01*
X26398976Y-74183797D01*
X26181885Y-74100463D01*
X26172196Y-74097612D01*
X26021736Y-74066179D01*
X26007675Y-74067302D01*
X26004000Y-74077410D01*
X25495413Y-74077410D01*
X25491864Y-74065324D01*
X25478886Y-74063275D01*
X25461170Y-74065325D01*
X25451273Y-74067285D01*
X25227506Y-74130604D01*
X25218062Y-74134116D01*
X25007295Y-74232399D01*
X24998529Y-74237378D01*
X24806198Y-74368087D01*
X24798323Y-74374419D01*
X24629374Y-74534186D01*
X24622613Y-74541695D01*
X24481375Y-74726426D01*
X24475911Y-74734905D01*
X24366022Y-74939847D01*
X24361980Y-74949099D01*
X24286273Y-75168971D01*
X24283764Y-75178743D01*
X24243996Y-75408971D01*
X24243141Y-75416843D01*
X24242064Y-75440551D01*
X24242000Y-75443384D01*
X24242000Y-75755500D01*
X24221998Y-75823621D01*
X24168342Y-75870114D01*
X24098068Y-75880218D01*
X24033488Y-75850724D01*
X23994293Y-75788111D01*
X23985707Y-75756067D01*
X23985706Y-75756065D01*
X23984284Y-75750757D01*
X23981961Y-75745775D01*
X23889849Y-75548238D01*
X23889846Y-75548233D01*
X23887523Y-75543251D01*
X23786399Y-75398831D01*
X23759357Y-75360211D01*
X23759355Y-75360208D01*
X23756198Y-75355700D01*
X23594300Y-75193802D01*
X23589792Y-75190645D01*
X23589789Y-75190643D01*
X23491975Y-75122153D01*
X23406749Y-75062477D01*
X23401767Y-75060154D01*
X23401762Y-75060151D01*
X23204225Y-74968039D01*
X23204224Y-74968039D01*
X23199243Y-74965716D01*
X23193935Y-74964294D01*
X23193933Y-74964293D01*
X22983402Y-74907881D01*
X22983400Y-74907881D01*
X22978087Y-74906457D01*
X22750000Y-74886502D01*
X22521913Y-74906457D01*
X22516600Y-74907881D01*
X22516598Y-74907881D01*
X22306067Y-74964293D01*
X22306065Y-74964294D01*
X22300757Y-74965716D01*
X22295776Y-74968039D01*
X22295775Y-74968039D01*
X22098238Y-75060151D01*
X22098233Y-75060154D01*
X22093251Y-75062477D01*
X22008025Y-75122153D01*
X21910211Y-75190643D01*
X21910208Y-75190645D01*
X21905700Y-75193802D01*
X21743802Y-75355700D01*
X21740645Y-75360208D01*
X21740643Y-75360211D01*
X21713601Y-75398831D01*
X21612477Y-75543251D01*
X21610154Y-75548233D01*
X21610151Y-75548238D01*
X21518039Y-75745775D01*
X21515716Y-75750757D01*
X21514294Y-75756065D01*
X21514293Y-75756067D01*
X21464972Y-75940135D01*
X21456457Y-75971913D01*
X21436502Y-76200000D01*
X18288000Y-76200000D01*
X18288000Y-71971114D01*
X22513275Y-71971114D01*
X22515325Y-71988830D01*
X22517285Y-71998727D01*
X22580604Y-72222494D01*
X22584116Y-72231938D01*
X22682399Y-72442705D01*
X22687378Y-72451471D01*
X22818087Y-72643802D01*
X22824419Y-72651677D01*
X22984186Y-72820626D01*
X22991695Y-72827387D01*
X23176426Y-72968625D01*
X23184905Y-72974089D01*
X23389847Y-73083978D01*
X23399099Y-73088020D01*
X23618971Y-73163727D01*
X23628743Y-73166236D01*
X23858971Y-73206004D01*
X23866843Y-73206859D01*
X23890551Y-73207936D01*
X23893384Y-73208000D01*
X24477885Y-73208000D01*
X24493124Y-73203525D01*
X24494329Y-73202135D01*
X24496000Y-73194452D01*
X24496000Y-71972115D01*
X24494659Y-71967548D01*
X25004000Y-71967548D01*
X25004000Y-73189885D01*
X25008475Y-73205124D01*
X25009865Y-73206329D01*
X25017548Y-73208000D01*
X25558456Y-73208000D01*
X25563488Y-73207798D01*
X25736843Y-73193850D01*
X25746796Y-73192238D01*
X25972633Y-73136767D01*
X25982203Y-73133584D01*
X26196265Y-73042720D01*
X26205207Y-73038045D01*
X26401987Y-72914126D01*
X26410060Y-72908086D01*
X26584500Y-72754297D01*
X26591504Y-72747044D01*
X26739110Y-72567346D01*
X26744866Y-72559064D01*
X26861841Y-72358081D01*
X26866203Y-72348976D01*
X26949537Y-72131885D01*
X26952388Y-72122196D01*
X26983821Y-71971736D01*
X26982698Y-71957675D01*
X26972590Y-71954000D01*
X25022115Y-71954000D01*
X25006876Y-71958475D01*
X25005671Y-71959865D01*
X25004000Y-71967548D01*
X24494659Y-71967548D01*
X24491525Y-71956876D01*
X24490135Y-71955671D01*
X24482452Y-71954000D01*
X22529410Y-71954000D01*
X22515324Y-71958136D01*
X22513275Y-71971114D01*
X18288000Y-71971114D01*
X18288000Y-71428264D01*
X22516179Y-71428264D01*
X22517302Y-71442325D01*
X22527410Y-71446000D01*
X24477885Y-71446000D01*
X24493124Y-71441525D01*
X24494329Y-71440135D01*
X24496000Y-71432452D01*
X24496000Y-70210115D01*
X24494659Y-70205548D01*
X25004000Y-70205548D01*
X25004000Y-71427885D01*
X25008475Y-71443124D01*
X25009865Y-71444329D01*
X25017548Y-71446000D01*
X26970590Y-71446000D01*
X26984676Y-71441864D01*
X26986725Y-71428886D01*
X26984675Y-71411170D01*
X26982715Y-71401273D01*
X26919396Y-71177506D01*
X26915884Y-71168062D01*
X26817601Y-70957295D01*
X26812622Y-70948529D01*
X26681913Y-70756198D01*
X26675581Y-70748323D01*
X26515814Y-70579374D01*
X26508305Y-70572613D01*
X26323574Y-70431375D01*
X26315095Y-70425911D01*
X26110153Y-70316022D01*
X26100901Y-70311980D01*
X25881029Y-70236273D01*
X25871257Y-70233764D01*
X25641029Y-70193996D01*
X25633157Y-70193141D01*
X25609449Y-70192064D01*
X25606616Y-70192000D01*
X25022115Y-70192000D01*
X25006876Y-70196475D01*
X25005671Y-70197865D01*
X25004000Y-70205548D01*
X24494659Y-70205548D01*
X24491525Y-70194876D01*
X24490135Y-70193671D01*
X24482452Y-70192000D01*
X23941544Y-70192000D01*
X23936512Y-70192202D01*
X23763157Y-70206150D01*
X23753204Y-70207762D01*
X23527367Y-70263233D01*
X23517797Y-70266416D01*
X23303735Y-70357280D01*
X23294793Y-70361955D01*
X23098013Y-70485874D01*
X23089940Y-70491914D01*
X22915500Y-70645703D01*
X22908496Y-70652956D01*
X22760890Y-70832654D01*
X22755134Y-70840936D01*
X22638159Y-71041919D01*
X22633797Y-71051024D01*
X22550463Y-71268115D01*
X22547612Y-71277804D01*
X22516179Y-71428264D01*
X18288000Y-71428264D01*
X18288000Y-61148580D01*
X21403752Y-61148580D01*
X21428477Y-61266421D01*
X21431537Y-61276617D01*
X21512263Y-61481029D01*
X21516994Y-61490561D01*
X21631016Y-61678462D01*
X21637280Y-61687052D01*
X21781327Y-61853052D01*
X21788958Y-61860472D01*
X21958911Y-61999826D01*
X21967678Y-62005850D01*
X22158682Y-62114576D01*
X22168346Y-62119041D01*
X22374941Y-62194031D01*
X22385208Y-62196802D01*
X22588174Y-62233504D01*
X22601414Y-62232085D01*
X22606000Y-62217450D01*
X22606000Y-61152115D01*
X22601525Y-61136876D01*
X22600135Y-61135671D01*
X22592452Y-61134000D01*
X21418808Y-61134000D01*
X21405277Y-61137973D01*
X21403752Y-61148580D01*
X18288000Y-61148580D01*
X18288000Y-37924043D01*
X18308002Y-37855922D01*
X18361658Y-37809429D01*
X18431932Y-37799325D01*
X18496512Y-37828819D01*
X18535876Y-37892069D01*
X18540602Y-37910084D01*
X18661061Y-38219044D01*
X18662765Y-38222262D01*
X18772938Y-38430342D01*
X18816232Y-38512111D01*
X18818284Y-38515096D01*
X18818289Y-38515105D01*
X19002002Y-38782409D01*
X19002008Y-38782416D01*
X19004059Y-38785401D01*
X19073163Y-38864616D01*
X19184070Y-38991751D01*
X19222052Y-39035291D01*
X19238973Y-39050688D01*
X19433002Y-39227240D01*
X19467323Y-39258470D01*
X19736619Y-39451979D01*
X20026372Y-39613254D01*
X20332741Y-39740156D01*
X20336235Y-39741151D01*
X20336237Y-39741152D01*
X20648165Y-39830007D01*
X20648170Y-39830008D01*
X20651666Y-39831004D01*
X20655247Y-39831590D01*
X20655254Y-39831592D01*
X20975339Y-39884008D01*
X20975343Y-39884008D01*
X20978919Y-39884594D01*
X20982545Y-39884765D01*
X21306536Y-39900044D01*
X21306537Y-39900044D01*
X21310163Y-39900215D01*
X21317389Y-39899722D01*
X21637374Y-39877908D01*
X21637381Y-39877907D01*
X21641006Y-39877660D01*
X21644582Y-39876997D01*
X21644584Y-39876997D01*
X21963500Y-39817890D01*
X21963504Y-39817889D01*
X21967065Y-39817229D01*
X22284018Y-39719722D01*
X22472285Y-39637078D01*
X22584339Y-39587890D01*
X22584343Y-39587888D01*
X22587662Y-39586431D01*
X22609584Y-39573621D01*
X22779530Y-39474313D01*
X22848437Y-39457214D01*
X22915649Y-39480083D01*
X22959828Y-39535660D01*
X22969100Y-39583101D01*
X22969100Y-40730557D01*
X22968363Y-40744164D01*
X22966066Y-40765314D01*
X22964276Y-40781788D01*
X22964813Y-40787923D01*
X22968650Y-40831788D01*
X22968979Y-40836614D01*
X22969100Y-40839086D01*
X22969100Y-40842169D01*
X22969401Y-40845237D01*
X22973290Y-40884906D01*
X22973412Y-40886219D01*
X22981513Y-40978813D01*
X22983000Y-40983932D01*
X22983520Y-40989233D01*
X23010391Y-41078234D01*
X23010726Y-41079367D01*
X23036691Y-41168736D01*
X23039144Y-41173468D01*
X23040684Y-41178569D01*
X23043578Y-41184012D01*
X23084331Y-41260660D01*
X23084943Y-41261826D01*
X23127708Y-41344326D01*
X23131031Y-41348489D01*
X23133534Y-41353196D01*
X23192355Y-41425318D01*
X23193046Y-41426174D01*
X23224338Y-41465373D01*
X23226842Y-41467877D01*
X23227484Y-41468595D01*
X23231185Y-41472928D01*
X23258535Y-41506462D01*
X23263283Y-41510390D01*
X23263287Y-41510394D01*
X23275667Y-41520636D01*
X23293542Y-41538762D01*
X23300498Y-41547413D01*
X23300503Y-41547419D01*
X23304368Y-41552225D01*
X23332039Y-41575444D01*
X23342821Y-41584491D01*
X23346469Y-41587672D01*
X23348281Y-41589315D01*
X23350475Y-41591509D01*
X23383749Y-41618842D01*
X23384547Y-41619504D01*
X23455874Y-41679354D01*
X23460544Y-41681922D01*
X23464661Y-41685303D01*
X23522545Y-41716340D01*
X23546486Y-41729177D01*
X23547645Y-41729806D01*
X23623781Y-41771662D01*
X23623789Y-41771665D01*
X23629187Y-41774633D01*
X23634269Y-41776245D01*
X23638963Y-41778762D01*
X23727931Y-41805962D01*
X23728959Y-41806282D01*
X23817706Y-41834435D01*
X23823002Y-41835029D01*
X23828098Y-41836587D01*
X23920657Y-41845990D01*
X23921793Y-41846111D01*
X23955408Y-41849881D01*
X23968130Y-41851308D01*
X23968134Y-41851308D01*
X23971627Y-41851700D01*
X23975154Y-41851700D01*
X23976139Y-41851755D01*
X23981819Y-41852202D01*
X24011225Y-41855189D01*
X24018737Y-41855952D01*
X24018739Y-41855952D01*
X24024862Y-41856574D01*
X24070508Y-41852259D01*
X24082367Y-41851700D01*
X24880957Y-41851700D01*
X24894564Y-41852437D01*
X24904534Y-41853520D01*
X24932188Y-41856524D01*
X24933957Y-41856369D01*
X24935725Y-41856555D01*
X24985973Y-41851982D01*
X24990008Y-41851700D01*
X24992569Y-41851700D01*
X24995626Y-41851400D01*
X24995631Y-41851400D01*
X25035306Y-41847510D01*
X25036619Y-41847388D01*
X25079395Y-41843645D01*
X25129213Y-41839287D01*
X25130921Y-41838791D01*
X25132688Y-41838630D01*
X25136097Y-41837627D01*
X25139633Y-41837280D01*
X25228634Y-41810409D01*
X25229767Y-41810074D01*
X25313508Y-41785744D01*
X25313507Y-41785744D01*
X25319136Y-41784109D01*
X25320711Y-41783293D01*
X25322419Y-41782790D01*
X25325572Y-41781142D01*
X25328969Y-41780116D01*
X25334405Y-41777225D01*
X25334409Y-41777224D01*
X25411060Y-41736469D01*
X25412226Y-41735857D01*
X25489502Y-41695800D01*
X25489503Y-41695800D01*
X25494726Y-41693092D01*
X25496114Y-41691984D01*
X25497690Y-41691160D01*
X25500458Y-41688935D01*
X25503596Y-41687266D01*
X25575718Y-41628445D01*
X25576574Y-41627754D01*
X25607940Y-41602715D01*
X25613024Y-41598657D01*
X25613029Y-41598653D01*
X25615773Y-41596462D01*
X25616696Y-41595539D01*
X25618112Y-41594338D01*
X25639225Y-41577363D01*
X25651825Y-41567232D01*
X25654108Y-41564511D01*
X25656862Y-41562265D01*
X25686086Y-41526940D01*
X25694074Y-41518161D01*
X25739740Y-41472494D01*
X25741909Y-41470325D01*
X25835703Y-41356139D01*
X25929162Y-41181837D01*
X25982921Y-41006002D01*
X26021966Y-40946706D01*
X26086870Y-40917932D01*
X26157028Y-40928816D01*
X26192510Y-40953745D01*
X26548149Y-41309383D01*
X26557251Y-41319527D01*
X26580968Y-41349025D01*
X26619421Y-41381291D01*
X26623069Y-41384472D01*
X26624881Y-41386115D01*
X26627075Y-41388309D01*
X26660349Y-41415642D01*
X26661147Y-41416304D01*
X26732474Y-41476154D01*
X26737144Y-41478722D01*
X26741261Y-41482103D01*
X26786691Y-41506462D01*
X26823086Y-41525977D01*
X26824245Y-41526606D01*
X26900381Y-41568462D01*
X26900389Y-41568465D01*
X26905787Y-41571433D01*
X26910869Y-41573045D01*
X26915563Y-41575562D01*
X27004531Y-41602762D01*
X27005559Y-41603082D01*
X27094306Y-41631235D01*
X27099602Y-41631829D01*
X27104698Y-41633387D01*
X27197257Y-41642790D01*
X27198393Y-41642911D01*
X27232008Y-41646681D01*
X27244730Y-41648108D01*
X27244734Y-41648108D01*
X27248227Y-41648500D01*
X27251754Y-41648500D01*
X27252739Y-41648555D01*
X27258419Y-41649002D01*
X27287825Y-41651989D01*
X27295337Y-41652752D01*
X27295339Y-41652752D01*
X27301462Y-41653374D01*
X27347108Y-41649059D01*
X27358967Y-41648500D01*
X30825145Y-41648500D01*
X30893266Y-41668502D01*
X30939759Y-41722158D01*
X30950151Y-41790292D01*
X30936463Y-41898640D01*
X30954163Y-42079160D01*
X31011418Y-42251273D01*
X31015065Y-42257295D01*
X31015066Y-42257297D01*
X31088931Y-42379263D01*
X31105380Y-42406424D01*
X31123458Y-42425144D01*
X31154042Y-42456815D01*
X31186974Y-42519712D01*
X31180674Y-42590428D01*
X31151565Y-42634364D01*
X31119493Y-42665771D01*
X31021235Y-42818238D01*
X30959197Y-42988685D01*
X30936463Y-43168640D01*
X30954163Y-43349160D01*
X31011418Y-43521273D01*
X31015065Y-43527295D01*
X31015066Y-43527297D01*
X31099195Y-43666211D01*
X31105380Y-43676424D01*
X31110269Y-43681487D01*
X31110270Y-43681488D01*
X31135111Y-43707211D01*
X31231382Y-43806902D01*
X31286830Y-43843186D01*
X31366724Y-43895467D01*
X31383159Y-43906222D01*
X31389763Y-43908678D01*
X31389765Y-43908679D01*
X31546558Y-43966990D01*
X31546560Y-43966990D01*
X31553168Y-43969448D01*
X31636995Y-43980633D01*
X31725980Y-43992507D01*
X31725984Y-43992507D01*
X31732961Y-43993438D01*
X31739972Y-43992800D01*
X31739976Y-43992800D01*
X31882459Y-43979832D01*
X31913600Y-43976998D01*
X31920302Y-43974820D01*
X31920304Y-43974820D01*
X32079409Y-43923124D01*
X32079412Y-43923123D01*
X32086108Y-43920947D01*
X32217050Y-43842890D01*
X32236541Y-43831271D01*
X32301058Y-43813500D01*
X40348180Y-43813500D01*
X40416301Y-43833502D01*
X40462794Y-43887158D01*
X40473579Y-43927204D01*
X40479163Y-43984160D01*
X40536418Y-44156273D01*
X40630380Y-44311424D01*
X40664564Y-44346822D01*
X40679042Y-44361815D01*
X40711974Y-44424712D01*
X40705674Y-44495428D01*
X40676565Y-44539364D01*
X40644493Y-44570771D01*
X40546235Y-44723238D01*
X40484197Y-44893685D01*
X40461463Y-45073640D01*
X40479163Y-45254160D01*
X40536418Y-45426273D01*
X40540065Y-45432295D01*
X40540066Y-45432297D01*
X40565058Y-45473563D01*
X40630380Y-45581424D01*
X40756382Y-45711902D01*
X40779425Y-45726981D01*
X40873169Y-45788325D01*
X40908159Y-45811222D01*
X40914763Y-45813678D01*
X40914765Y-45813679D01*
X41071558Y-45871990D01*
X41071560Y-45871990D01*
X41078168Y-45874448D01*
X41161995Y-45885633D01*
X41250980Y-45897507D01*
X41250984Y-45897507D01*
X41257961Y-45898438D01*
X41264972Y-45897800D01*
X41264976Y-45897800D01*
X41407459Y-45884832D01*
X41438600Y-45881998D01*
X41445302Y-45879820D01*
X41445304Y-45879820D01*
X41604409Y-45828124D01*
X41604412Y-45828123D01*
X41611108Y-45825947D01*
X41717893Y-45762290D01*
X41761541Y-45736271D01*
X41826058Y-45718500D01*
X45301180Y-45718500D01*
X45369301Y-45738502D01*
X45415794Y-45792158D01*
X45426579Y-45832204D01*
X45432163Y-45889160D01*
X45489418Y-46061273D01*
X45493065Y-46067295D01*
X45493066Y-46067297D01*
X45575587Y-46203556D01*
X45593749Y-46264868D01*
X45594438Y-46286786D01*
X45594500Y-46290745D01*
X45594500Y-46318656D01*
X45594997Y-46322590D01*
X45594997Y-46322591D01*
X45595005Y-46322656D01*
X45595938Y-46334493D01*
X45597327Y-46378689D01*
X45602978Y-46398139D01*
X45606987Y-46417500D01*
X45609526Y-46437597D01*
X45612445Y-46444968D01*
X45612445Y-46444970D01*
X45625804Y-46478712D01*
X45629649Y-46489942D01*
X45641982Y-46532393D01*
X45646015Y-46539212D01*
X45646017Y-46539217D01*
X45652293Y-46549828D01*
X45660988Y-46567576D01*
X45668448Y-46586417D01*
X45673110Y-46592833D01*
X45673110Y-46592834D01*
X45694436Y-46622187D01*
X45700952Y-46632107D01*
X45723458Y-46670162D01*
X45737779Y-46684483D01*
X45750619Y-46699516D01*
X45762528Y-46715907D01*
X45768634Y-46720958D01*
X45796605Y-46744098D01*
X45805384Y-46752088D01*
X47170750Y-48117454D01*
X47204776Y-48179766D01*
X47207054Y-48194253D01*
X47210163Y-48225960D01*
X47267418Y-48398073D01*
X47271065Y-48404095D01*
X47271066Y-48404097D01*
X47342634Y-48522270D01*
X47361380Y-48553224D01*
X47487382Y-48683702D01*
X47639159Y-48783022D01*
X47645763Y-48785478D01*
X47645765Y-48785479D01*
X47802558Y-48843790D01*
X47802560Y-48843790D01*
X47809168Y-48846248D01*
X47892995Y-48857433D01*
X47981980Y-48869307D01*
X47981984Y-48869307D01*
X47988961Y-48870238D01*
X47995972Y-48869600D01*
X47995976Y-48869600D01*
X48109344Y-48859282D01*
X48178997Y-48873027D01*
X48230162Y-48922248D01*
X48246593Y-48991317D01*
X48223075Y-49058305D01*
X48209859Y-49073858D01*
X47679122Y-49604595D01*
X47616810Y-49638621D01*
X47590027Y-49641500D01*
X44701966Y-49641500D01*
X44659699Y-49634199D01*
X44592424Y-49610243D01*
X44592422Y-49610242D01*
X44585790Y-49607881D01*
X44578802Y-49607048D01*
X44578799Y-49607047D01*
X44455698Y-49592368D01*
X44405680Y-49586404D01*
X44398677Y-49587140D01*
X44398676Y-49587140D01*
X44232288Y-49604628D01*
X44232286Y-49604629D01*
X44225288Y-49605364D01*
X44053579Y-49663818D01*
X44047575Y-49667512D01*
X43905095Y-49755166D01*
X43905092Y-49755168D01*
X43899088Y-49758862D01*
X43894053Y-49763793D01*
X43894050Y-49763795D01*
X43774525Y-49880843D01*
X43769493Y-49885771D01*
X43671235Y-50038238D01*
X43668826Y-50044858D01*
X43668824Y-50044861D01*
X43611698Y-50201813D01*
X43609197Y-50208685D01*
X43586463Y-50388640D01*
X43604163Y-50569160D01*
X43661418Y-50741273D01*
X43665065Y-50747295D01*
X43665066Y-50747297D01*
X43750851Y-50888945D01*
X43755380Y-50896424D01*
X43760269Y-50901487D01*
X43760270Y-50901488D01*
X43815262Y-50958433D01*
X43881382Y-51026902D01*
X43918232Y-51051016D01*
X44020610Y-51118010D01*
X44033159Y-51126222D01*
X44039763Y-51128678D01*
X44039765Y-51128679D01*
X44196558Y-51186990D01*
X44196560Y-51186990D01*
X44203168Y-51189448D01*
X44286995Y-51200633D01*
X44375980Y-51212507D01*
X44375984Y-51212507D01*
X44382961Y-51213438D01*
X44389972Y-51212800D01*
X44389976Y-51212800D01*
X44532459Y-51199832D01*
X44563600Y-51196998D01*
X44570302Y-51194820D01*
X44570304Y-51194820D01*
X44663105Y-51164667D01*
X44702041Y-51158500D01*
X47235581Y-51158500D01*
X47303702Y-51178502D01*
X47350195Y-51232158D01*
X47360299Y-51302432D01*
X47351778Y-51333225D01*
X47272531Y-51522209D01*
X47269572Y-51531052D01*
X47209384Y-51768042D01*
X47207763Y-51777232D01*
X47183267Y-52020510D01*
X47183022Y-52029835D01*
X47194754Y-52274064D01*
X47195891Y-52283324D01*
X47243593Y-52523143D01*
X47246082Y-52532118D01*
X47328708Y-52762250D01*
X47332505Y-52770778D01*
X47448234Y-52986160D01*
X47453245Y-52994027D01*
X47510173Y-53070263D01*
X47521431Y-53078712D01*
X47533850Y-53071940D01*
X48534658Y-52071132D01*
X49259408Y-52071132D01*
X49259539Y-52072965D01*
X49263790Y-52079580D01*
X50258732Y-53074522D01*
X50271112Y-53081282D01*
X50279453Y-53075038D01*
X50397700Y-52891202D01*
X50402147Y-52883011D01*
X50502572Y-52660076D01*
X50505767Y-52651298D01*
X50572135Y-52415973D01*
X50573993Y-52406844D01*
X50605044Y-52162770D01*
X50605525Y-52156483D01*
X50607706Y-52073160D01*
X50607555Y-52066851D01*
X50589321Y-51821486D01*
X50587944Y-51812280D01*
X50533979Y-51573786D01*
X50531255Y-51564875D01*
X50442633Y-51336983D01*
X50438619Y-51328567D01*
X50317284Y-51116276D01*
X50312074Y-51108553D01*
X50280787Y-51068865D01*
X50268863Y-51060395D01*
X50257328Y-51066882D01*
X49267022Y-52057188D01*
X49259408Y-52071132D01*
X48534658Y-52071132D01*
X49897488Y-50708302D01*
X49903872Y-50696612D01*
X49894460Y-50684502D01*
X49768144Y-50596873D01*
X49760116Y-50592145D01*
X49540810Y-50483995D01*
X49532177Y-50480507D01*
X49299288Y-50405958D01*
X49295353Y-50405013D01*
X49233786Y-50369659D01*
X49201106Y-50306630D01*
X49207690Y-50235940D01*
X49235678Y-50193401D01*
X50730785Y-48698294D01*
X50793097Y-48664268D01*
X50863912Y-48669333D01*
X50890375Y-48684630D01*
X50890982Y-48683702D01*
X51042759Y-48783022D01*
X51049363Y-48785478D01*
X51049365Y-48785479D01*
X51206158Y-48843790D01*
X51206160Y-48843790D01*
X51212768Y-48846248D01*
X51296595Y-48857433D01*
X51385580Y-48869307D01*
X51385584Y-48869307D01*
X51392561Y-48870238D01*
X51399572Y-48869600D01*
X51399576Y-48869600D01*
X51542059Y-48856632D01*
X51573200Y-48853798D01*
X51579902Y-48851620D01*
X51579904Y-48851620D01*
X51739009Y-48799924D01*
X51739012Y-48799923D01*
X51745708Y-48797747D01*
X51896140Y-48708071D01*
X51960658Y-48690300D01*
X53629889Y-48690300D01*
X53698010Y-48710302D01*
X53744503Y-48763958D01*
X53755288Y-48804005D01*
X53763363Y-48886360D01*
X53820618Y-49058473D01*
X53834721Y-49081759D01*
X53852899Y-49150387D01*
X53835723Y-49205985D01*
X53837383Y-49206809D01*
X53834253Y-49213113D01*
X53830435Y-49219038D01*
X53768397Y-49389485D01*
X53745663Y-49569440D01*
X53763363Y-49749960D01*
X53820618Y-49922073D01*
X53824265Y-49928095D01*
X53824266Y-49928097D01*
X53906576Y-50064007D01*
X53914580Y-50077224D01*
X53919469Y-50082287D01*
X53919470Y-50082288D01*
X53926319Y-50089380D01*
X54040582Y-50207702D01*
X54192359Y-50307022D01*
X54300832Y-50347363D01*
X54309598Y-50350623D01*
X54366474Y-50393115D01*
X54391347Y-50459612D01*
X54376322Y-50529001D01*
X54326167Y-50579250D01*
X54299985Y-50589959D01*
X54280418Y-50595496D01*
X54226710Y-50610693D01*
X54222460Y-50611816D01*
X54132294Y-50633963D01*
X54127641Y-50635938D01*
X54127638Y-50635939D01*
X54121457Y-50638563D01*
X54115222Y-50641209D01*
X54100311Y-50646461D01*
X54082468Y-50651510D01*
X54077893Y-50653644D01*
X54077886Y-50653646D01*
X54023265Y-50679117D01*
X53998318Y-50690750D01*
X53994327Y-50692527D01*
X53908844Y-50728812D01*
X53904572Y-50731502D01*
X53904563Y-50731507D01*
X53893154Y-50738692D01*
X53879260Y-50746267D01*
X53862464Y-50754099D01*
X53858277Y-50756944D01*
X53858276Y-50756945D01*
X53785680Y-50806281D01*
X53782001Y-50808689D01*
X53729069Y-50842023D01*
X53703433Y-50858167D01*
X53699649Y-50861503D01*
X53699645Y-50861506D01*
X53689521Y-50870432D01*
X53677024Y-50880125D01*
X53661693Y-50890544D01*
X53658016Y-50894021D01*
X53658010Y-50894026D01*
X53594265Y-50954308D01*
X53591016Y-50957275D01*
X53525137Y-51015354D01*
X53525131Y-51015360D01*
X53521345Y-51018698D01*
X53518139Y-51022601D01*
X53518137Y-51022603D01*
X53509574Y-51033028D01*
X53498789Y-51044594D01*
X53485319Y-51057332D01*
X53469414Y-51078135D01*
X53428945Y-51131066D01*
X53426214Y-51134513D01*
X53409422Y-51154956D01*
X53367266Y-51206278D01*
X53357938Y-51222306D01*
X53349146Y-51235439D01*
X53337880Y-51250174D01*
X53296659Y-51327052D01*
X53294011Y-51331990D01*
X53291871Y-51335819D01*
X53245159Y-51416078D01*
X53243345Y-51420803D01*
X53243339Y-51420816D01*
X53238516Y-51433382D01*
X53231929Y-51447771D01*
X53227337Y-51456336D01*
X53223169Y-51464109D01*
X53221524Y-51468887D01*
X53221519Y-51468898D01*
X53192936Y-51551910D01*
X53191432Y-51556043D01*
X53159982Y-51637972D01*
X53159980Y-51637980D01*
X53158167Y-51642702D01*
X53157132Y-51647657D01*
X53154378Y-51660839D01*
X53150177Y-51676092D01*
X53144138Y-51693631D01*
X53128324Y-51785187D01*
X53127511Y-51789446D01*
X53109560Y-51875368D01*
X53109559Y-51875374D01*
X53108526Y-51880320D01*
X53108297Y-51885367D01*
X53108296Y-51885373D01*
X53107685Y-51898836D01*
X53105977Y-51914561D01*
X53102821Y-51932836D01*
X53101500Y-51961925D01*
X53101500Y-52032188D01*
X53101370Y-52037903D01*
X53097514Y-52122817D01*
X53098095Y-52127837D01*
X53098095Y-52127841D01*
X53100665Y-52150050D01*
X53101500Y-52164532D01*
X53101500Y-53302188D01*
X53101370Y-53307903D01*
X53097514Y-53392817D01*
X53105072Y-53458135D01*
X53108185Y-53485043D01*
X53108613Y-53489407D01*
X53116060Y-53581965D01*
X53117267Y-53586879D01*
X53120482Y-53599969D01*
X53123282Y-53615533D01*
X53124833Y-53628929D01*
X53125415Y-53633956D01*
X53126791Y-53638818D01*
X53126791Y-53638819D01*
X53150693Y-53723290D01*
X53151816Y-53727540D01*
X53155419Y-53742207D01*
X53173963Y-53817706D01*
X53175938Y-53822359D01*
X53175939Y-53822362D01*
X53181208Y-53834774D01*
X53186461Y-53849689D01*
X53191510Y-53867532D01*
X53193644Y-53872107D01*
X53193646Y-53872114D01*
X53230744Y-53951669D01*
X53232527Y-53955673D01*
X53268812Y-54041156D01*
X53271502Y-54045428D01*
X53271507Y-54045437D01*
X53278692Y-54056846D01*
X53286267Y-54070740D01*
X53294099Y-54087536D01*
X53296944Y-54091723D01*
X53296945Y-54091724D01*
X53346281Y-54164320D01*
X53348689Y-54167999D01*
X53398167Y-54246567D01*
X53401503Y-54250351D01*
X53401506Y-54250355D01*
X53410432Y-54260479D01*
X53420125Y-54272976D01*
X53430544Y-54288307D01*
X53434021Y-54291984D01*
X53434026Y-54291990D01*
X53474312Y-54334590D01*
X53491566Y-54352835D01*
X53494308Y-54355735D01*
X53497275Y-54358984D01*
X53555354Y-54424863D01*
X53555360Y-54424869D01*
X53558698Y-54428655D01*
X53562601Y-54431861D01*
X53562603Y-54431863D01*
X53573028Y-54440426D01*
X53584594Y-54451211D01*
X53597332Y-54464681D01*
X53634593Y-54493169D01*
X53671066Y-54521055D01*
X53674513Y-54523786D01*
X53682419Y-54530280D01*
X53746278Y-54582734D01*
X53762306Y-54592062D01*
X53775439Y-54600854D01*
X53790174Y-54612120D01*
X53869838Y-54654835D01*
X53871990Y-54655989D01*
X53875819Y-54658129D01*
X53900466Y-54672474D01*
X53951696Y-54702291D01*
X53951700Y-54702293D01*
X53956078Y-54704841D01*
X53960803Y-54706655D01*
X53960816Y-54706661D01*
X53973382Y-54711484D01*
X53987771Y-54718071D01*
X53999651Y-54724441D01*
X53999654Y-54724442D01*
X54004109Y-54726831D01*
X54008887Y-54728476D01*
X54008898Y-54728481D01*
X54091910Y-54757064D01*
X54096043Y-54758568D01*
X54177972Y-54790018D01*
X54177980Y-54790020D01*
X54182702Y-54791833D01*
X54200841Y-54795623D01*
X54216093Y-54799823D01*
X54233631Y-54805862D01*
X54266949Y-54811617D01*
X54330667Y-54842919D01*
X54367350Y-54903705D01*
X54371500Y-54935777D01*
X54371500Y-65728771D01*
X54351498Y-65796892D01*
X54334595Y-65817866D01*
X52822856Y-67329605D01*
X52760544Y-67363631D01*
X52733761Y-67366510D01*
X51276021Y-67366510D01*
X51207900Y-67346508D01*
X51161407Y-67292852D01*
X51151303Y-67222578D01*
X51180797Y-67157998D01*
X51186926Y-67151415D01*
X51214666Y-67123675D01*
X51217188Y-67121221D01*
X51286012Y-67056138D01*
X51286014Y-67056135D01*
X51289681Y-67052668D01*
X51337411Y-66990239D01*
X51341552Y-66985108D01*
X51389191Y-66929133D01*
X51389192Y-66929132D01*
X51392470Y-66925280D01*
X51395089Y-66920955D01*
X51395093Y-66920950D01*
X51409491Y-66897176D01*
X51417163Y-66885929D01*
X51437120Y-66859826D01*
X51474243Y-66790592D01*
X51477507Y-66784868D01*
X51479141Y-66782171D01*
X51518221Y-66717642D01*
X51520116Y-66712953D01*
X51520119Y-66712946D01*
X51530533Y-66687172D01*
X51536312Y-66674836D01*
X51549440Y-66650351D01*
X51549442Y-66650347D01*
X51551831Y-66645891D01*
X51561910Y-66616621D01*
X51577405Y-66571619D01*
X51579715Y-66565439D01*
X51585495Y-66551135D01*
X51594220Y-66529539D01*
X51607263Y-66497257D01*
X51607264Y-66497254D01*
X51609156Y-66492571D01*
X51616436Y-66460529D01*
X51620169Y-66447425D01*
X51629216Y-66421149D01*
X51630862Y-66416369D01*
X51631722Y-66411389D01*
X51631725Y-66411378D01*
X51644238Y-66338935D01*
X51645530Y-66332467D01*
X51661815Y-66260788D01*
X51661816Y-66260779D01*
X51662935Y-66255855D01*
X51664999Y-66223049D01*
X51666586Y-66209545D01*
X51672179Y-66177164D01*
X51672359Y-66173204D01*
X51673436Y-66149494D01*
X51673436Y-66149475D01*
X51673500Y-66148075D01*
X51673500Y-66091892D01*
X51673749Y-66083980D01*
X51677860Y-66018641D01*
X51678178Y-66013587D01*
X51674101Y-65972006D01*
X51673500Y-65959711D01*
X51673500Y-65343999D01*
X51664376Y-65230597D01*
X51659346Y-65168076D01*
X51659345Y-65168071D01*
X51658940Y-65163035D01*
X51654544Y-65145135D01*
X51602244Y-64932208D01*
X51601037Y-64927294D01*
X51553664Y-64815689D01*
X51508165Y-64708502D01*
X51506188Y-64703844D01*
X51425097Y-64575074D01*
X51379528Y-64502712D01*
X51379526Y-64502709D01*
X51376833Y-64498433D01*
X51336633Y-64452834D01*
X51219650Y-64320142D01*
X51219647Y-64320139D01*
X51216302Y-64316345D01*
X51151020Y-64262722D01*
X51032628Y-64165474D01*
X51032625Y-64165472D01*
X51028722Y-64162266D01*
X50899660Y-64087150D01*
X50856421Y-64045394D01*
X50853681Y-64041043D01*
X50847052Y-64029134D01*
X50832654Y-63999612D01*
X50787357Y-63935400D01*
X50783699Y-63929914D01*
X50744529Y-63867714D01*
X50744528Y-63867713D01*
X50741833Y-63863433D01*
X50738492Y-63859644D01*
X50738488Y-63859638D01*
X50720102Y-63838783D01*
X50711656Y-63828088D01*
X50695009Y-63804490D01*
X50692726Y-63801253D01*
X50673091Y-63779750D01*
X50633375Y-63740034D01*
X50627956Y-63734264D01*
X50584650Y-63685142D01*
X50584647Y-63685139D01*
X50581302Y-63681345D01*
X50549011Y-63654821D01*
X50539892Y-63646551D01*
X41953676Y-55060335D01*
X41951222Y-55057813D01*
X41886139Y-54988989D01*
X41886136Y-54988987D01*
X41882669Y-54985320D01*
X41820240Y-54937590D01*
X41815109Y-54933449D01*
X41759134Y-54885810D01*
X41759133Y-54885809D01*
X41755281Y-54882531D01*
X41750956Y-54879912D01*
X41750951Y-54879908D01*
X41727177Y-54865510D01*
X41715930Y-54857838D01*
X41689827Y-54837881D01*
X41620593Y-54800758D01*
X41614869Y-54797494D01*
X41547643Y-54756780D01*
X41517182Y-54744473D01*
X41504842Y-54738693D01*
X41480351Y-54725561D01*
X41480352Y-54725561D01*
X41475892Y-54723170D01*
X41471111Y-54721524D01*
X41471107Y-54721522D01*
X41401600Y-54697589D01*
X41395422Y-54695279D01*
X41327267Y-54667743D01*
X41327268Y-54667743D01*
X41322572Y-54665846D01*
X41290540Y-54658569D01*
X41277442Y-54654838D01*
X41246370Y-54644139D01*
X41168901Y-54630758D01*
X41162497Y-54629478D01*
X41085857Y-54612066D01*
X41053048Y-54610002D01*
X41039548Y-54608416D01*
X41007165Y-54602822D01*
X41003208Y-54602642D01*
X41003205Y-54602642D01*
X40979495Y-54601565D01*
X40979476Y-54601565D01*
X40978076Y-54601501D01*
X40921893Y-54601501D01*
X40913981Y-54601252D01*
X40908387Y-54600900D01*
X40843588Y-54596823D01*
X40804546Y-54600651D01*
X40802009Y-54600900D01*
X40789713Y-54601501D01*
X37603040Y-54601501D01*
X37534919Y-54581499D01*
X37488426Y-54527843D01*
X37480521Y-54504915D01*
X37456493Y-54404831D01*
X37439105Y-54332406D01*
X37431302Y-54313567D01*
X37350135Y-54117611D01*
X37350133Y-54117607D01*
X37348240Y-54113037D01*
X37317914Y-54063549D01*
X37226759Y-53914798D01*
X37226755Y-53914792D01*
X37224176Y-53910584D01*
X37069969Y-53730031D01*
X36889416Y-53575824D01*
X36885208Y-53573245D01*
X36885202Y-53573241D01*
X36691183Y-53454346D01*
X36686963Y-53451760D01*
X36682393Y-53449867D01*
X36682389Y-53449865D01*
X36666682Y-53443359D01*
X47886386Y-53443359D01*
X47895099Y-53454879D01*
X47983586Y-53519760D01*
X47991505Y-53524708D01*
X48207877Y-53638547D01*
X48216451Y-53642275D01*
X48447282Y-53722885D01*
X48456291Y-53725299D01*
X48696518Y-53770908D01*
X48705775Y-53771962D01*
X48950107Y-53781563D01*
X48959420Y-53781237D01*
X49202478Y-53754618D01*
X49211655Y-53752917D01*
X49448107Y-53690665D01*
X49456926Y-53687628D01*
X49681584Y-53591107D01*
X49689856Y-53586800D01*
X49897777Y-53458135D01*
X49899620Y-53456796D01*
X49907038Y-53445541D01*
X49900974Y-53435184D01*
X48907812Y-52442022D01*
X48893868Y-52434408D01*
X48892035Y-52434539D01*
X48885420Y-52438790D01*
X47893044Y-53431166D01*
X47886386Y-53443359D01*
X36666682Y-53443359D01*
X36472167Y-53362789D01*
X36472165Y-53362788D01*
X36467594Y-53360895D01*
X36387391Y-53341640D01*
X36241524Y-53306620D01*
X36241518Y-53306619D01*
X36236711Y-53305465D01*
X36000000Y-53286835D01*
X35763289Y-53305465D01*
X35758482Y-53306619D01*
X35758476Y-53306620D01*
X35612609Y-53341640D01*
X35532406Y-53360895D01*
X35527835Y-53362788D01*
X35527833Y-53362789D01*
X35317611Y-53449865D01*
X35317607Y-53449867D01*
X35313037Y-53451760D01*
X35308817Y-53454346D01*
X35114798Y-53573241D01*
X35114792Y-53573245D01*
X35110584Y-53575824D01*
X34930031Y-53730031D01*
X34775824Y-53910584D01*
X34773245Y-53914792D01*
X34773241Y-53914798D01*
X34682086Y-54063549D01*
X34651760Y-54113037D01*
X34649867Y-54117607D01*
X34649865Y-54117611D01*
X34568698Y-54313567D01*
X34560895Y-54332406D01*
X34543507Y-54404831D01*
X34519479Y-54504915D01*
X34484127Y-54566484D01*
X34421100Y-54599167D01*
X34396960Y-54601501D01*
X32006087Y-54601501D01*
X31937966Y-54581499D01*
X31891473Y-54527843D01*
X31881369Y-54457569D01*
X31901138Y-54405775D01*
X31908415Y-54394822D01*
X31923643Y-54371902D01*
X31973396Y-54240928D01*
X31985555Y-54208920D01*
X31985556Y-54208918D01*
X31988055Y-54202338D01*
X31989035Y-54195366D01*
X32012748Y-54026639D01*
X32012748Y-54026636D01*
X32013299Y-54022717D01*
X32013616Y-54000000D01*
X31993397Y-53819745D01*
X31976390Y-53770908D01*
X31936064Y-53655106D01*
X31936062Y-53655103D01*
X31933745Y-53648448D01*
X31927558Y-53638547D01*
X31841359Y-53500598D01*
X31837626Y-53494624D01*
X31832458Y-53489420D01*
X31714778Y-53370915D01*
X31714774Y-53370912D01*
X31709815Y-53365918D01*
X31556666Y-53268727D01*
X31527463Y-53258328D01*
X31392425Y-53210243D01*
X31392420Y-53210242D01*
X31385790Y-53207881D01*
X31378802Y-53207048D01*
X31378799Y-53207047D01*
X31336008Y-53201945D01*
X31270734Y-53174018D01*
X31261831Y-53165926D01*
X30295405Y-52199500D01*
X30261379Y-52137188D01*
X30258500Y-52110405D01*
X30258500Y-51086960D01*
X30259027Y-51075777D01*
X30260702Y-51068284D01*
X30260211Y-51052648D01*
X30258562Y-51000207D01*
X30258500Y-50996248D01*
X30258500Y-50968337D01*
X30257995Y-50964337D01*
X30257062Y-50952494D01*
X30256837Y-50945319D01*
X30255673Y-50908304D01*
X30250021Y-50888850D01*
X30246013Y-50869493D01*
X30244468Y-50857263D01*
X30244468Y-50857262D01*
X30243474Y-50849396D01*
X30233706Y-50824725D01*
X30227196Y-50808281D01*
X30223351Y-50797051D01*
X30213229Y-50762210D01*
X30213229Y-50762209D01*
X30211018Y-50754600D01*
X30206985Y-50747781D01*
X30206983Y-50747776D01*
X30200707Y-50737165D01*
X30192012Y-50719417D01*
X30184552Y-50700576D01*
X30178085Y-50691674D01*
X30158564Y-50664806D01*
X30152048Y-50654886D01*
X30133580Y-50623658D01*
X30133578Y-50623655D01*
X30129542Y-50616831D01*
X30115221Y-50602510D01*
X30102380Y-50587476D01*
X30100883Y-50585415D01*
X30090472Y-50571086D01*
X30056395Y-50542895D01*
X30047616Y-50534905D01*
X27340405Y-47827693D01*
X27306379Y-47765381D01*
X27303500Y-47738598D01*
X27303500Y-47535620D01*
X27324552Y-47465893D01*
X27389742Y-47367773D01*
X27393643Y-47361902D01*
X27458055Y-47192338D01*
X27459035Y-47185366D01*
X27482748Y-47016639D01*
X27482748Y-47016636D01*
X27483299Y-47012717D01*
X27483616Y-46990000D01*
X27463397Y-46809745D01*
X27461080Y-46803091D01*
X27406064Y-46645106D01*
X27406062Y-46645103D01*
X27403745Y-46638448D01*
X27393584Y-46622187D01*
X27311359Y-46490598D01*
X27307626Y-46484624D01*
X27240969Y-46417500D01*
X27184778Y-46360915D01*
X27184774Y-46360912D01*
X27179815Y-46355918D01*
X27168697Y-46348862D01*
X27070880Y-46286786D01*
X27026666Y-46258727D01*
X26989908Y-46245638D01*
X26862425Y-46200243D01*
X26862420Y-46200242D01*
X26855790Y-46197881D01*
X26848802Y-46197048D01*
X26848799Y-46197047D01*
X26725698Y-46182368D01*
X26675680Y-46176404D01*
X26668677Y-46177140D01*
X26668676Y-46177140D01*
X26502288Y-46194628D01*
X26502286Y-46194629D01*
X26495288Y-46195364D01*
X26323579Y-46253818D01*
X26317575Y-46257512D01*
X26175095Y-46345166D01*
X26175092Y-46345168D01*
X26169088Y-46348862D01*
X26164053Y-46353793D01*
X26164050Y-46353795D01*
X26086508Y-46429730D01*
X26039493Y-46475771D01*
X25941235Y-46628238D01*
X25938826Y-46634858D01*
X25938824Y-46634861D01*
X25896157Y-46752088D01*
X25879197Y-46798685D01*
X25856463Y-46978640D01*
X25874163Y-47159160D01*
X25931418Y-47331273D01*
X25935065Y-47337295D01*
X25935066Y-47337297D01*
X26018276Y-47474694D01*
X26036500Y-47539965D01*
X26036500Y-47974426D01*
X26035973Y-47985609D01*
X26034298Y-47993102D01*
X26034547Y-48001028D01*
X26034547Y-48001029D01*
X26036438Y-48061179D01*
X26036500Y-48065138D01*
X26036500Y-48093049D01*
X26036997Y-48096983D01*
X26036997Y-48096984D01*
X26037005Y-48097049D01*
X26037938Y-48108886D01*
X26039327Y-48153082D01*
X26044978Y-48172532D01*
X26048987Y-48191893D01*
X26051526Y-48211990D01*
X26054445Y-48219361D01*
X26054445Y-48219363D01*
X26067804Y-48253105D01*
X26071649Y-48264335D01*
X26083982Y-48306786D01*
X26088015Y-48313605D01*
X26088017Y-48313610D01*
X26094293Y-48324221D01*
X26102988Y-48341969D01*
X26110448Y-48360810D01*
X26115110Y-48367226D01*
X26115110Y-48367227D01*
X26136436Y-48396580D01*
X26142952Y-48406500D01*
X26165458Y-48444555D01*
X26179779Y-48458876D01*
X26192619Y-48473909D01*
X26204528Y-48490300D01*
X26210634Y-48495351D01*
X26238605Y-48518491D01*
X26247384Y-48526481D01*
X28954595Y-51233693D01*
X28988621Y-51296005D01*
X28991500Y-51322788D01*
X28991500Y-52346233D01*
X28990973Y-52357416D01*
X28989298Y-52364909D01*
X28989547Y-52372835D01*
X28989547Y-52372836D01*
X28991438Y-52432986D01*
X28991500Y-52436945D01*
X28991500Y-52464856D01*
X28991997Y-52468790D01*
X28991997Y-52468791D01*
X28992005Y-52468856D01*
X28992938Y-52480693D01*
X28994327Y-52524889D01*
X28999978Y-52544339D01*
X29003987Y-52563700D01*
X29006526Y-52583797D01*
X29009445Y-52591168D01*
X29009445Y-52591170D01*
X29022804Y-52624912D01*
X29026649Y-52636142D01*
X29038982Y-52678593D01*
X29043015Y-52685412D01*
X29043017Y-52685417D01*
X29049293Y-52696028D01*
X29057988Y-52713776D01*
X29065448Y-52732617D01*
X29070110Y-52739033D01*
X29070110Y-52739034D01*
X29091436Y-52768387D01*
X29097952Y-52778307D01*
X29120458Y-52816362D01*
X29134779Y-52830683D01*
X29147619Y-52845716D01*
X29159528Y-52862107D01*
X29165634Y-52867158D01*
X29193605Y-52890298D01*
X29202384Y-52898288D01*
X30364750Y-54060654D01*
X30398776Y-54122966D01*
X30401054Y-54137453D01*
X30404163Y-54169160D01*
X30461418Y-54341273D01*
X30465066Y-54347296D01*
X30465068Y-54347301D01*
X30503179Y-54410231D01*
X30521358Y-54478860D01*
X30499547Y-54546424D01*
X30444671Y-54591469D01*
X30395403Y-54601501D01*
X23961026Y-54601501D01*
X23902756Y-54585806D01*
X23902554Y-54586270D01*
X23899421Y-54584908D01*
X23897742Y-54584456D01*
X23889510Y-54579674D01*
X23882506Y-54577553D01*
X23882502Y-54577551D01*
X23726424Y-54530280D01*
X23726423Y-54530280D01*
X23720233Y-54528405D01*
X23713794Y-54527830D01*
X23713792Y-54527830D01*
X23645656Y-54521749D01*
X23645650Y-54521749D01*
X23642863Y-54521500D01*
X23550377Y-54521500D01*
X23490835Y-54506544D01*
X23487797Y-54504915D01*
X23465891Y-54493169D01*
X23461110Y-54491523D01*
X23461106Y-54491521D01*
X23391599Y-54467588D01*
X23385421Y-54465278D01*
X23317266Y-54437742D01*
X23317267Y-54437742D01*
X23312571Y-54435845D01*
X23280539Y-54428568D01*
X23267441Y-54424837D01*
X23236369Y-54414138D01*
X23158900Y-54400757D01*
X23152496Y-54399477D01*
X23075856Y-54382065D01*
X23043047Y-54380001D01*
X23029547Y-54378415D01*
X22997164Y-54372821D01*
X22993207Y-54372641D01*
X22993204Y-54372641D01*
X22969494Y-54371564D01*
X22969475Y-54371564D01*
X22968075Y-54371500D01*
X22911892Y-54371500D01*
X22903980Y-54371251D01*
X22898386Y-54370899D01*
X22833587Y-54366822D01*
X22794545Y-54370650D01*
X22792008Y-54370899D01*
X22779712Y-54371500D01*
X21491945Y-54371500D01*
X21431244Y-54355915D01*
X21359608Y-54316533D01*
X21359609Y-54316533D01*
X21354213Y-54313567D01*
X21348346Y-54311706D01*
X21348344Y-54311705D01*
X21171564Y-54255627D01*
X21171563Y-54255627D01*
X21165694Y-54253765D01*
X21011773Y-54236500D01*
X19744873Y-54236500D01*
X19731703Y-54235810D01*
X19698204Y-54232289D01*
X19698202Y-54232289D01*
X19692075Y-54231645D01*
X19641827Y-54236218D01*
X19637793Y-54236500D01*
X19635231Y-54236500D01*
X19632173Y-54236800D01*
X19632169Y-54236800D01*
X19590404Y-54240895D01*
X19589529Y-54240977D01*
X19575092Y-54242291D01*
X19495112Y-54249570D01*
X19491703Y-54250573D01*
X19488167Y-54250920D01*
X19397279Y-54278361D01*
X19396610Y-54278561D01*
X19305381Y-54305410D01*
X19302228Y-54307058D01*
X19298831Y-54308084D01*
X19293401Y-54310971D01*
X19293399Y-54310972D01*
X19282940Y-54316533D01*
X19214899Y-54352711D01*
X19214319Y-54353016D01*
X19130110Y-54397040D01*
X19127342Y-54399265D01*
X19124204Y-54400934D01*
X19112805Y-54410231D01*
X19050628Y-54460941D01*
X19049944Y-54461494D01*
X18980782Y-54517102D01*
X18980776Y-54517108D01*
X18975975Y-54520968D01*
X18973692Y-54523689D01*
X18970938Y-54525935D01*
X18912032Y-54597141D01*
X18910441Y-54599064D01*
X18909935Y-54599671D01*
X18898595Y-54613186D01*
X18852816Y-54667743D01*
X18848846Y-54672474D01*
X18847134Y-54675589D01*
X18844870Y-54678325D01*
X18819330Y-54725561D01*
X18799700Y-54761865D01*
X18799298Y-54762603D01*
X18753567Y-54845787D01*
X18752494Y-54849170D01*
X18750802Y-54852299D01*
X18724399Y-54937593D01*
X18722725Y-54943002D01*
X18722468Y-54943822D01*
X18693765Y-55034306D01*
X18693369Y-55037837D01*
X18692318Y-55041232D01*
X18682516Y-55134494D01*
X18682396Y-55135638D01*
X18682311Y-55136421D01*
X18676500Y-55188227D01*
X18676500Y-55190800D01*
X18676180Y-55194776D01*
X18674597Y-55209842D01*
X18671645Y-55237925D01*
X18672204Y-55244065D01*
X18675981Y-55285570D01*
X18676500Y-55296990D01*
X18676500Y-56455127D01*
X18675810Y-56468297D01*
X18671645Y-56507925D01*
X18676218Y-56558173D01*
X18676500Y-56562207D01*
X18676500Y-56564769D01*
X18676800Y-56567827D01*
X18676800Y-56567831D01*
X18680895Y-56609596D01*
X18680977Y-56610471D01*
X18689570Y-56704888D01*
X18690573Y-56708297D01*
X18690920Y-56711833D01*
X18718334Y-56802630D01*
X18718561Y-56803390D01*
X18745410Y-56894619D01*
X18747058Y-56897772D01*
X18748084Y-56901169D01*
X18750971Y-56906599D01*
X18750972Y-56906601D01*
X18792669Y-56985022D01*
X18793016Y-56985681D01*
X18837040Y-57069890D01*
X18839265Y-57072658D01*
X18840934Y-57075796D01*
X18844831Y-57080574D01*
X18900941Y-57149372D01*
X18901494Y-57150056D01*
X18957102Y-57219218D01*
X18957108Y-57219224D01*
X18960968Y-57224025D01*
X18963689Y-57226308D01*
X18965935Y-57229062D01*
X19039136Y-57289619D01*
X19039671Y-57290065D01*
X19112474Y-57351154D01*
X19115589Y-57352866D01*
X19118325Y-57355130D01*
X19150850Y-57372716D01*
X19201865Y-57400300D01*
X19202603Y-57400702D01*
X19285787Y-57446433D01*
X19289170Y-57447506D01*
X19292299Y-57449198D01*
X19380744Y-57476576D01*
X19383002Y-57477275D01*
X19383842Y-57477538D01*
X19468435Y-57504373D01*
X19468439Y-57504374D01*
X19474306Y-57506235D01*
X19477837Y-57506631D01*
X19481232Y-57507682D01*
X19575707Y-57517611D01*
X19576421Y-57517689D01*
X19628227Y-57523500D01*
X19630800Y-57523500D01*
X19634776Y-57523820D01*
X19671796Y-57527711D01*
X19671798Y-57527711D01*
X19677925Y-57528355D01*
X19725570Y-57524019D01*
X19736990Y-57523500D01*
X21004769Y-57523500D01*
X21007825Y-57523200D01*
X21007832Y-57523200D01*
X21066340Y-57517463D01*
X21151833Y-57509080D01*
X21157734Y-57507298D01*
X21157736Y-57507298D01*
X21259491Y-57476576D01*
X21341169Y-57451916D01*
X21415780Y-57412245D01*
X21432701Y-57403248D01*
X21491854Y-57388500D01*
X21528599Y-57388500D01*
X21596720Y-57408502D01*
X21643213Y-57462158D01*
X21653317Y-57532432D01*
X21629689Y-57589712D01*
X21576246Y-57661542D01*
X21573830Y-57666293D01*
X21573828Y-57666297D01*
X21546485Y-57720077D01*
X21471760Y-57867051D01*
X21470178Y-57872145D01*
X21470177Y-57872148D01*
X21429605Y-58002812D01*
X21403393Y-58087227D01*
X21402692Y-58092516D01*
X21373886Y-58309862D01*
X21373102Y-58315774D01*
X21381751Y-58546158D01*
X21429093Y-58771791D01*
X21431051Y-58776750D01*
X21431052Y-58776752D01*
X21487471Y-58919612D01*
X21513776Y-58986221D01*
X21516543Y-58990780D01*
X21516544Y-58990783D01*
X21574908Y-59086963D01*
X21633377Y-59183317D01*
X21636874Y-59187347D01*
X21743889Y-59310671D01*
X21784477Y-59357445D01*
X21806127Y-59375197D01*
X21958627Y-59500240D01*
X21958633Y-59500244D01*
X21962755Y-59503624D01*
X21967398Y-59506267D01*
X21994735Y-59521829D01*
X22044041Y-59572912D01*
X22057902Y-59642542D01*
X22031918Y-59708613D01*
X22002768Y-59735851D01*
X21885422Y-59814852D01*
X21877130Y-59821519D01*
X21718100Y-59973228D01*
X21711059Y-59981186D01*
X21579859Y-60157525D01*
X21574255Y-60166562D01*
X21474643Y-60362484D01*
X21470643Y-60372335D01*
X21405466Y-60582240D01*
X21403183Y-60592624D01*
X21401139Y-60608043D01*
X21403335Y-60622207D01*
X21416522Y-60626000D01*
X22988000Y-60626000D01*
X23056121Y-60646002D01*
X23102614Y-60699658D01*
X23114000Y-60752000D01*
X23114000Y-62213849D01*
X23118310Y-62228527D01*
X23130193Y-62230590D01*
X23209325Y-62223876D01*
X23219797Y-62222086D01*
X23432535Y-62166870D01*
X23442575Y-62163335D01*
X23642970Y-62073063D01*
X23652253Y-62067895D01*
X23695134Y-62039027D01*
X23762812Y-62017577D01*
X23831344Y-62036121D01*
X23878971Y-62088773D01*
X23891500Y-62143548D01*
X23891500Y-64471853D01*
X23891451Y-64475371D01*
X23888666Y-64575074D01*
X23894901Y-64621798D01*
X23899058Y-64652955D01*
X23899758Y-64659508D01*
X23906060Y-64737834D01*
X23913897Y-64769739D01*
X23916426Y-64783127D01*
X23920771Y-64815689D01*
X23922232Y-64820530D01*
X23922233Y-64820532D01*
X23943478Y-64890898D01*
X23945219Y-64897259D01*
X23963963Y-64973575D01*
X23965941Y-64978235D01*
X23976801Y-65003820D01*
X23981438Y-65016630D01*
X23990933Y-65048077D01*
X23993151Y-65052625D01*
X23993154Y-65052632D01*
X24025371Y-65118687D01*
X24028107Y-65124689D01*
X24058812Y-65197025D01*
X24061504Y-65201299D01*
X24076319Y-65224825D01*
X24082945Y-65236729D01*
X24097346Y-65266257D01*
X24100265Y-65270394D01*
X24100265Y-65270395D01*
X24142641Y-65330466D01*
X24146301Y-65335955D01*
X24183384Y-65394841D01*
X24188167Y-65402436D01*
X24191508Y-65406225D01*
X24191512Y-65406231D01*
X24209898Y-65427086D01*
X24218344Y-65437781D01*
X24237274Y-65464616D01*
X24256909Y-65486119D01*
X24296625Y-65525835D01*
X24302044Y-65531605D01*
X24345350Y-65580727D01*
X24345353Y-65580730D01*
X24348698Y-65584524D01*
X24352606Y-65587734D01*
X24352607Y-65587735D01*
X24380989Y-65611048D01*
X24390108Y-65619318D01*
X32242195Y-73471405D01*
X32276221Y-73533717D01*
X32271156Y-73604532D01*
X32228609Y-73661368D01*
X32162089Y-73686179D01*
X32153100Y-73686500D01*
X30750000Y-73686500D01*
X30676921Y-73691727D01*
X30598835Y-73714655D01*
X30545330Y-73730365D01*
X30545328Y-73730366D01*
X30536684Y-73732904D01*
X30529105Y-73737775D01*
X30421309Y-73807051D01*
X30421306Y-73807053D01*
X30413729Y-73811923D01*
X30407828Y-73818733D01*
X30323918Y-73915569D01*
X30323916Y-73915572D01*
X30318016Y-73922381D01*
X30257300Y-74055330D01*
X30256018Y-74064245D01*
X30256018Y-74064246D01*
X30237139Y-74195552D01*
X30237138Y-74195559D01*
X30236500Y-74200000D01*
X30236500Y-78200000D01*
X30241727Y-78273079D01*
X30256265Y-78322590D01*
X30273354Y-78380790D01*
X30282904Y-78413316D01*
X30287775Y-78420895D01*
X30357051Y-78528691D01*
X30357053Y-78528694D01*
X30361923Y-78536271D01*
X30368733Y-78542172D01*
X30465569Y-78626082D01*
X30465572Y-78626084D01*
X30472381Y-78631984D01*
X30605330Y-78692700D01*
X30614245Y-78693982D01*
X30614246Y-78693982D01*
X30745552Y-78712861D01*
X30745559Y-78712862D01*
X30750000Y-78713500D01*
X32750000Y-78713500D01*
X32823079Y-78708273D01*
X32901165Y-78685345D01*
X32954670Y-78669635D01*
X32954672Y-78669634D01*
X32963316Y-78667096D01*
X33027135Y-78626082D01*
X33078691Y-78592949D01*
X33078694Y-78592947D01*
X33086271Y-78588077D01*
X33126048Y-78542172D01*
X33176082Y-78484431D01*
X33176084Y-78484428D01*
X33181984Y-78477619D01*
X33215299Y-78404670D01*
X33238958Y-78352864D01*
X33238958Y-78352863D01*
X33242700Y-78344670D01*
X33253962Y-78266340D01*
X33262861Y-78204448D01*
X33262862Y-78204441D01*
X33263500Y-78200000D01*
X33263500Y-74768832D01*
X33283502Y-74700711D01*
X33337158Y-74654218D01*
X33407432Y-74644114D01*
X33454770Y-74661055D01*
X33476953Y-74674489D01*
X33488201Y-74682162D01*
X33514304Y-74702119D01*
X33582500Y-74738685D01*
X33583531Y-74739238D01*
X33589256Y-74742503D01*
X33656488Y-74783220D01*
X33686947Y-74795526D01*
X33699288Y-74801306D01*
X33728239Y-74816830D01*
X33733020Y-74818476D01*
X33733024Y-74818478D01*
X33802531Y-74842411D01*
X33808709Y-74844721D01*
X33831020Y-74853735D01*
X33881559Y-74874154D01*
X33886499Y-74875276D01*
X33886498Y-74875276D01*
X33913590Y-74881431D01*
X33926689Y-74885162D01*
X33957761Y-74895861D01*
X34035230Y-74909242D01*
X34041634Y-74910522D01*
X34118274Y-74927934D01*
X34151083Y-74929998D01*
X34164583Y-74931584D01*
X34196966Y-74937178D01*
X34200923Y-74937358D01*
X34200926Y-74937358D01*
X34224636Y-74938435D01*
X34224655Y-74938435D01*
X34226055Y-74938499D01*
X34282238Y-74938499D01*
X34290149Y-74938748D01*
X34360543Y-74943177D01*
X34402122Y-74939100D01*
X34414418Y-74938499D01*
X48307966Y-74938499D01*
X48376087Y-74958501D01*
X48397061Y-74975404D01*
X48656776Y-75235119D01*
X48690802Y-75297431D01*
X48685737Y-75368246D01*
X48643190Y-75425082D01*
X48608287Y-75443492D01*
X48548579Y-75463818D01*
X48412039Y-75547819D01*
X48346019Y-75566500D01*
X43727338Y-75566500D01*
X43659824Y-75546885D01*
X43600616Y-75509311D01*
X43536666Y-75468727D01*
X43465798Y-75443492D01*
X43372425Y-75410243D01*
X43372420Y-75410242D01*
X43365790Y-75407881D01*
X43358802Y-75407048D01*
X43358799Y-75407047D01*
X43235698Y-75392368D01*
X43185680Y-75386404D01*
X43178677Y-75387140D01*
X43178676Y-75387140D01*
X43012288Y-75404628D01*
X43012286Y-75404629D01*
X43005288Y-75405364D01*
X42833579Y-75463818D01*
X42796691Y-75486512D01*
X42685095Y-75555166D01*
X42685092Y-75555168D01*
X42679088Y-75558862D01*
X42674053Y-75563793D01*
X42674050Y-75563795D01*
X42568521Y-75667137D01*
X42549493Y-75685771D01*
X42451235Y-75838238D01*
X42448826Y-75844858D01*
X42448824Y-75844861D01*
X42402581Y-75971913D01*
X42389197Y-76008685D01*
X42366463Y-76188640D01*
X42384163Y-76369160D01*
X42441418Y-76541273D01*
X42445065Y-76547295D01*
X42445066Y-76547297D01*
X42509824Y-76654225D01*
X42535380Y-76696424D01*
X42661382Y-76826902D01*
X42667278Y-76830760D01*
X42786010Y-76908456D01*
X42813159Y-76926222D01*
X42819763Y-76928678D01*
X42819765Y-76928679D01*
X42976558Y-76986990D01*
X42976560Y-76986990D01*
X42983168Y-76989448D01*
X43066995Y-77000633D01*
X43155980Y-77012507D01*
X43155984Y-77012507D01*
X43162961Y-77013438D01*
X43169972Y-77012800D01*
X43169976Y-77012800D01*
X43312459Y-76999832D01*
X43343600Y-76996998D01*
X43350302Y-76994820D01*
X43350304Y-76994820D01*
X43509409Y-76943124D01*
X43509412Y-76943123D01*
X43516108Y-76940947D01*
X43656182Y-76857446D01*
X43666541Y-76851271D01*
X43731058Y-76833500D01*
X48348903Y-76833500D01*
X48417896Y-76854068D01*
X48501010Y-76908456D01*
X48528159Y-76926222D01*
X48534763Y-76928678D01*
X48534765Y-76928679D01*
X48691558Y-76986990D01*
X48691560Y-76986990D01*
X48698168Y-76989448D01*
X48705153Y-76990380D01*
X48705157Y-76990381D01*
X48742824Y-76995407D01*
X48760186Y-76997723D01*
X48825062Y-77026559D01*
X48832616Y-77033521D01*
X49016349Y-77217254D01*
X49023889Y-77225540D01*
X49028001Y-77232019D01*
X49033778Y-77237444D01*
X49077652Y-77278644D01*
X49080494Y-77281399D01*
X49100231Y-77301136D01*
X49103428Y-77303616D01*
X49112448Y-77311319D01*
X49144680Y-77341587D01*
X49151626Y-77345406D01*
X49151629Y-77345408D01*
X49162435Y-77351349D01*
X49178954Y-77362200D01*
X49194960Y-77374615D01*
X49202229Y-77377760D01*
X49202233Y-77377763D01*
X49235538Y-77392175D01*
X49246188Y-77397392D01*
X49284941Y-77418696D01*
X49292616Y-77420667D01*
X49292617Y-77420667D01*
X49304563Y-77423734D01*
X49323267Y-77430138D01*
X49329306Y-77432751D01*
X49341856Y-77438182D01*
X49349679Y-77439421D01*
X49349689Y-77439424D01*
X49385525Y-77445100D01*
X49397145Y-77447506D01*
X49432290Y-77456529D01*
X49439971Y-77458501D01*
X49460225Y-77458501D01*
X49479935Y-77460052D01*
X49499944Y-77463221D01*
X49507836Y-77462475D01*
X49543962Y-77459060D01*
X49555820Y-77458501D01*
X50037293Y-77458501D01*
X50105414Y-77478503D01*
X50151907Y-77532159D01*
X50162011Y-77602433D01*
X50133879Y-77664032D01*
X50134163Y-77664259D01*
X50133257Y-77665392D01*
X50132517Y-77667013D01*
X50130527Y-77668808D01*
X50114477Y-77688887D01*
X50121545Y-77702334D01*
X50800000Y-78380790D01*
X51838388Y-79419177D01*
X51850162Y-79425606D01*
X51862176Y-79416310D01*
X51890466Y-79375907D01*
X51895946Y-79366417D01*
X51984326Y-79176887D01*
X51988072Y-79166595D01*
X52042196Y-78964599D01*
X52044100Y-78953803D01*
X52047207Y-78918281D01*
X52073070Y-78852162D01*
X52130573Y-78810522D01*
X52201460Y-78806581D01*
X52261823Y-78840166D01*
X55329742Y-81908086D01*
X58291341Y-84869685D01*
X58293795Y-84872207D01*
X58362330Y-84944681D01*
X58366347Y-84947752D01*
X58366350Y-84947755D01*
X58424759Y-84992412D01*
X58429891Y-84996554D01*
X58482075Y-85040965D01*
X58489718Y-85047470D01*
X58494044Y-85050090D01*
X58494051Y-85050095D01*
X58517822Y-85064491D01*
X58529069Y-85072163D01*
X58555172Y-85092120D01*
X58624414Y-85129247D01*
X58630135Y-85132510D01*
X58697355Y-85173220D01*
X58727832Y-85185534D01*
X58740148Y-85191303D01*
X58769107Y-85206831D01*
X58843431Y-85232423D01*
X58849559Y-85234714D01*
X58866691Y-85241636D01*
X58917731Y-85262258D01*
X58917735Y-85262259D01*
X58922427Y-85264155D01*
X58927366Y-85265277D01*
X58927369Y-85265278D01*
X58948756Y-85270137D01*
X58952821Y-85271060D01*
X58954458Y-85271432D01*
X58967557Y-85275163D01*
X58998629Y-85285862D01*
X59076098Y-85299243D01*
X59082502Y-85300523D01*
X59159142Y-85317935D01*
X59191951Y-85319999D01*
X59205451Y-85321585D01*
X59237834Y-85327179D01*
X59241791Y-85327359D01*
X59241794Y-85327359D01*
X59265504Y-85328436D01*
X59265523Y-85328436D01*
X59266923Y-85328500D01*
X59323105Y-85328500D01*
X59331016Y-85328749D01*
X59401410Y-85333178D01*
X59442989Y-85329101D01*
X59455285Y-85328500D01*
X62291001Y-85328500D01*
X62293509Y-85328298D01*
X62293514Y-85328298D01*
X62466924Y-85314346D01*
X62466929Y-85314345D01*
X62471965Y-85313940D01*
X62476873Y-85312734D01*
X62476876Y-85312734D01*
X62702792Y-85257244D01*
X62707706Y-85256037D01*
X62712358Y-85254062D01*
X62712362Y-85254061D01*
X62873817Y-85185527D01*
X62931156Y-85161188D01*
X63007646Y-85113019D01*
X63132288Y-85034528D01*
X63132291Y-85034526D01*
X63136567Y-85031833D01*
X63222151Y-84956381D01*
X63314858Y-84874650D01*
X63314861Y-84874647D01*
X63318655Y-84871302D01*
X63422206Y-84745236D01*
X63469526Y-84687628D01*
X63469528Y-84687625D01*
X63472734Y-84683722D01*
X63594841Y-84473922D01*
X63632379Y-84376132D01*
X63680020Y-84252022D01*
X63680021Y-84252018D01*
X63681833Y-84247298D01*
X63685132Y-84231507D01*
X63730440Y-84014631D01*
X63730440Y-84014627D01*
X63731474Y-84009680D01*
X63742486Y-83767183D01*
X63739724Y-83743312D01*
X63715167Y-83531071D01*
X63715166Y-83531067D01*
X63714585Y-83526044D01*
X63710366Y-83511132D01*
X63649866Y-83297331D01*
X63648490Y-83292468D01*
X63646356Y-83287892D01*
X63646354Y-83287886D01*
X63548038Y-83077046D01*
X63548036Y-83077042D01*
X63545901Y-83072464D01*
X63541671Y-83066239D01*
X63412302Y-82875881D01*
X63409456Y-82871693D01*
X63242668Y-82695319D01*
X63238641Y-82692240D01*
X63053846Y-82550953D01*
X63053842Y-82550950D01*
X63049826Y-82547880D01*
X62835891Y-82433169D01*
X62606369Y-82354138D01*
X62507022Y-82336978D01*
X62371074Y-82313496D01*
X62371068Y-82313495D01*
X62367164Y-82312821D01*
X62363203Y-82312641D01*
X62363202Y-82312641D01*
X62339494Y-82311564D01*
X62339475Y-82311564D01*
X62338075Y-82311500D01*
X60052029Y-82311500D01*
X59983908Y-82291498D01*
X59962934Y-82274595D01*
X54593809Y-76905470D01*
X54559783Y-76843158D01*
X54564848Y-76772343D01*
X54589936Y-76734329D01*
X54588635Y-76733238D01*
X54593162Y-76727842D01*
X54598266Y-76722982D01*
X54698643Y-76571902D01*
X54738284Y-76467548D01*
X72797000Y-76467548D01*
X72797000Y-76715595D01*
X72797425Y-76722899D01*
X72811461Y-76843293D01*
X72814806Y-76857446D01*
X72870120Y-77009833D01*
X72876630Y-77022832D01*
X72965518Y-77158409D01*
X72974842Y-77169561D01*
X73092533Y-77281050D01*
X73104180Y-77289763D01*
X73244362Y-77371188D01*
X73257699Y-77376987D01*
X73413667Y-77424224D01*
X73426296Y-77426674D01*
X73494388Y-77432751D01*
X73499984Y-77433000D01*
X73620385Y-77433000D01*
X73635624Y-77428525D01*
X73636829Y-77427135D01*
X73638500Y-77419452D01*
X73638500Y-76472115D01*
X73634025Y-76456876D01*
X73632635Y-76455671D01*
X73624952Y-76454000D01*
X72815115Y-76454000D01*
X72799876Y-76458475D01*
X72798671Y-76459865D01*
X72797000Y-76467548D01*
X54738284Y-76467548D01*
X54742338Y-76456876D01*
X54760555Y-76408920D01*
X54760556Y-76408918D01*
X54763055Y-76402338D01*
X54764035Y-76395366D01*
X54787748Y-76226639D01*
X54787748Y-76226636D01*
X54788299Y-76222717D01*
X54788616Y-76200000D01*
X54768397Y-76019745D01*
X54766080Y-76013091D01*
X54711064Y-75855106D01*
X54711062Y-75855103D01*
X54708745Y-75848448D01*
X54671043Y-75788111D01*
X54627646Y-75718661D01*
X54608500Y-75651892D01*
X54608500Y-75643768D01*
X54609027Y-75632585D01*
X54610702Y-75625092D01*
X54608562Y-75557001D01*
X54608500Y-75553044D01*
X54608500Y-75525144D01*
X54607996Y-75521153D01*
X54607063Y-75509311D01*
X54605923Y-75473036D01*
X54605674Y-75465111D01*
X54600021Y-75445652D01*
X54596012Y-75426293D01*
X54594818Y-75416843D01*
X54593474Y-75406203D01*
X54590558Y-75398837D01*
X54590556Y-75398831D01*
X54577200Y-75365098D01*
X54573355Y-75353868D01*
X54563230Y-75319017D01*
X54563230Y-75319016D01*
X54561019Y-75311407D01*
X54550705Y-75293966D01*
X54542008Y-75276213D01*
X54537472Y-75264758D01*
X54534552Y-75257383D01*
X54508563Y-75221612D01*
X54502047Y-75211692D01*
X54479542Y-75173638D01*
X54465221Y-75159317D01*
X54452380Y-75144283D01*
X54447201Y-75137154D01*
X54440472Y-75127893D01*
X54406407Y-75099712D01*
X54397626Y-75091722D01*
X54174420Y-74868515D01*
X54140395Y-74806203D01*
X54138301Y-74793465D01*
X54133397Y-74749745D01*
X54093401Y-74634892D01*
X54076064Y-74585106D01*
X54076062Y-74585103D01*
X54073745Y-74578448D01*
X54063662Y-74562312D01*
X53981359Y-74430598D01*
X53977626Y-74424624D01*
X53963941Y-74410843D01*
X53854778Y-74300915D01*
X53854774Y-74300912D01*
X53849815Y-74295918D01*
X53838697Y-74288862D01*
X53757570Y-74237378D01*
X53696666Y-74198727D01*
X53654738Y-74183797D01*
X53532425Y-74140243D01*
X53532420Y-74140242D01*
X53525790Y-74137881D01*
X53518802Y-74137048D01*
X53518799Y-74137047D01*
X53395698Y-74122368D01*
X53345680Y-74116404D01*
X53338677Y-74117140D01*
X53338676Y-74117140D01*
X53172288Y-74134628D01*
X53172286Y-74134629D01*
X53165288Y-74135364D01*
X52993579Y-74193818D01*
X52931109Y-74232250D01*
X52845095Y-74285166D01*
X52845092Y-74285168D01*
X52839088Y-74288862D01*
X52834053Y-74293793D01*
X52834050Y-74293795D01*
X52769624Y-74356886D01*
X52709493Y-74415771D01*
X52611235Y-74568238D01*
X52608826Y-74574858D01*
X52608824Y-74574861D01*
X52584240Y-74642405D01*
X52542145Y-74699576D01*
X52475824Y-74724914D01*
X52406332Y-74710373D01*
X52376744Y-74688405D01*
X51615887Y-73927548D01*
X69762000Y-73927548D01*
X69762000Y-74425595D01*
X69762425Y-74432899D01*
X69776461Y-74553293D01*
X69779806Y-74567446D01*
X69835120Y-74719833D01*
X69841630Y-74732832D01*
X69930518Y-74868409D01*
X69939842Y-74879561D01*
X70057533Y-74991050D01*
X70069180Y-74999763D01*
X70209362Y-75081188D01*
X70222699Y-75086987D01*
X70378667Y-75134224D01*
X70391296Y-75136674D01*
X70459388Y-75142751D01*
X70464984Y-75143000D01*
X70847885Y-75143000D01*
X70863124Y-75138525D01*
X70864329Y-75137135D01*
X70866000Y-75129452D01*
X70866000Y-73932115D01*
X70861525Y-73916876D01*
X70860135Y-73915671D01*
X70852452Y-73914000D01*
X69780115Y-73914000D01*
X69764876Y-73918475D01*
X69763671Y-73919865D01*
X69762000Y-73927548D01*
X51615887Y-73927548D01*
X50568323Y-72879984D01*
X69762000Y-72879984D01*
X69762000Y-73387885D01*
X69766475Y-73403124D01*
X69767865Y-73404329D01*
X69775548Y-73406000D01*
X70847885Y-73406000D01*
X70863124Y-73401525D01*
X70864329Y-73400135D01*
X70866000Y-73392452D01*
X70866000Y-72195115D01*
X70861525Y-72179876D01*
X70860135Y-72178671D01*
X70852452Y-72177000D01*
X70479405Y-72177000D01*
X70472101Y-72177425D01*
X70351707Y-72191461D01*
X70337554Y-72194806D01*
X70185167Y-72250120D01*
X70172168Y-72256630D01*
X70036591Y-72345518D01*
X70025439Y-72354842D01*
X69913950Y-72472533D01*
X69905237Y-72484180D01*
X69823812Y-72624362D01*
X69818013Y-72637699D01*
X69770776Y-72793667D01*
X69768326Y-72806296D01*
X69762249Y-72874388D01*
X69762000Y-72879984D01*
X50568323Y-72879984D01*
X50068672Y-72380333D01*
X50066218Y-72377811D01*
X50001135Y-72308987D01*
X50001132Y-72308985D01*
X49997665Y-72305318D01*
X49935236Y-72257588D01*
X49930105Y-72253447D01*
X49874130Y-72205808D01*
X49874129Y-72205807D01*
X49870277Y-72202529D01*
X49865952Y-72199910D01*
X49865947Y-72199906D01*
X49842173Y-72185508D01*
X49830926Y-72177836D01*
X49804823Y-72157879D01*
X49735589Y-72120756D01*
X49729865Y-72117492D01*
X49666963Y-72079397D01*
X49662639Y-72076778D01*
X49632178Y-72064471D01*
X49619838Y-72058691D01*
X49595347Y-72045559D01*
X49595348Y-72045559D01*
X49590888Y-72043168D01*
X49586107Y-72041522D01*
X49586103Y-72041520D01*
X49516596Y-72017587D01*
X49510418Y-72015277D01*
X49460205Y-71994990D01*
X49437568Y-71985844D01*
X49405536Y-71978567D01*
X49392438Y-71974836D01*
X49361366Y-71964137D01*
X49283897Y-71950756D01*
X49277493Y-71949476D01*
X49200853Y-71932064D01*
X49168044Y-71930000D01*
X49154544Y-71928414D01*
X49122161Y-71922820D01*
X49118204Y-71922640D01*
X49118201Y-71922640D01*
X49094491Y-71921563D01*
X49094472Y-71921563D01*
X49093072Y-71921499D01*
X49036889Y-71921499D01*
X49028977Y-71921250D01*
X49023383Y-71920898D01*
X48958584Y-71916821D01*
X48919542Y-71920649D01*
X48917005Y-71920898D01*
X48904709Y-71921499D01*
X35011161Y-71921499D01*
X34943040Y-71901497D01*
X34922066Y-71884594D01*
X33623262Y-70585790D01*
X33589236Y-70523478D01*
X33594301Y-70452663D01*
X33636848Y-70395827D01*
X33703368Y-70371016D01*
X33729844Y-70371966D01*
X33734155Y-70372945D01*
X33766961Y-70375009D01*
X33780465Y-70376596D01*
X33802693Y-70380435D01*
X33808943Y-70381515D01*
X33808946Y-70381515D01*
X33812846Y-70382189D01*
X33816803Y-70382369D01*
X33816806Y-70382369D01*
X33840516Y-70383446D01*
X33840535Y-70383446D01*
X33841935Y-70383510D01*
X33898118Y-70383510D01*
X33906029Y-70383759D01*
X33976423Y-70388188D01*
X34018003Y-70384111D01*
X34030299Y-70383510D01*
X53386776Y-70383510D01*
X53390294Y-70383559D01*
X53484942Y-70386203D01*
X53484945Y-70386203D01*
X53489997Y-70386344D01*
X53567890Y-70375951D01*
X53574431Y-70375252D01*
X53603124Y-70372943D01*
X53647715Y-70369356D01*
X53647719Y-70369355D01*
X53652757Y-70368950D01*
X53684670Y-70361111D01*
X53698050Y-70358584D01*
X53730612Y-70354239D01*
X53735453Y-70352778D01*
X53735455Y-70352777D01*
X53805821Y-70331532D01*
X53812184Y-70329791D01*
X53819651Y-70327957D01*
X53888498Y-70311047D01*
X53918744Y-70298209D01*
X53931555Y-70293571D01*
X53963000Y-70284077D01*
X53967548Y-70281859D01*
X53967555Y-70281856D01*
X54033610Y-70249639D01*
X54039612Y-70246903D01*
X54084296Y-70227935D01*
X54111948Y-70216198D01*
X54139748Y-70198691D01*
X54151652Y-70192065D01*
X54181180Y-70177664D01*
X54245392Y-70132367D01*
X54250878Y-70128709D01*
X54313078Y-70089539D01*
X54313079Y-70089538D01*
X54317359Y-70086843D01*
X54321148Y-70083502D01*
X54321154Y-70083498D01*
X54342009Y-70065112D01*
X54352704Y-70056666D01*
X54355655Y-70054584D01*
X54379539Y-70037736D01*
X54401042Y-70018101D01*
X54440758Y-69978385D01*
X54446528Y-69972966D01*
X54495650Y-69929660D01*
X54495653Y-69929657D01*
X54499447Y-69926312D01*
X54525971Y-69894021D01*
X54534241Y-69884902D01*
X56206595Y-68212548D01*
X72797000Y-68212548D01*
X72797000Y-68460595D01*
X72797425Y-68467899D01*
X72811461Y-68588293D01*
X72814806Y-68602446D01*
X72870120Y-68754833D01*
X72876630Y-68767832D01*
X72965518Y-68903409D01*
X72974842Y-68914561D01*
X73092533Y-69026050D01*
X73104180Y-69034763D01*
X73244362Y-69116188D01*
X73257699Y-69121987D01*
X73413667Y-69169224D01*
X73426296Y-69171674D01*
X73494388Y-69177751D01*
X73499984Y-69178000D01*
X73620385Y-69178000D01*
X73635624Y-69173525D01*
X73636829Y-69172135D01*
X73638500Y-69164452D01*
X73638500Y-68217115D01*
X73634025Y-68201876D01*
X73632635Y-68200671D01*
X73624952Y-68199000D01*
X72815115Y-68199000D01*
X72799876Y-68203475D01*
X72798671Y-68204865D01*
X72797000Y-68212548D01*
X56206595Y-68212548D01*
X56929666Y-67489477D01*
X56932188Y-67487023D01*
X57001001Y-67421950D01*
X57004681Y-67418470D01*
X57052418Y-67356033D01*
X57056531Y-67350934D01*
X57107470Y-67291082D01*
X57110089Y-67286757D01*
X57110093Y-67286752D01*
X57124491Y-67262978D01*
X57132163Y-67251731D01*
X57152120Y-67225628D01*
X57189247Y-67156386D01*
X57192510Y-67150665D01*
X57230602Y-67087768D01*
X57230603Y-67087767D01*
X57233220Y-67083445D01*
X57245534Y-67052968D01*
X57251303Y-67040652D01*
X57266831Y-67011693D01*
X57292423Y-66937369D01*
X57294718Y-66931231D01*
X57295286Y-66929827D01*
X57312185Y-66888000D01*
X57322258Y-66863069D01*
X57322259Y-66863065D01*
X57324155Y-66858373D01*
X57331432Y-66826341D01*
X57335163Y-66813243D01*
X57345862Y-66782171D01*
X57359243Y-66704702D01*
X57360526Y-66698284D01*
X57360964Y-66696359D01*
X57377935Y-66621658D01*
X57379999Y-66588849D01*
X57381585Y-66575349D01*
X57387179Y-66542966D01*
X57388500Y-66513877D01*
X57388500Y-66457695D01*
X57388749Y-66449783D01*
X57389678Y-66435026D01*
X57393178Y-66379390D01*
X57389101Y-66337811D01*
X57388500Y-66325515D01*
X57388500Y-65672548D01*
X69762000Y-65672548D01*
X69762000Y-66170595D01*
X69762425Y-66177899D01*
X69776461Y-66298293D01*
X69779806Y-66312446D01*
X69835120Y-66464833D01*
X69841630Y-66477832D01*
X69930518Y-66613409D01*
X69939842Y-66624561D01*
X70057533Y-66736050D01*
X70069180Y-66744763D01*
X70209362Y-66826188D01*
X70222699Y-66831987D01*
X70378667Y-66879224D01*
X70391296Y-66881674D01*
X70459388Y-66887751D01*
X70464984Y-66888000D01*
X70847885Y-66888000D01*
X70863124Y-66883525D01*
X70864329Y-66882135D01*
X70866000Y-66874452D01*
X70866000Y-65677115D01*
X70861525Y-65661876D01*
X70860135Y-65660671D01*
X70852452Y-65659000D01*
X69780115Y-65659000D01*
X69764876Y-65663475D01*
X69763671Y-65664865D01*
X69762000Y-65672548D01*
X57388500Y-65672548D01*
X57388500Y-64624984D01*
X69762000Y-64624984D01*
X69762000Y-65132885D01*
X69766475Y-65148124D01*
X69767865Y-65149329D01*
X69775548Y-65151000D01*
X70847885Y-65151000D01*
X70863124Y-65146525D01*
X70864329Y-65145135D01*
X70866000Y-65137452D01*
X70866000Y-63940115D01*
X70861525Y-63924876D01*
X70860135Y-63923671D01*
X70852452Y-63922000D01*
X70479405Y-63922000D01*
X70472101Y-63922425D01*
X70351707Y-63936461D01*
X70337554Y-63939806D01*
X70185167Y-63995120D01*
X70172168Y-64001630D01*
X70036591Y-64090518D01*
X70025439Y-64099842D01*
X69913950Y-64217533D01*
X69905237Y-64229180D01*
X69823812Y-64369362D01*
X69818013Y-64382699D01*
X69770776Y-64538667D01*
X69768326Y-64551296D01*
X69762249Y-64619388D01*
X69762000Y-64624984D01*
X57388500Y-64624984D01*
X57388500Y-59322548D01*
X72394500Y-59322548D01*
X72394500Y-59570595D01*
X72394925Y-59577899D01*
X72408961Y-59698293D01*
X72412306Y-59712446D01*
X72467620Y-59864833D01*
X72474130Y-59877832D01*
X72563018Y-60013409D01*
X72572342Y-60024561D01*
X72690033Y-60136050D01*
X72701680Y-60144763D01*
X72841862Y-60226188D01*
X72855199Y-60231987D01*
X73011167Y-60279224D01*
X73023796Y-60281674D01*
X73091888Y-60287751D01*
X73097484Y-60288000D01*
X73217885Y-60288000D01*
X73233124Y-60283525D01*
X73234329Y-60282135D01*
X73236000Y-60274452D01*
X73236000Y-59327115D01*
X73231525Y-59311876D01*
X73230135Y-59310671D01*
X73222452Y-59309000D01*
X72412615Y-59309000D01*
X72397376Y-59313475D01*
X72396171Y-59314865D01*
X72394500Y-59322548D01*
X57388500Y-59322548D01*
X57388500Y-56782548D01*
X69762000Y-56782548D01*
X69762000Y-57280595D01*
X69762425Y-57287899D01*
X69776461Y-57408293D01*
X69779806Y-57422446D01*
X69835120Y-57574833D01*
X69841630Y-57587832D01*
X69930518Y-57723409D01*
X69939842Y-57734561D01*
X70057533Y-57846050D01*
X70069180Y-57854763D01*
X70209362Y-57936188D01*
X70222699Y-57941987D01*
X70378667Y-57989224D01*
X70391296Y-57991674D01*
X70459388Y-57997751D01*
X70464984Y-57998000D01*
X70847885Y-57998000D01*
X70863124Y-57993525D01*
X70864329Y-57992135D01*
X70866000Y-57984452D01*
X70866000Y-56787115D01*
X70861525Y-56771876D01*
X70860135Y-56770671D01*
X70852452Y-56769000D01*
X69780115Y-56769000D01*
X69764876Y-56773475D01*
X69763671Y-56774865D01*
X69762000Y-56782548D01*
X57388500Y-56782548D01*
X57388500Y-55734984D01*
X69762000Y-55734984D01*
X69762000Y-56242885D01*
X69766475Y-56258124D01*
X69767865Y-56259329D01*
X69775548Y-56261000D01*
X70847885Y-56261000D01*
X70863124Y-56256525D01*
X70864329Y-56255135D01*
X70866000Y-56247452D01*
X70866000Y-55050115D01*
X70861525Y-55034876D01*
X70860135Y-55033671D01*
X70852452Y-55032000D01*
X70479405Y-55032000D01*
X70472101Y-55032425D01*
X70351707Y-55046461D01*
X70337554Y-55049806D01*
X70185167Y-55105120D01*
X70172168Y-55111630D01*
X70036591Y-55200518D01*
X70025439Y-55209842D01*
X69913950Y-55327533D01*
X69905237Y-55339180D01*
X69823812Y-55479362D01*
X69818013Y-55492699D01*
X69770776Y-55648667D01*
X69768326Y-55661296D01*
X69762249Y-55729388D01*
X69762000Y-55734984D01*
X57388500Y-55734984D01*
X57388500Y-53377812D01*
X57388630Y-53372096D01*
X57391603Y-53306620D01*
X57392486Y-53287183D01*
X57389335Y-53259949D01*
X57388500Y-53245468D01*
X57388500Y-52107812D01*
X57388630Y-52102096D01*
X57390036Y-52071132D01*
X57392486Y-52017183D01*
X57381814Y-51924944D01*
X57381386Y-51920580D01*
X57374346Y-51833081D01*
X57373940Y-51828035D01*
X57369518Y-51810029D01*
X57366718Y-51794467D01*
X57365167Y-51781071D01*
X57365166Y-51781068D01*
X57364585Y-51776044D01*
X57341265Y-51693631D01*
X57339307Y-51686710D01*
X57338184Y-51682460D01*
X57328418Y-51642702D01*
X57316037Y-51592294D01*
X57308791Y-51575222D01*
X57303539Y-51560311D01*
X57298490Y-51542468D01*
X57296356Y-51537893D01*
X57296354Y-51537886D01*
X57264184Y-51468898D01*
X57259250Y-51458318D01*
X57257467Y-51454313D01*
X57248583Y-51433382D01*
X57221188Y-51368844D01*
X57218498Y-51364572D01*
X57218493Y-51364563D01*
X57211308Y-51353154D01*
X57203733Y-51339260D01*
X57200343Y-51331990D01*
X57195901Y-51322464D01*
X57143719Y-51245680D01*
X57141311Y-51242001D01*
X57094526Y-51167709D01*
X57094525Y-51167707D01*
X57091833Y-51163433D01*
X57088497Y-51159649D01*
X57088494Y-51159645D01*
X57079568Y-51149521D01*
X57069871Y-51137019D01*
X57065826Y-51131066D01*
X57059456Y-51121693D01*
X57055979Y-51118016D01*
X57055974Y-51118010D01*
X56995692Y-51054265D01*
X56992725Y-51051016D01*
X56934646Y-50985137D01*
X56934640Y-50985131D01*
X56931302Y-50981345D01*
X56916969Y-50969572D01*
X56905406Y-50958789D01*
X56892668Y-50945319D01*
X56828716Y-50896424D01*
X56818934Y-50888945D01*
X56815487Y-50886214D01*
X56770664Y-50849396D01*
X56743722Y-50827266D01*
X56727694Y-50817938D01*
X56714561Y-50809146D01*
X56699826Y-50797880D01*
X56617999Y-50754005D01*
X56614170Y-50751865D01*
X56538304Y-50707709D01*
X56538300Y-50707707D01*
X56533922Y-50705159D01*
X56529197Y-50703345D01*
X56529184Y-50703339D01*
X56516618Y-50698516D01*
X56502229Y-50691929D01*
X56490349Y-50685559D01*
X56490346Y-50685558D01*
X56485891Y-50683169D01*
X56481113Y-50681524D01*
X56481102Y-50681519D01*
X56398090Y-50652936D01*
X56393957Y-50651432D01*
X56312028Y-50619982D01*
X56312020Y-50619980D01*
X56307298Y-50618167D01*
X56289159Y-50614377D01*
X56273908Y-50610177D01*
X56261152Y-50605785D01*
X56261153Y-50605785D01*
X56256369Y-50604138D01*
X56164813Y-50588324D01*
X56160572Y-50587514D01*
X56121013Y-50579250D01*
X56074632Y-50569560D01*
X56074626Y-50569559D01*
X56069680Y-50568526D01*
X56064633Y-50568297D01*
X56064627Y-50568296D01*
X56054685Y-50567845D01*
X56051161Y-50567685D01*
X56035439Y-50565977D01*
X56017164Y-50562821D01*
X56010356Y-50562512D01*
X55989494Y-50561564D01*
X55989475Y-50561564D01*
X55988075Y-50561500D01*
X55917812Y-50561500D01*
X55912096Y-50561370D01*
X55827183Y-50557514D01*
X55822163Y-50558095D01*
X55822159Y-50558095D01*
X55799950Y-50560665D01*
X55785468Y-50561500D01*
X54947647Y-50561500D01*
X54879526Y-50541498D01*
X54833033Y-50487842D01*
X54822929Y-50417568D01*
X54852423Y-50352988D01*
X54893463Y-50322347D01*
X54895308Y-50321747D01*
X54901359Y-50318140D01*
X54901363Y-50318138D01*
X55045741Y-50232071D01*
X55110258Y-50214300D01*
X58950583Y-50214300D01*
X58961766Y-50214827D01*
X58969259Y-50216502D01*
X58977185Y-50216253D01*
X58977186Y-50216253D01*
X59037336Y-50214362D01*
X59041295Y-50214300D01*
X59069206Y-50214300D01*
X59073141Y-50213803D01*
X59073206Y-50213795D01*
X59085043Y-50212862D01*
X59117301Y-50211848D01*
X59121320Y-50211722D01*
X59129239Y-50211473D01*
X59148693Y-50205821D01*
X59168050Y-50201813D01*
X59180280Y-50200268D01*
X59180281Y-50200268D01*
X59188147Y-50199274D01*
X59195518Y-50196355D01*
X59195520Y-50196355D01*
X59229262Y-50182996D01*
X59240492Y-50179151D01*
X59275333Y-50169029D01*
X59275334Y-50169029D01*
X59282943Y-50166818D01*
X59289762Y-50162785D01*
X59289767Y-50162783D01*
X59300378Y-50156507D01*
X59318126Y-50147812D01*
X59336967Y-50140352D01*
X59372737Y-50114364D01*
X59382657Y-50107848D01*
X59413885Y-50089380D01*
X59413888Y-50089378D01*
X59420712Y-50085342D01*
X59435033Y-50071021D01*
X59450067Y-50058180D01*
X59460044Y-50050931D01*
X59466457Y-50046272D01*
X59494648Y-50012195D01*
X59502638Y-50003416D01*
X61357266Y-48148788D01*
X61365556Y-48141244D01*
X61372037Y-48137131D01*
X61418678Y-48087463D01*
X61421432Y-48084622D01*
X61441153Y-48064901D01*
X61443631Y-48061706D01*
X61451337Y-48052684D01*
X61476177Y-48026232D01*
X61481605Y-48020452D01*
X61491365Y-48002699D01*
X61502218Y-47986176D01*
X61509772Y-47976437D01*
X61514632Y-47970172D01*
X61532195Y-47929588D01*
X61537402Y-47918958D01*
X61558714Y-47880191D01*
X61560685Y-47872514D01*
X61560687Y-47872509D01*
X61563751Y-47860573D01*
X61570157Y-47841861D01*
X61575053Y-47830548D01*
X61578200Y-47823276D01*
X61585116Y-47779612D01*
X61587523Y-47767991D01*
X61596547Y-47732842D01*
X61596547Y-47732841D01*
X61598519Y-47725161D01*
X61598519Y-47704900D01*
X61600070Y-47685189D01*
X61601998Y-47673016D01*
X61603238Y-47665188D01*
X61599078Y-47621178D01*
X61598519Y-47609321D01*
X61598520Y-45905638D01*
X61599047Y-45894454D01*
X61600722Y-45886961D01*
X61600252Y-45871990D01*
X61598582Y-45818871D01*
X61598520Y-45814913D01*
X61598520Y-45787014D01*
X61598016Y-45783023D01*
X61597083Y-45771181D01*
X61596189Y-45742717D01*
X61595694Y-45726981D01*
X61593482Y-45719367D01*
X61593481Y-45719362D01*
X61590043Y-45707529D01*
X61586032Y-45688165D01*
X61584487Y-45675934D01*
X61583494Y-45668073D01*
X61580577Y-45660706D01*
X61580576Y-45660701D01*
X61567218Y-45626962D01*
X61563374Y-45615735D01*
X61553250Y-45580892D01*
X61551038Y-45573277D01*
X61540727Y-45555842D01*
X61532032Y-45538094D01*
X61524572Y-45519253D01*
X61498584Y-45483483D01*
X61492068Y-45473563D01*
X61473600Y-45442335D01*
X61473598Y-45442332D01*
X61469562Y-45435508D01*
X61455241Y-45421187D01*
X61442400Y-45406153D01*
X61435151Y-45396176D01*
X61430492Y-45389763D01*
X61396415Y-45361572D01*
X61387636Y-45353582D01*
X60062650Y-44028595D01*
X60028624Y-43966283D01*
X60033689Y-43895467D01*
X60076236Y-43838632D01*
X60142756Y-43813821D01*
X60151745Y-43813500D01*
X72710406Y-43813500D01*
X72778527Y-43833502D01*
X72799501Y-43850405D01*
X72989595Y-44040499D01*
X73023621Y-44102811D01*
X73026500Y-44129594D01*
X73026500Y-55090131D01*
X73006498Y-55158252D01*
X72965866Y-55197850D01*
X72899825Y-55237925D01*
X72816683Y-55288377D01*
X72812653Y-55291874D01*
X72655144Y-55428553D01*
X72642555Y-55439477D01*
X72639168Y-55443608D01*
X72613258Y-55475207D01*
X72554598Y-55515202D01*
X72483628Y-55517133D01*
X72422879Y-55480388D01*
X72403161Y-55451735D01*
X72398369Y-55442165D01*
X72309482Y-55306591D01*
X72300158Y-55295439D01*
X72182467Y-55183950D01*
X72170820Y-55175237D01*
X72030638Y-55093812D01*
X72017301Y-55088013D01*
X71861333Y-55040776D01*
X71848704Y-55038326D01*
X71780612Y-55032249D01*
X71775016Y-55032000D01*
X71392115Y-55032000D01*
X71376876Y-55036475D01*
X71375671Y-55037865D01*
X71374000Y-55045548D01*
X71374000Y-57979885D01*
X71378475Y-57995124D01*
X71379865Y-57996329D01*
X71387548Y-57998000D01*
X71760595Y-57998000D01*
X71767899Y-57997575D01*
X71888293Y-57983539D01*
X71902446Y-57980194D01*
X72054833Y-57924880D01*
X72067832Y-57918370D01*
X72203409Y-57829482D01*
X72214561Y-57820158D01*
X72326050Y-57702467D01*
X72334766Y-57690817D01*
X72405689Y-57568713D01*
X72457200Y-57519854D01*
X72526948Y-57506600D01*
X72592790Y-57533159D01*
X72605813Y-57545026D01*
X72634248Y-57574833D01*
X72716576Y-57661135D01*
X72754568Y-57689402D01*
X72785026Y-57712064D01*
X72827739Y-57768775D01*
X72833011Y-57839576D01*
X72799169Y-57901987D01*
X72778898Y-57918525D01*
X72669091Y-57990518D01*
X72657939Y-57999842D01*
X72546450Y-58117533D01*
X72537737Y-58129180D01*
X72456312Y-58269362D01*
X72450513Y-58282699D01*
X72403276Y-58438667D01*
X72400826Y-58451296D01*
X72394749Y-58519388D01*
X72394500Y-58524984D01*
X72394500Y-58782885D01*
X72398975Y-58798124D01*
X72400365Y-58799329D01*
X72408048Y-58801000D01*
X73618000Y-58801000D01*
X73686121Y-58821002D01*
X73732614Y-58874658D01*
X73744000Y-58927000D01*
X73744000Y-60269885D01*
X73748475Y-60285124D01*
X73749865Y-60286329D01*
X73757548Y-60288000D01*
X73868095Y-60288000D01*
X73875399Y-60287575D01*
X73995793Y-60273539D01*
X74009946Y-60270194D01*
X74162333Y-60214880D01*
X74175332Y-60208370D01*
X74310909Y-60119482D01*
X74322061Y-60110158D01*
X74436394Y-59989465D01*
X74497763Y-59953767D01*
X74568690Y-59956914D01*
X74626656Y-59997908D01*
X74633237Y-60007030D01*
X74637019Y-60012798D01*
X74641644Y-60019852D01*
X74766106Y-60137756D01*
X74767153Y-60138748D01*
X74802851Y-60200117D01*
X74806500Y-60230221D01*
X74806500Y-62282930D01*
X74805067Y-62301880D01*
X74801801Y-62323349D01*
X74802394Y-62330641D01*
X74802394Y-62330644D01*
X74806085Y-62376018D01*
X74806500Y-62386233D01*
X74806500Y-62394293D01*
X74806925Y-62397937D01*
X74809789Y-62422507D01*
X74810222Y-62426882D01*
X74813130Y-62462627D01*
X74816140Y-62499637D01*
X74818396Y-62506601D01*
X74819587Y-62512560D01*
X74820971Y-62518415D01*
X74821818Y-62525681D01*
X74846735Y-62594327D01*
X74848152Y-62598455D01*
X74870649Y-62667899D01*
X74874445Y-62674154D01*
X74876951Y-62679628D01*
X74879670Y-62685058D01*
X74882167Y-62691937D01*
X74886180Y-62698057D01*
X74886180Y-62698058D01*
X74922186Y-62752976D01*
X74924523Y-62756680D01*
X74962405Y-62819107D01*
X74966121Y-62823315D01*
X74966122Y-62823316D01*
X74969803Y-62827484D01*
X74969776Y-62827508D01*
X74972429Y-62830500D01*
X74975132Y-62833733D01*
X74979144Y-62839852D01*
X74984456Y-62844884D01*
X75035383Y-62893128D01*
X75037825Y-62895506D01*
X75884479Y-63742160D01*
X75918505Y-63804472D01*
X75913440Y-63875287D01*
X75870893Y-63932123D01*
X75821258Y-63954570D01*
X75797338Y-63959588D01*
X75733430Y-63972997D01*
X75733424Y-63972999D01*
X75728209Y-63974093D01*
X75723250Y-63976051D01*
X75723248Y-63976052D01*
X75518744Y-64056815D01*
X75518742Y-64056816D01*
X75513779Y-64058776D01*
X75509220Y-64061543D01*
X75509217Y-64061544D01*
X75410832Y-64121246D01*
X75316683Y-64178377D01*
X75312653Y-64181874D01*
X75153313Y-64320142D01*
X75142555Y-64329477D01*
X75139168Y-64333608D01*
X74999760Y-64503627D01*
X74999756Y-64503633D01*
X74996376Y-64507755D01*
X74978448Y-64539250D01*
X74927368Y-64588555D01*
X74857738Y-64602417D01*
X74791667Y-64576434D01*
X74764427Y-64547284D01*
X74734419Y-64502712D01*
X74682559Y-64425681D01*
X74523424Y-64258865D01*
X74338458Y-64121246D01*
X74333707Y-64118830D01*
X74333703Y-64118828D01*
X74169359Y-64035272D01*
X74132949Y-64016760D01*
X74127855Y-64015178D01*
X74127852Y-64015177D01*
X73917871Y-63949976D01*
X73912773Y-63948393D01*
X73907484Y-63947692D01*
X73689511Y-63918802D01*
X73689506Y-63918802D01*
X73684226Y-63918102D01*
X73678897Y-63918302D01*
X73678895Y-63918302D01*
X73573762Y-63922249D01*
X73453842Y-63926751D01*
X73448623Y-63927846D01*
X73390149Y-63940115D01*
X73228209Y-63974093D01*
X73223250Y-63976051D01*
X73223248Y-63976052D01*
X73018744Y-64056815D01*
X73018742Y-64056816D01*
X73013779Y-64058776D01*
X73009220Y-64061543D01*
X73009217Y-64061544D01*
X72910832Y-64121246D01*
X72816683Y-64178377D01*
X72812653Y-64181874D01*
X72653313Y-64320142D01*
X72642555Y-64329477D01*
X72639168Y-64333608D01*
X72613258Y-64365207D01*
X72554598Y-64405202D01*
X72483628Y-64407133D01*
X72422879Y-64370388D01*
X72403161Y-64341735D01*
X72398369Y-64332165D01*
X72309482Y-64196591D01*
X72300158Y-64185439D01*
X72182467Y-64073950D01*
X72170820Y-64065237D01*
X72030638Y-63983812D01*
X72017301Y-63978013D01*
X71861333Y-63930776D01*
X71848704Y-63928326D01*
X71780612Y-63922249D01*
X71775016Y-63922000D01*
X71392115Y-63922000D01*
X71376876Y-63926475D01*
X71375671Y-63927865D01*
X71374000Y-63935548D01*
X71374000Y-66869885D01*
X71378475Y-66885124D01*
X71379865Y-66886329D01*
X71387548Y-66888000D01*
X71760595Y-66888000D01*
X71767899Y-66887575D01*
X71888293Y-66873539D01*
X71902446Y-66870194D01*
X72054833Y-66814880D01*
X72067832Y-66808370D01*
X72203409Y-66719482D01*
X72214561Y-66710158D01*
X72326050Y-66592467D01*
X72334766Y-66580817D01*
X72405689Y-66458713D01*
X72457200Y-66409854D01*
X72526948Y-66396600D01*
X72592790Y-66423159D01*
X72605813Y-66435026D01*
X72630142Y-66460529D01*
X72716576Y-66551135D01*
X72720854Y-66554318D01*
X72756470Y-66580817D01*
X72901542Y-66688754D01*
X72906293Y-66691170D01*
X72906297Y-66691172D01*
X72986945Y-66732175D01*
X73038603Y-66780878D01*
X73055729Y-66849778D01*
X73032887Y-66917000D01*
X73021313Y-66931145D01*
X72948950Y-67007533D01*
X72940237Y-67019180D01*
X72858812Y-67159362D01*
X72853013Y-67172699D01*
X72805776Y-67328667D01*
X72803326Y-67341296D01*
X72797249Y-67409388D01*
X72797000Y-67414984D01*
X72797000Y-67672885D01*
X72801475Y-67688124D01*
X72802865Y-67689329D01*
X72810548Y-67691000D01*
X74020500Y-67691000D01*
X74088621Y-67711002D01*
X74135114Y-67764658D01*
X74146500Y-67817000D01*
X74146500Y-69159885D01*
X74150975Y-69175124D01*
X74152365Y-69176329D01*
X74160048Y-69178000D01*
X74270595Y-69178000D01*
X74277899Y-69177575D01*
X74398293Y-69163539D01*
X74412446Y-69160194D01*
X74564833Y-69104880D01*
X74577832Y-69098370D01*
X74713409Y-69009482D01*
X74724561Y-69000158D01*
X74838894Y-68879465D01*
X74900263Y-68843767D01*
X74971190Y-68846914D01*
X75029156Y-68887908D01*
X75035737Y-68897030D01*
X75039519Y-68902798D01*
X75044144Y-68909852D01*
X75166805Y-69026050D01*
X75169653Y-69028748D01*
X75205351Y-69090117D01*
X75209000Y-69120221D01*
X75209000Y-70940430D01*
X75207567Y-70959380D01*
X75204301Y-70980849D01*
X75204894Y-70988141D01*
X75204894Y-70988144D01*
X75208585Y-71033518D01*
X75209000Y-71043733D01*
X75209000Y-71051793D01*
X75209425Y-71055437D01*
X75212289Y-71080007D01*
X75212722Y-71084382D01*
X75218640Y-71157137D01*
X75220896Y-71164101D01*
X75222087Y-71170060D01*
X75223471Y-71175915D01*
X75224318Y-71183181D01*
X75249235Y-71251827D01*
X75250652Y-71255955D01*
X75273149Y-71325399D01*
X75276945Y-71331654D01*
X75279451Y-71337128D01*
X75282170Y-71342558D01*
X75284667Y-71349437D01*
X75288680Y-71355557D01*
X75288680Y-71355558D01*
X75324686Y-71410476D01*
X75327023Y-71414180D01*
X75364905Y-71476607D01*
X75368621Y-71480815D01*
X75368622Y-71480816D01*
X75372303Y-71484984D01*
X75372276Y-71485008D01*
X75374929Y-71488000D01*
X75377632Y-71491233D01*
X75381644Y-71497352D01*
X75386956Y-71502384D01*
X75437883Y-71550628D01*
X75440325Y-71553006D01*
X75884479Y-71997160D01*
X75918505Y-72059472D01*
X75913440Y-72130287D01*
X75870893Y-72187123D01*
X75821258Y-72209570D01*
X75797338Y-72214588D01*
X75733430Y-72227997D01*
X75733424Y-72227999D01*
X75728209Y-72229093D01*
X75723250Y-72231051D01*
X75723248Y-72231052D01*
X75518744Y-72311815D01*
X75518742Y-72311816D01*
X75513779Y-72313776D01*
X75509220Y-72316543D01*
X75509217Y-72316544D01*
X75410832Y-72376246D01*
X75316683Y-72433377D01*
X75312653Y-72436874D01*
X75155144Y-72573553D01*
X75142555Y-72584477D01*
X75139168Y-72588608D01*
X74999760Y-72758627D01*
X74999756Y-72758633D01*
X74996376Y-72762755D01*
X74978448Y-72794250D01*
X74927368Y-72843555D01*
X74857738Y-72857417D01*
X74791667Y-72831434D01*
X74764427Y-72802284D01*
X74685539Y-72685108D01*
X74682559Y-72680681D01*
X74654891Y-72651677D01*
X74527103Y-72517722D01*
X74523424Y-72513865D01*
X74338458Y-72376246D01*
X74333707Y-72373830D01*
X74333703Y-72373828D01*
X74206169Y-72308987D01*
X74132949Y-72271760D01*
X74127855Y-72270178D01*
X74127852Y-72270177D01*
X73927980Y-72208115D01*
X73912773Y-72203393D01*
X73906254Y-72202529D01*
X73689511Y-72173802D01*
X73689506Y-72173802D01*
X73684226Y-72173102D01*
X73678897Y-72173302D01*
X73678895Y-72173302D01*
X73573762Y-72177249D01*
X73453842Y-72181751D01*
X73448623Y-72182846D01*
X73390149Y-72195115D01*
X73228209Y-72229093D01*
X73223250Y-72231051D01*
X73223248Y-72231052D01*
X73018744Y-72311815D01*
X73018742Y-72311816D01*
X73013779Y-72313776D01*
X73009220Y-72316543D01*
X73009217Y-72316544D01*
X72910832Y-72376246D01*
X72816683Y-72433377D01*
X72812653Y-72436874D01*
X72655144Y-72573553D01*
X72642555Y-72584477D01*
X72639168Y-72588608D01*
X72613258Y-72620207D01*
X72554598Y-72660202D01*
X72483628Y-72662133D01*
X72422879Y-72625388D01*
X72403161Y-72596735D01*
X72398369Y-72587165D01*
X72309482Y-72451591D01*
X72300158Y-72440439D01*
X72182467Y-72328950D01*
X72170820Y-72320237D01*
X72030638Y-72238812D01*
X72017301Y-72233013D01*
X71861333Y-72185776D01*
X71848704Y-72183326D01*
X71780612Y-72177249D01*
X71775016Y-72177000D01*
X71392115Y-72177000D01*
X71376876Y-72181475D01*
X71375671Y-72182865D01*
X71374000Y-72190548D01*
X71374000Y-75124885D01*
X71378475Y-75140124D01*
X71379865Y-75141329D01*
X71387548Y-75143000D01*
X71760595Y-75143000D01*
X71767899Y-75142575D01*
X71888293Y-75128539D01*
X71902446Y-75125194D01*
X72054833Y-75069880D01*
X72067832Y-75063370D01*
X72203409Y-74974482D01*
X72214561Y-74965158D01*
X72326050Y-74847467D01*
X72334766Y-74835817D01*
X72405689Y-74713713D01*
X72457200Y-74664854D01*
X72526948Y-74651600D01*
X72592790Y-74678159D01*
X72605813Y-74690026D01*
X72634248Y-74719833D01*
X72716576Y-74806135D01*
X72720854Y-74809318D01*
X72756470Y-74835817D01*
X72901542Y-74943754D01*
X72906293Y-74946170D01*
X72906297Y-74946172D01*
X72986945Y-74987175D01*
X73038603Y-75035878D01*
X73055729Y-75104778D01*
X73032887Y-75172000D01*
X73021313Y-75186145D01*
X72948950Y-75262533D01*
X72940237Y-75274180D01*
X72858812Y-75414362D01*
X72853013Y-75427699D01*
X72805776Y-75583667D01*
X72803326Y-75596296D01*
X72797249Y-75664388D01*
X72797000Y-75669984D01*
X72797000Y-75927885D01*
X72801475Y-75943124D01*
X72802865Y-75944329D01*
X72810548Y-75946000D01*
X74020500Y-75946000D01*
X74088621Y-75966002D01*
X74135114Y-76019658D01*
X74146500Y-76072000D01*
X74146500Y-77414885D01*
X74150975Y-77430124D01*
X74152365Y-77431329D01*
X74160048Y-77433000D01*
X74270595Y-77433000D01*
X74277899Y-77432575D01*
X74398293Y-77418539D01*
X74412446Y-77415194D01*
X74564833Y-77359880D01*
X74577832Y-77353370D01*
X74713409Y-77264482D01*
X74724561Y-77255158D01*
X74838894Y-77134465D01*
X74900263Y-77098767D01*
X74971190Y-77101914D01*
X75029156Y-77142908D01*
X75035737Y-77152030D01*
X75039519Y-77157798D01*
X75044144Y-77164852D01*
X75172547Y-77286490D01*
X75325490Y-77375326D01*
X75332494Y-77377447D01*
X75332498Y-77377449D01*
X75488576Y-77424720D01*
X75494767Y-77426595D01*
X75501206Y-77427170D01*
X75501208Y-77427170D01*
X75569344Y-77433251D01*
X75569350Y-77433251D01*
X75572137Y-77433500D01*
X76349293Y-77433500D01*
X76419036Y-77425369D01*
X76473411Y-77419030D01*
X76473415Y-77419029D01*
X76480681Y-77418182D01*
X76487556Y-77415687D01*
X76487558Y-77415686D01*
X76640061Y-77360329D01*
X76640062Y-77360329D01*
X76646937Y-77357833D01*
X76653054Y-77353822D01*
X76653057Y-77353821D01*
X76788733Y-77264868D01*
X76788734Y-77264867D01*
X76794852Y-77260856D01*
X76916490Y-77132453D01*
X77005326Y-76979510D01*
X77016347Y-76943124D01*
X77054720Y-76816424D01*
X77054720Y-76816423D01*
X77056595Y-76810233D01*
X77063500Y-76732863D01*
X77063500Y-76228871D01*
X77083502Y-76160750D01*
X77100405Y-76139776D01*
X78118028Y-75122153D01*
X78180340Y-75088127D01*
X78244488Y-75090916D01*
X78322126Y-75115024D01*
X78322136Y-75115026D01*
X78327227Y-75116607D01*
X78332513Y-75117308D01*
X78332515Y-75117308D01*
X78550489Y-75146198D01*
X78550494Y-75146198D01*
X78555774Y-75146898D01*
X78561103Y-75146698D01*
X78561105Y-75146698D01*
X78670966Y-75142573D01*
X78786158Y-75138249D01*
X78791468Y-75137135D01*
X78919664Y-75110237D01*
X79011791Y-75090907D01*
X79016750Y-75088949D01*
X79016752Y-75088948D01*
X79221256Y-75008185D01*
X79221258Y-75008184D01*
X79226221Y-75006224D01*
X79236869Y-74999763D01*
X79418757Y-74889390D01*
X79418756Y-74889390D01*
X79423317Y-74886623D01*
X79466786Y-74848903D01*
X79593412Y-74739023D01*
X79593414Y-74739021D01*
X79597445Y-74735523D01*
X79658505Y-74661055D01*
X79740240Y-74561373D01*
X79740244Y-74561367D01*
X79743624Y-74557245D01*
X79782719Y-74488566D01*
X79855032Y-74361529D01*
X79857675Y-74356886D01*
X79936337Y-74140175D01*
X79940485Y-74117238D01*
X79976623Y-73917392D01*
X79976624Y-73917385D01*
X79977361Y-73913308D01*
X79978500Y-73889156D01*
X79978500Y-73477110D01*
X79963920Y-73305280D01*
X79962582Y-73300125D01*
X79962581Y-73300119D01*
X79907343Y-73087297D01*
X79907342Y-73087293D01*
X79906001Y-73082128D01*
X79811312Y-72871925D01*
X79740935Y-72767390D01*
X79685542Y-72685111D01*
X79685539Y-72685107D01*
X79682559Y-72680681D01*
X79663331Y-72660525D01*
X79630783Y-72597429D01*
X79628500Y-72573553D01*
X79628500Y-66487701D01*
X79648502Y-66419580D01*
X79657066Y-66407810D01*
X79740240Y-66306373D01*
X79740244Y-66306367D01*
X79743624Y-66302245D01*
X79782719Y-66233566D01*
X79855032Y-66106529D01*
X79857675Y-66101886D01*
X79936337Y-65885175D01*
X79937287Y-65879923D01*
X79976623Y-65662392D01*
X79976624Y-65662385D01*
X79977361Y-65658308D01*
X79978500Y-65634156D01*
X79978500Y-65222110D01*
X79969976Y-65121656D01*
X79964371Y-65055591D01*
X79964370Y-65055587D01*
X79963920Y-65050280D01*
X79962582Y-65045125D01*
X79962581Y-65045119D01*
X79907343Y-64832297D01*
X79907342Y-64832293D01*
X79906001Y-64827128D01*
X79811312Y-64616925D01*
X79740935Y-64512390D01*
X79685542Y-64430111D01*
X79685539Y-64430107D01*
X79682559Y-64425681D01*
X79663331Y-64405525D01*
X79630783Y-64342429D01*
X79628500Y-64318553D01*
X79628500Y-57597701D01*
X79648502Y-57529580D01*
X79657066Y-57517810D01*
X79657197Y-57517651D01*
X79676328Y-57494319D01*
X79740240Y-57416373D01*
X79740244Y-57416367D01*
X79743624Y-57412245D01*
X79748746Y-57403248D01*
X79849386Y-57226448D01*
X79857675Y-57211886D01*
X79936337Y-56995175D01*
X79937287Y-56989923D01*
X79976623Y-56772392D01*
X79976624Y-56772385D01*
X79977361Y-56768308D01*
X79978500Y-56744156D01*
X79978500Y-56332110D01*
X79963920Y-56160280D01*
X79962582Y-56155125D01*
X79962581Y-56155119D01*
X79907343Y-55942297D01*
X79907342Y-55942293D01*
X79906001Y-55937128D01*
X79811312Y-55726925D01*
X79740935Y-55622390D01*
X79685542Y-55540111D01*
X79685539Y-55540107D01*
X79682559Y-55535681D01*
X79663331Y-55515525D01*
X79630783Y-55452429D01*
X79628500Y-55428553D01*
X79628500Y-42726840D01*
X79629237Y-42713232D01*
X79632659Y-42681736D01*
X79632659Y-42681732D01*
X79633324Y-42675611D01*
X79629716Y-42634365D01*
X79628950Y-42625609D01*
X79628621Y-42620784D01*
X79628500Y-42618313D01*
X79628500Y-42615231D01*
X79626068Y-42590428D01*
X79624309Y-42572489D01*
X79624187Y-42571174D01*
X79616623Y-42484719D01*
X79616087Y-42478587D01*
X79614600Y-42473468D01*
X79614080Y-42468167D01*
X79587199Y-42379133D01*
X79586864Y-42378000D01*
X79562627Y-42294578D01*
X79562625Y-42294574D01*
X79560908Y-42288663D01*
X79558457Y-42283934D01*
X79556916Y-42278831D01*
X79513230Y-42196669D01*
X79512683Y-42195627D01*
X79472728Y-42118545D01*
X79472727Y-42118544D01*
X79469892Y-42113074D01*
X79466569Y-42108911D01*
X79464066Y-42104204D01*
X79443641Y-42079160D01*
X79405263Y-42032105D01*
X79404500Y-42031160D01*
X79373261Y-41992027D01*
X79370770Y-41989536D01*
X79370120Y-41988809D01*
X79366408Y-41984463D01*
X79342955Y-41955708D01*
X79339065Y-41950938D01*
X79334323Y-41947015D01*
X79334321Y-41947013D01*
X79303727Y-41921703D01*
X79294947Y-41913713D01*
X77351855Y-39970621D01*
X77342753Y-39960478D01*
X77322897Y-39935782D01*
X77319032Y-39930975D01*
X77280578Y-39898708D01*
X77276931Y-39895528D01*
X77275119Y-39893885D01*
X77272925Y-39891691D01*
X77239651Y-39864358D01*
X77238853Y-39863696D01*
X77167526Y-39803846D01*
X77162856Y-39801278D01*
X77158739Y-39797897D01*
X77076914Y-39754023D01*
X77075755Y-39753394D01*
X76999619Y-39711538D01*
X76999611Y-39711535D01*
X76994213Y-39708567D01*
X76989131Y-39706955D01*
X76984437Y-39704438D01*
X76895469Y-39677238D01*
X76894441Y-39676918D01*
X76805694Y-39648765D01*
X76800398Y-39648171D01*
X76795302Y-39646613D01*
X76702743Y-39637210D01*
X76701607Y-39637089D01*
X76667992Y-39633319D01*
X76655270Y-39631892D01*
X76655266Y-39631892D01*
X76651773Y-39631500D01*
X76648246Y-39631500D01*
X76647261Y-39631445D01*
X76641581Y-39630998D01*
X76612175Y-39628011D01*
X76604663Y-39627248D01*
X76604661Y-39627248D01*
X76598538Y-39626626D01*
X76556259Y-39630623D01*
X76552891Y-39630941D01*
X76541033Y-39631500D01*
X75255501Y-39631500D01*
X75187380Y-39611498D01*
X75140887Y-39557842D01*
X75130783Y-39487568D01*
X75160277Y-39422988D01*
X75182333Y-39402921D01*
X75335328Y-39293792D01*
X75343200Y-39287139D01*
X75494052Y-39136812D01*
X75500730Y-39128965D01*
X75625003Y-38956020D01*
X75630313Y-38947183D01*
X75724670Y-38756267D01*
X75728469Y-38746672D01*
X75790377Y-38542910D01*
X75792555Y-38532837D01*
X75793986Y-38521962D01*
X75791775Y-38507778D01*
X75778617Y-38504000D01*
X74332000Y-38504000D01*
X74263879Y-38483998D01*
X74217386Y-38430342D01*
X74206000Y-38378000D01*
X74206000Y-38122000D01*
X74226002Y-38053879D01*
X74279658Y-38007386D01*
X74332000Y-37996000D01*
X75778344Y-37996000D01*
X75791875Y-37992027D01*
X75793180Y-37982947D01*
X75751214Y-37815875D01*
X75747894Y-37806124D01*
X75662972Y-37610814D01*
X75658105Y-37601739D01*
X75542426Y-37422926D01*
X75536136Y-37414757D01*
X75392806Y-37257240D01*
X75385273Y-37250215D01*
X75218139Y-37118222D01*
X75209556Y-37112520D01*
X75172602Y-37092120D01*
X75122631Y-37041687D01*
X75107859Y-36972245D01*
X75132975Y-36905839D01*
X75160327Y-36879232D01*
X75183797Y-36862491D01*
X75339860Y-36751173D01*
X75498096Y-36593489D01*
X75546398Y-36526270D01*
X75625435Y-36416277D01*
X75628453Y-36412077D01*
X75641995Y-36384678D01*
X75725136Y-36216453D01*
X75725137Y-36216451D01*
X75727430Y-36211811D01*
X75777263Y-36047793D01*
X75790865Y-36003023D01*
X75790865Y-36003021D01*
X75792370Y-35998069D01*
X75821529Y-35776590D01*
X75822359Y-35742622D01*
X75823074Y-35713365D01*
X75823074Y-35713361D01*
X75823156Y-35710000D01*
X75804852Y-35487361D01*
X75750431Y-35270702D01*
X75661354Y-35065840D01*
X75594477Y-34962464D01*
X75542822Y-34882617D01*
X75542820Y-34882614D01*
X75540014Y-34878277D01*
X75389670Y-34713051D01*
X75385619Y-34709852D01*
X75385615Y-34709848D01*
X75218414Y-34577800D01*
X75218410Y-34577798D01*
X75214359Y-34574598D01*
X75178028Y-34554542D01*
X75081963Y-34501512D01*
X75018789Y-34466638D01*
X75013920Y-34464914D01*
X75013916Y-34464912D01*
X74813087Y-34393795D01*
X74813083Y-34393794D01*
X74808212Y-34392069D01*
X74803119Y-34391162D01*
X74803116Y-34391161D01*
X74593373Y-34353800D01*
X74593367Y-34353799D01*
X74588284Y-34352894D01*
X74512981Y-34351974D01*
X74370081Y-34350228D01*
X74370079Y-34350228D01*
X74364911Y-34350165D01*
X74144091Y-34383955D01*
X73931756Y-34453357D01*
X73733607Y-34556507D01*
X73729474Y-34559610D01*
X73729471Y-34559612D01*
X73582191Y-34670193D01*
X73554965Y-34690635D01*
X73551393Y-34694373D01*
X73409962Y-34842372D01*
X73400629Y-34852138D01*
X73293201Y-35009621D01*
X73238293Y-35054621D01*
X73167768Y-35062792D01*
X73104021Y-35031538D01*
X73083324Y-35007054D01*
X73002822Y-34882617D01*
X73002820Y-34882614D01*
X73000014Y-34878277D01*
X72849670Y-34713051D01*
X72845619Y-34709852D01*
X72845615Y-34709848D01*
X72678414Y-34577800D01*
X72678410Y-34577798D01*
X72674359Y-34574598D01*
X72638028Y-34554542D01*
X72541963Y-34501512D01*
X72478789Y-34466638D01*
X72473920Y-34464914D01*
X72473916Y-34464912D01*
X72273087Y-34393795D01*
X72273083Y-34393794D01*
X72268212Y-34392069D01*
X72263119Y-34391162D01*
X72263116Y-34391161D01*
X72053373Y-34353800D01*
X72053367Y-34353799D01*
X72048284Y-34352894D01*
X71972981Y-34351974D01*
X71830081Y-34350228D01*
X71830079Y-34350228D01*
X71824911Y-34350165D01*
X71604091Y-34383955D01*
X71391756Y-34453357D01*
X71193607Y-34556507D01*
X71189474Y-34559610D01*
X71189471Y-34559612D01*
X71042191Y-34670193D01*
X71014965Y-34690635D01*
X71011393Y-34694373D01*
X70869962Y-34842372D01*
X70860629Y-34852138D01*
X70753201Y-35009621D01*
X70698293Y-35054621D01*
X70627768Y-35062792D01*
X70564021Y-35031538D01*
X70543324Y-35007054D01*
X70462822Y-34882617D01*
X70462820Y-34882614D01*
X70460014Y-34878277D01*
X70309670Y-34713051D01*
X70305619Y-34709852D01*
X70305615Y-34709848D01*
X70138414Y-34577800D01*
X70138410Y-34577798D01*
X70134359Y-34574598D01*
X70098028Y-34554542D01*
X70001963Y-34501512D01*
X69938789Y-34466638D01*
X69933920Y-34464914D01*
X69933916Y-34464912D01*
X69733087Y-34393795D01*
X69733083Y-34393794D01*
X69728212Y-34392069D01*
X69723119Y-34391162D01*
X69723116Y-34391161D01*
X69513373Y-34353800D01*
X69513367Y-34353799D01*
X69508284Y-34352894D01*
X69432981Y-34351974D01*
X69290081Y-34350228D01*
X69290079Y-34350228D01*
X69284911Y-34350165D01*
X69064091Y-34383955D01*
X68851756Y-34453357D01*
X68653607Y-34556507D01*
X68649474Y-34559610D01*
X68649471Y-34559612D01*
X68502191Y-34670193D01*
X68474965Y-34690635D01*
X68471393Y-34694373D01*
X68329962Y-34842372D01*
X68320629Y-34852138D01*
X68317720Y-34856403D01*
X68317714Y-34856411D01*
X68305404Y-34874457D01*
X68213204Y-35009618D01*
X68212898Y-35010066D01*
X68157987Y-35055069D01*
X68087462Y-35063240D01*
X68023715Y-35031986D01*
X68003018Y-35007502D01*
X67922426Y-34882926D01*
X67916136Y-34874757D01*
X67772806Y-34717240D01*
X67765273Y-34710215D01*
X67598139Y-34578222D01*
X67589552Y-34572517D01*
X67403117Y-34469599D01*
X67393705Y-34465369D01*
X67192959Y-34394280D01*
X67182988Y-34391646D01*
X67111837Y-34378972D01*
X67098540Y-34380432D01*
X67094000Y-34394989D01*
X67094000Y-35838000D01*
X67073998Y-35906121D01*
X67020342Y-35952614D01*
X66968000Y-35964000D01*
X66712000Y-35964000D01*
X66643879Y-35943998D01*
X66597386Y-35890342D01*
X66586000Y-35838000D01*
X66586000Y-34393102D01*
X66582082Y-34379758D01*
X66567806Y-34377771D01*
X66529324Y-34383660D01*
X66519288Y-34386051D01*
X66316868Y-34452212D01*
X66307359Y-34456209D01*
X66118463Y-34554542D01*
X66109738Y-34560036D01*
X65939433Y-34687905D01*
X65931726Y-34694748D01*
X65784590Y-34848717D01*
X65778109Y-34856722D01*
X65673498Y-35010074D01*
X65618587Y-35055076D01*
X65548062Y-35063247D01*
X65484315Y-35031993D01*
X65463618Y-35007509D01*
X65382822Y-34882617D01*
X65382820Y-34882614D01*
X65380014Y-34878277D01*
X65229670Y-34713051D01*
X65225619Y-34709852D01*
X65225615Y-34709848D01*
X65058414Y-34577800D01*
X65058410Y-34577798D01*
X65054359Y-34574598D01*
X65018028Y-34554542D01*
X64921963Y-34501512D01*
X64858789Y-34466638D01*
X64853920Y-34464914D01*
X64853916Y-34464912D01*
X64653087Y-34393795D01*
X64653083Y-34393794D01*
X64648212Y-34392069D01*
X64643119Y-34391162D01*
X64643116Y-34391161D01*
X64433373Y-34353800D01*
X64433367Y-34353799D01*
X64428284Y-34352894D01*
X64352981Y-34351974D01*
X64210081Y-34350228D01*
X64210079Y-34350228D01*
X64204911Y-34350165D01*
X63984091Y-34383955D01*
X63771756Y-34453357D01*
X63573607Y-34556507D01*
X63569474Y-34559610D01*
X63569471Y-34559612D01*
X63422191Y-34670193D01*
X63394965Y-34690635D01*
X63391393Y-34694373D01*
X63249962Y-34842372D01*
X63240629Y-34852138D01*
X63237720Y-34856403D01*
X63237714Y-34856411D01*
X63225404Y-34874457D01*
X63133204Y-35009618D01*
X63132898Y-35010066D01*
X63077987Y-35055069D01*
X63007462Y-35063240D01*
X62943715Y-35031986D01*
X62923018Y-35007502D01*
X62842426Y-34882926D01*
X62836136Y-34874757D01*
X62692806Y-34717240D01*
X62685273Y-34710215D01*
X62518139Y-34578222D01*
X62509552Y-34572517D01*
X62323117Y-34469599D01*
X62313705Y-34465369D01*
X62112959Y-34394280D01*
X62102988Y-34391646D01*
X62031837Y-34378972D01*
X62018540Y-34380432D01*
X62014000Y-34394989D01*
X62014000Y-35838000D01*
X61993998Y-35906121D01*
X61940342Y-35952614D01*
X61888000Y-35964000D01*
X61632000Y-35964000D01*
X61563879Y-35943998D01*
X61517386Y-35890342D01*
X61506000Y-35838000D01*
X61506000Y-34393102D01*
X61502082Y-34379758D01*
X61487806Y-34377771D01*
X61449324Y-34383660D01*
X61439288Y-34386051D01*
X61236868Y-34452212D01*
X61227359Y-34456209D01*
X61038463Y-34554542D01*
X61029738Y-34560036D01*
X60859433Y-34687905D01*
X60851726Y-34694748D01*
X60704590Y-34848717D01*
X60698109Y-34856722D01*
X60593498Y-35010074D01*
X60538587Y-35055076D01*
X60468062Y-35063247D01*
X60404315Y-35031993D01*
X60383618Y-35007509D01*
X60302822Y-34882617D01*
X60302820Y-34882614D01*
X60300014Y-34878277D01*
X60149670Y-34713051D01*
X60145619Y-34709852D01*
X60145615Y-34709848D01*
X59978414Y-34577800D01*
X59978410Y-34577798D01*
X59974359Y-34574598D01*
X59938028Y-34554542D01*
X59841963Y-34501512D01*
X59778789Y-34466638D01*
X59773920Y-34464914D01*
X59773916Y-34464912D01*
X59573087Y-34393795D01*
X59573083Y-34393794D01*
X59568212Y-34392069D01*
X59563119Y-34391162D01*
X59563116Y-34391161D01*
X59353373Y-34353800D01*
X59353367Y-34353799D01*
X59348284Y-34352894D01*
X59272981Y-34351974D01*
X59130081Y-34350228D01*
X59130079Y-34350228D01*
X59124911Y-34350165D01*
X58904091Y-34383955D01*
X58691756Y-34453357D01*
X58493607Y-34556507D01*
X58489474Y-34559610D01*
X58489471Y-34559612D01*
X58342191Y-34670193D01*
X58314965Y-34690635D01*
X58311393Y-34694373D01*
X58169962Y-34842372D01*
X58160629Y-34852138D01*
X58053201Y-35009621D01*
X57998293Y-35054621D01*
X57927768Y-35062792D01*
X57864021Y-35031538D01*
X57843324Y-35007054D01*
X57762822Y-34882617D01*
X57762820Y-34882614D01*
X57760014Y-34878277D01*
X57609670Y-34713051D01*
X57605619Y-34709852D01*
X57605615Y-34709848D01*
X57438414Y-34577800D01*
X57438410Y-34577798D01*
X57434359Y-34574598D01*
X57398028Y-34554542D01*
X57301963Y-34501512D01*
X57238789Y-34466638D01*
X57233920Y-34464914D01*
X57233916Y-34464912D01*
X57033087Y-34393795D01*
X57033083Y-34393794D01*
X57028212Y-34392069D01*
X57023119Y-34391162D01*
X57023116Y-34391161D01*
X56813373Y-34353800D01*
X56813367Y-34353799D01*
X56808284Y-34352894D01*
X56732981Y-34351974D01*
X56590081Y-34350228D01*
X56590079Y-34350228D01*
X56584911Y-34350165D01*
X56364091Y-34383955D01*
X56151756Y-34453357D01*
X55953607Y-34556507D01*
X55949474Y-34559610D01*
X55949471Y-34559612D01*
X55802191Y-34670193D01*
X55774965Y-34690635D01*
X55771393Y-34694373D01*
X55629962Y-34842372D01*
X55620629Y-34852138D01*
X55513201Y-35009621D01*
X55458293Y-35054621D01*
X55387768Y-35062792D01*
X55324021Y-35031538D01*
X55303324Y-35007054D01*
X55222822Y-34882617D01*
X55222820Y-34882614D01*
X55220014Y-34878277D01*
X55069670Y-34713051D01*
X55065619Y-34709852D01*
X55065615Y-34709848D01*
X54898414Y-34577800D01*
X54898410Y-34577798D01*
X54894359Y-34574598D01*
X54858028Y-34554542D01*
X54761963Y-34501512D01*
X54698789Y-34466638D01*
X54693920Y-34464914D01*
X54693916Y-34464912D01*
X54493087Y-34393795D01*
X54493083Y-34393794D01*
X54488212Y-34392069D01*
X54483119Y-34391162D01*
X54483116Y-34391161D01*
X54273373Y-34353800D01*
X54273367Y-34353799D01*
X54268284Y-34352894D01*
X54192981Y-34351974D01*
X54050081Y-34350228D01*
X54050079Y-34350228D01*
X54044911Y-34350165D01*
X53824091Y-34383955D01*
X53611756Y-34453357D01*
X53413607Y-34556507D01*
X53409474Y-34559610D01*
X53409471Y-34559612D01*
X53262191Y-34670193D01*
X53234965Y-34690635D01*
X53231393Y-34694373D01*
X53089962Y-34842372D01*
X53080629Y-34852138D01*
X52973201Y-35009621D01*
X52918293Y-35054621D01*
X52847768Y-35062792D01*
X52784021Y-35031538D01*
X52763324Y-35007054D01*
X52682822Y-34882617D01*
X52682820Y-34882614D01*
X52680014Y-34878277D01*
X52529670Y-34713051D01*
X52525619Y-34709852D01*
X52525615Y-34709848D01*
X52358414Y-34577800D01*
X52358410Y-34577798D01*
X52354359Y-34574598D01*
X52318028Y-34554542D01*
X52221963Y-34501512D01*
X52158789Y-34466638D01*
X52153920Y-34464914D01*
X52153916Y-34464912D01*
X51953087Y-34393795D01*
X51953083Y-34393794D01*
X51948212Y-34392069D01*
X51943119Y-34391162D01*
X51943116Y-34391161D01*
X51733373Y-34353800D01*
X51733367Y-34353799D01*
X51728284Y-34352894D01*
X51652981Y-34351974D01*
X51510081Y-34350228D01*
X51510079Y-34350228D01*
X51504911Y-34350165D01*
X51284091Y-34383955D01*
X51071756Y-34453357D01*
X50873607Y-34556507D01*
X50869474Y-34559610D01*
X50869471Y-34559612D01*
X50722191Y-34670193D01*
X50694965Y-34690635D01*
X50691393Y-34694373D01*
X50549962Y-34842372D01*
X50540629Y-34852138D01*
X50537720Y-34856403D01*
X50537714Y-34856411D01*
X50525404Y-34874457D01*
X50433204Y-35009618D01*
X50432898Y-35010066D01*
X50377987Y-35055069D01*
X50307462Y-35063240D01*
X50243715Y-35031986D01*
X50223018Y-35007502D01*
X50142426Y-34882926D01*
X50136136Y-34874757D01*
X49992806Y-34717240D01*
X49985273Y-34710215D01*
X49818139Y-34578222D01*
X49809552Y-34572517D01*
X49623117Y-34469599D01*
X49613705Y-34465369D01*
X49412959Y-34394280D01*
X49402988Y-34391646D01*
X49331837Y-34378972D01*
X49318540Y-34380432D01*
X49314000Y-34394989D01*
X49314000Y-35838000D01*
X49293998Y-35906121D01*
X49240342Y-35952614D01*
X49188000Y-35964000D01*
X48932000Y-35964000D01*
X48863879Y-35943998D01*
X48817386Y-35890342D01*
X48806000Y-35838000D01*
X48806000Y-34393102D01*
X48802082Y-34379758D01*
X48787806Y-34377771D01*
X48749324Y-34383660D01*
X48739288Y-34386051D01*
X48536868Y-34452212D01*
X48527359Y-34456209D01*
X48338463Y-34554542D01*
X48329738Y-34560036D01*
X48159433Y-34687905D01*
X48151726Y-34694748D01*
X48004590Y-34848717D01*
X47998109Y-34856722D01*
X47893498Y-35010074D01*
X47838587Y-35055076D01*
X47768062Y-35063247D01*
X47704315Y-35031993D01*
X47683618Y-35007509D01*
X47602822Y-34882617D01*
X47602820Y-34882614D01*
X47600014Y-34878277D01*
X47449670Y-34713051D01*
X47445619Y-34709852D01*
X47445615Y-34709848D01*
X47278414Y-34577800D01*
X47278410Y-34577798D01*
X47274359Y-34574598D01*
X47238028Y-34554542D01*
X47141963Y-34501512D01*
X47078789Y-34466638D01*
X47073920Y-34464914D01*
X47073916Y-34464912D01*
X46873087Y-34393795D01*
X46873083Y-34393794D01*
X46868212Y-34392069D01*
X46863119Y-34391162D01*
X46863116Y-34391161D01*
X46653373Y-34353800D01*
X46653367Y-34353799D01*
X46648284Y-34352894D01*
X46572981Y-34351974D01*
X46430081Y-34350228D01*
X46430079Y-34350228D01*
X46424911Y-34350165D01*
X46204091Y-34383955D01*
X45991756Y-34453357D01*
X45793607Y-34556507D01*
X45789474Y-34559610D01*
X45789471Y-34559612D01*
X45642191Y-34670193D01*
X45614965Y-34690635D01*
X45611393Y-34694373D01*
X45469962Y-34842372D01*
X45460629Y-34852138D01*
X45353201Y-35009621D01*
X45298293Y-35054621D01*
X45227768Y-35062792D01*
X45164021Y-35031538D01*
X45143324Y-35007054D01*
X45062822Y-34882617D01*
X45062820Y-34882614D01*
X45060014Y-34878277D01*
X44909670Y-34713051D01*
X44905619Y-34709852D01*
X44905615Y-34709848D01*
X44738414Y-34577800D01*
X44738410Y-34577798D01*
X44734359Y-34574598D01*
X44698028Y-34554542D01*
X44601963Y-34501512D01*
X44538789Y-34466638D01*
X44533920Y-34464914D01*
X44533916Y-34464912D01*
X44333087Y-34393795D01*
X44333083Y-34393794D01*
X44328212Y-34392069D01*
X44323119Y-34391162D01*
X44323116Y-34391161D01*
X44113373Y-34353800D01*
X44113367Y-34353799D01*
X44108284Y-34352894D01*
X44032981Y-34351974D01*
X43890081Y-34350228D01*
X43890079Y-34350228D01*
X43884911Y-34350165D01*
X43664091Y-34383955D01*
X43451756Y-34453357D01*
X43253607Y-34556507D01*
X43249474Y-34559610D01*
X43249471Y-34559612D01*
X43102191Y-34670193D01*
X43074965Y-34690635D01*
X43071393Y-34694373D01*
X42929962Y-34842372D01*
X42920629Y-34852138D01*
X42917720Y-34856403D01*
X42917714Y-34856411D01*
X42905404Y-34874457D01*
X42813204Y-35009618D01*
X42812898Y-35010066D01*
X42757987Y-35055069D01*
X42687462Y-35063240D01*
X42623715Y-35031986D01*
X42603018Y-35007502D01*
X42522426Y-34882926D01*
X42516136Y-34874757D01*
X42372806Y-34717240D01*
X42365273Y-34710215D01*
X42198139Y-34578222D01*
X42189552Y-34572517D01*
X42003117Y-34469599D01*
X41993705Y-34465369D01*
X41792959Y-34394280D01*
X41782988Y-34391646D01*
X41711837Y-34378972D01*
X41698540Y-34380432D01*
X41694000Y-34394989D01*
X41694000Y-35838000D01*
X41673998Y-35906121D01*
X41620342Y-35952614D01*
X41568000Y-35964000D01*
X41312000Y-35964000D01*
X41243879Y-35943998D01*
X41197386Y-35890342D01*
X41186000Y-35838000D01*
X41186000Y-34393102D01*
X41182082Y-34379758D01*
X41167806Y-34377771D01*
X41129324Y-34383660D01*
X41119288Y-34386051D01*
X40916868Y-34452212D01*
X40907359Y-34456209D01*
X40718463Y-34554542D01*
X40709738Y-34560036D01*
X40539433Y-34687905D01*
X40531726Y-34694748D01*
X40384590Y-34848717D01*
X40378109Y-34856722D01*
X40273498Y-35010074D01*
X40218587Y-35055076D01*
X40148062Y-35063247D01*
X40084315Y-35031993D01*
X40063618Y-35007509D01*
X39982822Y-34882617D01*
X39982820Y-34882614D01*
X39980014Y-34878277D01*
X39829670Y-34713051D01*
X39825619Y-34709852D01*
X39825615Y-34709848D01*
X39658414Y-34577800D01*
X39658410Y-34577798D01*
X39654359Y-34574598D01*
X39618028Y-34554542D01*
X39521963Y-34501512D01*
X39458789Y-34466638D01*
X39453920Y-34464914D01*
X39453916Y-34464912D01*
X39253087Y-34393795D01*
X39253083Y-34393794D01*
X39248212Y-34392069D01*
X39243119Y-34391162D01*
X39243116Y-34391161D01*
X39033373Y-34353800D01*
X39033367Y-34353799D01*
X39028284Y-34352894D01*
X38952981Y-34351974D01*
X38810081Y-34350228D01*
X38810079Y-34350228D01*
X38804911Y-34350165D01*
X38584091Y-34383955D01*
X38371756Y-34453357D01*
X38173607Y-34556507D01*
X38169474Y-34559610D01*
X38169471Y-34559612D01*
X38022191Y-34670193D01*
X37994965Y-34690635D01*
X37991393Y-34694373D01*
X37849962Y-34842372D01*
X37840629Y-34852138D01*
X37733201Y-35009621D01*
X37678293Y-35054621D01*
X37607768Y-35062792D01*
X37544021Y-35031538D01*
X37523324Y-35007054D01*
X37442822Y-34882617D01*
X37442820Y-34882614D01*
X37440014Y-34878277D01*
X37289670Y-34713051D01*
X37285619Y-34709852D01*
X37285615Y-34709848D01*
X37118414Y-34577800D01*
X37118410Y-34577798D01*
X37114359Y-34574598D01*
X37078028Y-34554542D01*
X36981963Y-34501512D01*
X36918789Y-34466638D01*
X36913920Y-34464914D01*
X36913916Y-34464912D01*
X36713087Y-34393795D01*
X36713083Y-34393794D01*
X36708212Y-34392069D01*
X36703119Y-34391162D01*
X36703116Y-34391161D01*
X36493373Y-34353800D01*
X36493367Y-34353799D01*
X36488284Y-34352894D01*
X36412981Y-34351974D01*
X36270081Y-34350228D01*
X36270079Y-34350228D01*
X36264911Y-34350165D01*
X36044091Y-34383955D01*
X35831756Y-34453357D01*
X35633607Y-34556507D01*
X35629474Y-34559610D01*
X35629471Y-34559612D01*
X35482191Y-34670193D01*
X35454965Y-34690635D01*
X35451393Y-34694373D01*
X35309962Y-34842372D01*
X35300629Y-34852138D01*
X35193201Y-35009621D01*
X35138293Y-35054621D01*
X35067768Y-35062792D01*
X35004021Y-35031538D01*
X34983324Y-35007054D01*
X34902822Y-34882617D01*
X34902820Y-34882614D01*
X34900014Y-34878277D01*
X34749670Y-34713051D01*
X34745619Y-34709852D01*
X34745615Y-34709848D01*
X34578414Y-34577800D01*
X34578410Y-34577798D01*
X34574359Y-34574598D01*
X34538028Y-34554542D01*
X34441963Y-34501512D01*
X34378789Y-34466638D01*
X34373920Y-34464914D01*
X34373916Y-34464912D01*
X34173087Y-34393795D01*
X34173083Y-34393794D01*
X34168212Y-34392069D01*
X34163119Y-34391162D01*
X34163116Y-34391161D01*
X33953373Y-34353800D01*
X33953367Y-34353799D01*
X33948284Y-34352894D01*
X33872981Y-34351974D01*
X33730081Y-34350228D01*
X33730079Y-34350228D01*
X33724911Y-34350165D01*
X33504091Y-34383955D01*
X33291756Y-34453357D01*
X33093607Y-34556507D01*
X33089474Y-34559610D01*
X33089471Y-34559612D01*
X32942191Y-34670193D01*
X32914965Y-34690635D01*
X32911393Y-34694373D01*
X32769962Y-34842372D01*
X32760629Y-34852138D01*
X32757720Y-34856403D01*
X32757714Y-34856411D01*
X32745404Y-34874457D01*
X32653204Y-35009618D01*
X32652898Y-35010066D01*
X32597987Y-35055069D01*
X32527462Y-35063240D01*
X32463715Y-35031986D01*
X32443018Y-35007502D01*
X32362426Y-34882926D01*
X32356136Y-34874757D01*
X32212806Y-34717240D01*
X32205273Y-34710215D01*
X32038139Y-34578222D01*
X32029552Y-34572517D01*
X31843117Y-34469599D01*
X31833705Y-34465369D01*
X31632959Y-34394280D01*
X31622988Y-34391646D01*
X31551837Y-34378972D01*
X31538540Y-34380432D01*
X31534000Y-34394989D01*
X31534000Y-35838000D01*
X31513998Y-35906121D01*
X31460342Y-35952614D01*
X31408000Y-35964000D01*
X31152000Y-35964000D01*
X31083879Y-35943998D01*
X31037386Y-35890342D01*
X31026000Y-35838000D01*
X31026000Y-34393102D01*
X31022082Y-34379758D01*
X31007806Y-34377771D01*
X30969324Y-34383660D01*
X30959288Y-34386051D01*
X30756868Y-34452212D01*
X30747359Y-34456209D01*
X30558463Y-34554542D01*
X30549738Y-34560036D01*
X30379433Y-34687905D01*
X30371726Y-34694748D01*
X30224590Y-34848717D01*
X30218109Y-34856722D01*
X30205137Y-34875737D01*
X30150226Y-34920739D01*
X30079701Y-34928910D01*
X30015954Y-34897656D01*
X29996837Y-34875555D01*
X29989220Y-34864346D01*
X29919456Y-34761693D01*
X29752668Y-34585319D01*
X29714984Y-34556507D01*
X29563846Y-34440953D01*
X29563842Y-34440950D01*
X29559826Y-34437880D01*
X29476316Y-34393102D01*
X29350352Y-34325561D01*
X29345891Y-34323169D01*
X29200582Y-34273135D01*
X29142685Y-34232045D01*
X29116194Y-34166176D01*
X29129519Y-34096441D01*
X29178431Y-34044981D01*
X29241604Y-34028000D01*
X78384352Y-34028000D01*
X78452473Y-34048002D01*
G37*
G04 #@! TD.AperFunction*
G04 #@! TA.AperFunction,Conductor*
G36*
X34570467Y-57638503D02*
G01*
X34616960Y-57692159D01*
X34627064Y-57762433D01*
X34618755Y-57792718D01*
X34604550Y-57827013D01*
X34566645Y-57918525D01*
X34560895Y-57932406D01*
X34543992Y-58002812D01*
X34507173Y-58156176D01*
X34505465Y-58163289D01*
X34486835Y-58400000D01*
X34505465Y-58636711D01*
X34506619Y-58641518D01*
X34506620Y-58641524D01*
X34526539Y-58724490D01*
X34560895Y-58867594D01*
X34562788Y-58872165D01*
X34562789Y-58872167D01*
X34628862Y-59031681D01*
X34651760Y-59086963D01*
X34654346Y-59091183D01*
X34773241Y-59285202D01*
X34773245Y-59285208D01*
X34775824Y-59289416D01*
X34930031Y-59469969D01*
X35110584Y-59624176D01*
X35114792Y-59626755D01*
X35114798Y-59626759D01*
X35278873Y-59727304D01*
X35313037Y-59748240D01*
X35317607Y-59750133D01*
X35317611Y-59750135D01*
X35527833Y-59837211D01*
X35532406Y-59839105D01*
X35612609Y-59858360D01*
X35758476Y-59893380D01*
X35758482Y-59893381D01*
X35763289Y-59894535D01*
X36000000Y-59913165D01*
X36236711Y-59894535D01*
X36241518Y-59893381D01*
X36241524Y-59893380D01*
X36387391Y-59858360D01*
X36467594Y-59839105D01*
X36472167Y-59837211D01*
X36682389Y-59750135D01*
X36682393Y-59750133D01*
X36686963Y-59748240D01*
X36721127Y-59727304D01*
X36885202Y-59626759D01*
X36885208Y-59626755D01*
X36889416Y-59624176D01*
X37069969Y-59469969D01*
X37224176Y-59289416D01*
X37226755Y-59285208D01*
X37226759Y-59285202D01*
X37345654Y-59091183D01*
X37348240Y-59086963D01*
X37371139Y-59031681D01*
X37437211Y-58872167D01*
X37437212Y-58872165D01*
X37439105Y-58867594D01*
X37473461Y-58724490D01*
X37493380Y-58641524D01*
X37493381Y-58641518D01*
X37494535Y-58636711D01*
X37513165Y-58400000D01*
X37494535Y-58163289D01*
X37492828Y-58156176D01*
X37456008Y-58002812D01*
X37439105Y-57932406D01*
X37433356Y-57918525D01*
X37395450Y-57827013D01*
X37381245Y-57792719D01*
X37373656Y-57722129D01*
X37405435Y-57658642D01*
X37466494Y-57622415D01*
X37497654Y-57618501D01*
X40192970Y-57618501D01*
X40261091Y-57638503D01*
X40282065Y-57655406D01*
X47984595Y-65357936D01*
X48018621Y-65420248D01*
X48021500Y-65447031D01*
X48021500Y-66623108D01*
X48021251Y-66631019D01*
X48016822Y-66701413D01*
X48024253Y-66777191D01*
X48027278Y-66808045D01*
X48027470Y-66810198D01*
X48036060Y-66916965D01*
X48037268Y-66921883D01*
X48038076Y-66926872D01*
X48038060Y-66926875D01*
X48039106Y-66932993D01*
X48039122Y-66932990D01*
X48040017Y-66937964D01*
X48040511Y-66943002D01*
X48067870Y-67046552D01*
X48068400Y-67048633D01*
X48093963Y-67152706D01*
X48095943Y-67157371D01*
X48097538Y-67162165D01*
X48097522Y-67162170D01*
X48099530Y-67168037D01*
X48099546Y-67168031D01*
X48101226Y-67172801D01*
X48102519Y-67177696D01*
X48104579Y-67182322D01*
X48104579Y-67182323D01*
X48107668Y-67189262D01*
X48117102Y-67259629D01*
X48086995Y-67323926D01*
X48026906Y-67361739D01*
X47992561Y-67366510D01*
X34627041Y-67366510D01*
X34558920Y-67346508D01*
X34537946Y-67329605D01*
X30673610Y-63465269D01*
X30639584Y-63402957D01*
X30643569Y-63335155D01*
X30675862Y-63241369D01*
X30677365Y-63232670D01*
X35132160Y-63232670D01*
X35137887Y-63240320D01*
X35309042Y-63345205D01*
X35317837Y-63349687D01*
X35527988Y-63436734D01*
X35537373Y-63439783D01*
X35758554Y-63492885D01*
X35768301Y-63494428D01*
X35995070Y-63512275D01*
X36004930Y-63512275D01*
X36231699Y-63494428D01*
X36241446Y-63492885D01*
X36462627Y-63439783D01*
X36472012Y-63436734D01*
X36682163Y-63349687D01*
X36690958Y-63345205D01*
X36858445Y-63242568D01*
X36867907Y-63232110D01*
X36864124Y-63223334D01*
X36012812Y-62372022D01*
X35998868Y-62364408D01*
X35997035Y-62364539D01*
X35990420Y-62368790D01*
X35138920Y-63220290D01*
X35132160Y-63232670D01*
X30677365Y-63232670D01*
X30702396Y-63087750D01*
X30716504Y-63006074D01*
X30716505Y-63006068D01*
X30717179Y-63002164D01*
X30718500Y-62973075D01*
X30718500Y-61995070D01*
X34487725Y-61995070D01*
X34487725Y-62004930D01*
X34505572Y-62231699D01*
X34507115Y-62241446D01*
X34560217Y-62462627D01*
X34563266Y-62472012D01*
X34650313Y-62682163D01*
X34654795Y-62690958D01*
X34757432Y-62858445D01*
X34767890Y-62867907D01*
X34776666Y-62864124D01*
X35627978Y-62012812D01*
X35634356Y-62001132D01*
X36364408Y-62001132D01*
X36364539Y-62002965D01*
X36368790Y-62009580D01*
X37220290Y-62861080D01*
X37232670Y-62867840D01*
X37240320Y-62862113D01*
X37345205Y-62690958D01*
X37349687Y-62682163D01*
X37436734Y-62472012D01*
X37439783Y-62462627D01*
X37492885Y-62241446D01*
X37494428Y-62231699D01*
X37512275Y-62004930D01*
X37512275Y-61995070D01*
X37494428Y-61768301D01*
X37492885Y-61758554D01*
X37439783Y-61537373D01*
X37436734Y-61527988D01*
X37349687Y-61317837D01*
X37345205Y-61309042D01*
X37242568Y-61141555D01*
X37232110Y-61132093D01*
X37223334Y-61135876D01*
X36372022Y-61987188D01*
X36364408Y-62001132D01*
X35634356Y-62001132D01*
X35635592Y-61998868D01*
X35635461Y-61997035D01*
X35631210Y-61990420D01*
X34779710Y-61138920D01*
X34767330Y-61132160D01*
X34759680Y-61137887D01*
X34654795Y-61309042D01*
X34650313Y-61317837D01*
X34563266Y-61527988D01*
X34560217Y-61537373D01*
X34507115Y-61758554D01*
X34505572Y-61768301D01*
X34487725Y-61995070D01*
X30718500Y-61995070D01*
X30718500Y-61632812D01*
X30718630Y-61627096D01*
X30722256Y-61547237D01*
X30722486Y-61542183D01*
X30711814Y-61449944D01*
X30711386Y-61445580D01*
X30704346Y-61358081D01*
X30703940Y-61353035D01*
X30699518Y-61335029D01*
X30696718Y-61319467D01*
X30695167Y-61306071D01*
X30695166Y-61306068D01*
X30694585Y-61301044D01*
X30684788Y-61266421D01*
X30669307Y-61211710D01*
X30668184Y-61207460D01*
X30654590Y-61152115D01*
X30646037Y-61117294D01*
X30638791Y-61100222D01*
X30633539Y-61085311D01*
X30628490Y-61067468D01*
X30626356Y-61062893D01*
X30626354Y-61062886D01*
X30589256Y-60983331D01*
X30587467Y-60979313D01*
X30553162Y-60898495D01*
X30551188Y-60893844D01*
X30548498Y-60889572D01*
X30548493Y-60889563D01*
X30541308Y-60878154D01*
X30533733Y-60864260D01*
X30528040Y-60852052D01*
X30525901Y-60847464D01*
X30473719Y-60770680D01*
X30471893Y-60767890D01*
X35132093Y-60767890D01*
X35135876Y-60776666D01*
X35987188Y-61627978D01*
X36001132Y-61635592D01*
X36002965Y-61635461D01*
X36009580Y-61631210D01*
X36861080Y-60779710D01*
X36867840Y-60767330D01*
X36862113Y-60759680D01*
X36690958Y-60654795D01*
X36682163Y-60650313D01*
X36472012Y-60563266D01*
X36462627Y-60560217D01*
X36241446Y-60507115D01*
X36231699Y-60505572D01*
X36004930Y-60487725D01*
X35995070Y-60487725D01*
X35768301Y-60505572D01*
X35758554Y-60507115D01*
X35537373Y-60560217D01*
X35527988Y-60563266D01*
X35317837Y-60650313D01*
X35309042Y-60654795D01*
X35141555Y-60757432D01*
X35132093Y-60767890D01*
X30471893Y-60767890D01*
X30471311Y-60767001D01*
X30424526Y-60692709D01*
X30424525Y-60692707D01*
X30421833Y-60688433D01*
X30418497Y-60684649D01*
X30418494Y-60684645D01*
X30409568Y-60674521D01*
X30399871Y-60662019D01*
X30392301Y-60650880D01*
X30389456Y-60646693D01*
X30385979Y-60643016D01*
X30385974Y-60643010D01*
X30325692Y-60579265D01*
X30322725Y-60576016D01*
X30264646Y-60510137D01*
X30264640Y-60510131D01*
X30261302Y-60506345D01*
X30246969Y-60494572D01*
X30235406Y-60483789D01*
X30222668Y-60470319D01*
X30148934Y-60413945D01*
X30145487Y-60411214D01*
X30098154Y-60372335D01*
X30073722Y-60352266D01*
X30057694Y-60342938D01*
X30044561Y-60334146D01*
X30029826Y-60322880D01*
X29947999Y-60279005D01*
X29944170Y-60276865D01*
X29940025Y-60274452D01*
X29914939Y-60259852D01*
X29868304Y-60232709D01*
X29868300Y-60232707D01*
X29863922Y-60230159D01*
X29859197Y-60228345D01*
X29859184Y-60228339D01*
X29846618Y-60223516D01*
X29832229Y-60216929D01*
X29820349Y-60210559D01*
X29820346Y-60210558D01*
X29815891Y-60208169D01*
X29811113Y-60206524D01*
X29811102Y-60206519D01*
X29728090Y-60177936D01*
X29723957Y-60176432D01*
X29642028Y-60144982D01*
X29642020Y-60144980D01*
X29637298Y-60143167D01*
X29619159Y-60139377D01*
X29603908Y-60135177D01*
X29591152Y-60130785D01*
X29591153Y-60130785D01*
X29586369Y-60129138D01*
X29494813Y-60113324D01*
X29490572Y-60112514D01*
X29457972Y-60105704D01*
X29404632Y-60094560D01*
X29404626Y-60094559D01*
X29399680Y-60093526D01*
X29394633Y-60093297D01*
X29394627Y-60093296D01*
X29384685Y-60092845D01*
X29381161Y-60092685D01*
X29365439Y-60090977D01*
X29347164Y-60087821D01*
X29340356Y-60087512D01*
X29319494Y-60086564D01*
X29319475Y-60086564D01*
X29318075Y-60086500D01*
X29247812Y-60086500D01*
X29242096Y-60086370D01*
X29157183Y-60082514D01*
X29152163Y-60083095D01*
X29152159Y-60083095D01*
X29129950Y-60085665D01*
X29115468Y-60086500D01*
X28294754Y-60086500D01*
X28226633Y-60066498D01*
X28180140Y-60012842D01*
X28169003Y-59952590D01*
X28169997Y-59936788D01*
X28171585Y-59923264D01*
X28177179Y-59890881D01*
X28177772Y-59877832D01*
X28178436Y-59863211D01*
X28178436Y-59863192D01*
X28178500Y-59861792D01*
X28178500Y-59805609D01*
X28178749Y-59797697D01*
X28182860Y-59732358D01*
X28183178Y-59727304D01*
X28182684Y-59722268D01*
X28182684Y-59722258D01*
X28179984Y-59694725D01*
X28179431Y-59678909D01*
X28181193Y-59615849D01*
X28181193Y-59615847D01*
X28181334Y-59610795D01*
X28170941Y-59532902D01*
X28170241Y-59526353D01*
X28168413Y-59503624D01*
X28163940Y-59448035D01*
X28156101Y-59416122D01*
X28153573Y-59402738D01*
X28149229Y-59370180D01*
X28126522Y-59294968D01*
X28124783Y-59288613D01*
X28107243Y-59217205D01*
X28106037Y-59212294D01*
X28093199Y-59182050D01*
X28088561Y-59169236D01*
X28080529Y-59142632D01*
X28079068Y-59137792D01*
X28044608Y-59067138D01*
X28041903Y-59061204D01*
X28011188Y-58988844D01*
X28008493Y-58984564D01*
X28008487Y-58984553D01*
X27993684Y-58961047D01*
X27987056Y-58949140D01*
X27974869Y-58924154D01*
X27972654Y-58919612D01*
X27927357Y-58855400D01*
X27923699Y-58849914D01*
X27884529Y-58787714D01*
X27884528Y-58787713D01*
X27881833Y-58783433D01*
X27878492Y-58779644D01*
X27878488Y-58779638D01*
X27860102Y-58758783D01*
X27851656Y-58748088D01*
X27835009Y-58724490D01*
X27832726Y-58721253D01*
X27813091Y-58699750D01*
X27773375Y-58660034D01*
X27767956Y-58654264D01*
X27724650Y-58605142D01*
X27724647Y-58605139D01*
X27721302Y-58601345D01*
X27689011Y-58574821D01*
X27679892Y-58566551D01*
X27118675Y-58005334D01*
X27116221Y-58002812D01*
X27051138Y-57933988D01*
X27051135Y-57933986D01*
X27047668Y-57930319D01*
X26985239Y-57882589D01*
X26980108Y-57878448D01*
X26935466Y-57840454D01*
X26896554Y-57781071D01*
X26895924Y-57710077D01*
X26933776Y-57650013D01*
X26998092Y-57619948D01*
X27017130Y-57618501D01*
X34502346Y-57618501D01*
X34570467Y-57638503D01*
G37*
G04 #@! TD.AperFunction*
G04 #@! TA.AperFunction,Conductor*
G36*
X75318527Y-42563502D02*
G01*
X75339501Y-42580405D01*
X75449595Y-42690499D01*
X75483621Y-42752811D01*
X75486500Y-42779594D01*
X75486500Y-55114404D01*
X75466498Y-55182525D01*
X75425867Y-55222122D01*
X75316683Y-55288377D01*
X75312653Y-55291874D01*
X75155144Y-55428553D01*
X75142555Y-55439477D01*
X75139168Y-55443608D01*
X74999760Y-55613627D01*
X74999756Y-55613633D01*
X74996376Y-55617755D01*
X74978448Y-55649250D01*
X74927368Y-55698555D01*
X74857738Y-55712417D01*
X74791667Y-55686434D01*
X74764427Y-55657284D01*
X74685539Y-55540108D01*
X74682559Y-55535681D01*
X74523424Y-55368865D01*
X74344287Y-55235583D01*
X74301574Y-55178873D01*
X74293500Y-55134494D01*
X74293500Y-43893768D01*
X74294027Y-43882585D01*
X74295702Y-43875092D01*
X74295443Y-43866857D01*
X74296933Y-43843186D01*
X74296980Y-43842890D01*
X74296980Y-43842885D01*
X74298220Y-43835057D01*
X74294059Y-43791038D01*
X74293500Y-43779181D01*
X74293500Y-43775144D01*
X74292996Y-43771153D01*
X74292063Y-43759311D01*
X74290923Y-43723030D01*
X74290923Y-43723029D01*
X74290674Y-43715111D01*
X74288376Y-43707202D01*
X74283932Y-43683902D01*
X74283903Y-43683598D01*
X74283157Y-43675707D01*
X74280558Y-43668489D01*
X74280457Y-43667909D01*
X74279607Y-43664372D01*
X74279435Y-43663813D01*
X74278474Y-43656203D01*
X74275556Y-43648833D01*
X74275555Y-43648829D01*
X74262200Y-43615098D01*
X74258355Y-43603868D01*
X74248230Y-43569017D01*
X74248230Y-43569016D01*
X74246019Y-43561407D01*
X74241983Y-43554582D01*
X74241822Y-43554309D01*
X74231732Y-43532865D01*
X74231628Y-43532577D01*
X74231625Y-43532570D01*
X74228939Y-43525111D01*
X74224624Y-43518762D01*
X74224379Y-43518219D01*
X74222694Y-43515034D01*
X74222376Y-43514515D01*
X74219552Y-43507383D01*
X74193563Y-43471612D01*
X74187047Y-43461692D01*
X74168578Y-43430463D01*
X74164542Y-43423638D01*
X74158725Y-43417821D01*
X74143607Y-43399547D01*
X74143429Y-43399284D01*
X74143423Y-43399278D01*
X74138973Y-43392729D01*
X74133215Y-43387653D01*
X74132847Y-43387193D01*
X74130418Y-43384523D01*
X74129982Y-43384101D01*
X74125472Y-43377893D01*
X74091407Y-43349712D01*
X74082626Y-43341722D01*
X73528647Y-42787742D01*
X73521113Y-42779463D01*
X73517000Y-42772982D01*
X73504614Y-42761351D01*
X73468648Y-42700138D01*
X73471485Y-42629198D01*
X73512225Y-42571054D01*
X73577933Y-42544165D01*
X73590866Y-42543500D01*
X75250406Y-42543500D01*
X75318527Y-42563502D01*
G37*
G04 #@! TD.AperFunction*
G04 #@! TA.AperFunction,Conductor*
G36*
X76969877Y-42441112D02*
G01*
X77574595Y-43045830D01*
X77608621Y-43108142D01*
X77611500Y-43134925D01*
X77611500Y-55432299D01*
X77591498Y-55500420D01*
X77582934Y-55512190D01*
X77499760Y-55613627D01*
X77499756Y-55613633D01*
X77496376Y-55617755D01*
X77478448Y-55649250D01*
X77427368Y-55698555D01*
X77357738Y-55712417D01*
X77291667Y-55686434D01*
X77264427Y-55657284D01*
X77185539Y-55540108D01*
X77182559Y-55535681D01*
X77023424Y-55368865D01*
X76838458Y-55231246D01*
X76833706Y-55228830D01*
X76833698Y-55228825D01*
X76822394Y-55223078D01*
X76770737Y-55174375D01*
X76753500Y-55110762D01*
X76753500Y-42543768D01*
X76754027Y-42532585D01*
X76755702Y-42525092D01*
X76755479Y-42518002D01*
X76781666Y-42452413D01*
X76839459Y-42411176D01*
X76910372Y-42407731D01*
X76969877Y-42441112D01*
G37*
G04 #@! TD.AperFunction*
G04 #@! TA.AperFunction,Conductor*
G36*
X58032026Y-36385144D02*
G01*
X58059875Y-36416994D01*
X58119987Y-36515088D01*
X58266250Y-36683938D01*
X58438126Y-36826632D01*
X58508595Y-36867811D01*
X58511445Y-36869476D01*
X58560169Y-36921114D01*
X58573240Y-36990897D01*
X58546509Y-37056669D01*
X58506055Y-37090027D01*
X58493607Y-37096507D01*
X58489474Y-37099610D01*
X58489471Y-37099612D01*
X58331127Y-37218500D01*
X58314965Y-37230635D01*
X58160629Y-37392138D01*
X58053204Y-37549618D01*
X58052898Y-37550066D01*
X57997987Y-37595069D01*
X57927462Y-37603240D01*
X57863715Y-37571986D01*
X57843018Y-37547502D01*
X57762426Y-37422926D01*
X57756136Y-37414757D01*
X57612806Y-37257240D01*
X57605273Y-37250215D01*
X57438139Y-37118222D01*
X57429556Y-37112520D01*
X57392602Y-37092120D01*
X57342631Y-37041687D01*
X57327859Y-36972245D01*
X57352975Y-36905839D01*
X57380327Y-36879232D01*
X57403797Y-36862491D01*
X57559860Y-36751173D01*
X57718096Y-36593489D01*
X57759936Y-36535263D01*
X57848453Y-36412077D01*
X57849776Y-36413028D01*
X57896645Y-36369857D01*
X57966580Y-36357625D01*
X58032026Y-36385144D01*
G37*
G04 #@! TD.AperFunction*
G04 #@! TA.AperFunction,Conductor*
G36*
X60572338Y-36384678D02*
G01*
X60600166Y-36416511D01*
X60657694Y-36510388D01*
X60663777Y-36518699D01*
X60803213Y-36679667D01*
X60810580Y-36686883D01*
X60974434Y-36822916D01*
X60982881Y-36828831D01*
X61051969Y-36869203D01*
X61100693Y-36920842D01*
X61113764Y-36990625D01*
X61087033Y-37056396D01*
X61046584Y-37089752D01*
X61033607Y-37096507D01*
X61029474Y-37099610D01*
X61029471Y-37099612D01*
X60871127Y-37218500D01*
X60854965Y-37230635D01*
X60700629Y-37392138D01*
X60593201Y-37549621D01*
X60538293Y-37594621D01*
X60467768Y-37602792D01*
X60404021Y-37571538D01*
X60383324Y-37547054D01*
X60302822Y-37422617D01*
X60302820Y-37422614D01*
X60300014Y-37418277D01*
X60149670Y-37253051D01*
X60145619Y-37249852D01*
X60145615Y-37249848D01*
X59978414Y-37117800D01*
X59978410Y-37117798D01*
X59974359Y-37114598D01*
X59933053Y-37091796D01*
X59883084Y-37041364D01*
X59868312Y-36971921D01*
X59893428Y-36905516D01*
X59920780Y-36878909D01*
X59964603Y-36847650D01*
X60099860Y-36751173D01*
X60258096Y-36593489D01*
X60299936Y-36535263D01*
X60388453Y-36412077D01*
X60389640Y-36412930D01*
X60436960Y-36369362D01*
X60506897Y-36357145D01*
X60572338Y-36384678D01*
G37*
G04 #@! TD.AperFunction*
G04 #@! TD*
M02*
