M48
; DRILL file {KiCad (5.99.0-11324-gb6e8beb38c)} date Mon Jul 19 22:25:21 2021
; FORMAT={-:-/ absolute / inch / decimal}
; #@! TF.CreationDate,2021-07-19T22:25:21+09:00
; #@! TF.GenerationSoftware,Kicad,Pcbnew,(5.99.0-11324-gb6e8beb38c)
; #@! TF.FileFunction,Plated,1,2,PTH
FMAT,2
INCH
; #@! TA.AperFunction,Plated,PTH,ViaDrill
T1C0.0157
; #@! TA.AperFunction,Plated,PTH,ComponentDrill
T2C0.0315
; #@! TA.AperFunction,Plated,PTH,ComponentDrill
T3C0.0374
; #@! TA.AperFunction,Plated,PTH,ComponentDrill
T4C0.0394
; #@! TA.AperFunction,Plated,PTH,ComponentDrill
T5C0.0591
%
G90
G05
T1
X0.75Y-2.075
X0.75Y-2.3
X0.75Y-2.35
X0.75Y-2.525
X0.775Y-2.175
X0.775Y-2.225
X0.78Y-1.6
X0.8Y-2.075
X0.8Y-2.275
X0.825Y-2.175
X0.825Y-2.225
X0.85Y-1.825
X0.85Y-1.875
X0.9Y-1.875
X0.9035Y-1.6496
X0.944Y-1.566
X0.946Y-1.608
X0.975Y-2.075
X0.975Y-2.125
X0.984Y-1.568
X0.984Y-1.606
X1.0Y-2.325
X1.0Y-2.375
X1.0475Y-2.31
X1.0475Y-2.35
X1.05Y-1.85
X1.0787Y-1.8858
X1.1Y-2.425
X1.1Y-2.475
X1.1Y-2.8
X1.1Y-2.85
X1.124Y-2.3524
X1.1339Y-2.1417
X1.1457Y-2.2894
X1.1476Y-2.3228
X1.15Y-2.425
X1.15Y-2.475
X1.15Y-2.8
X1.15Y-2.85
X1.1593Y-2.112
X1.1811Y-2.1417
X1.1969Y-2.3622
X1.2Y-1.65
X1.22Y-1.755
X1.22Y-1.795
X1.22Y-1.835
X1.22Y-1.875
X1.2283Y-2.126
X1.25Y-1.65
X1.25Y-1.7
X1.2598Y-2.4016
X1.2835Y-2.3622
X1.3Y-2.4
X1.3189Y-2.1457
X1.3546Y-2.5
X1.3583Y-2.3622
X1.3583Y-2.4016
X1.375Y-2.625
X1.375Y-2.8
X1.45Y-2.625
X1.45Y-2.8
X1.482Y-2.982
X1.4961Y-2.1181
X1.4961Y-2.3307
X1.5354Y-2.1181
X1.5354Y-2.3307
X1.5748Y-2.1181
X1.5748Y-2.3307
X1.625Y-1.725
X1.625Y-1.775
X1.625Y-2.8
X1.625Y-3.075
X1.65Y-2.625
X1.675Y-3.075
X1.7Y-2.625
X1.7Y-2.8
X1.7Y-3.0
X1.704Y-1.827
X1.704Y-1.877
X1.704Y-2.098
X1.704Y-2.148
X1.725Y-3.25
X1.748Y-1.9843
X1.754Y-1.827
X1.754Y-2.06
X1.82Y-1.8
X1.875Y-2.625
X1.89Y-1.892
X1.925Y-2.575
X1.925Y-2.625
X1.925Y-3.0
X1.975Y-2.575
X1.975Y-2.625
X1.99Y-3.175
X2.0039Y-2.0945
X2.024Y-1.892
X2.025Y-3.175
X2.04Y-1.825
X2.04Y-1.855
X2.05Y-1.6
X2.05Y-2.875
X2.05Y-3.195
X2.054Y-2.573
X2.054Y-2.623
X2.06Y-2.0
X2.1Y-2.95
X2.104Y-2.573
X2.104Y-2.623
X2.125Y-3.0
X2.126Y-2.398
X2.126Y-2.432
X2.148Y-1.918
X2.148Y-1.952
X2.15Y-2.05
X2.15Y-2.1
X2.15Y-2.875
X2.1811Y-1.9823
X2.2Y-2.05
X2.2Y-2.1
X2.229Y-2.698
X2.229Y-2.748
X2.25Y-2.875
X2.279Y-2.698
X2.279Y-2.748
X2.286Y-2.4
X2.286Y-2.434
X2.304Y-1.56
X2.304Y-1.892
X2.35Y-1.6
X2.35Y-1.825
X2.35Y-1.855
X2.35Y-3.15
X2.35Y-3.2
X2.35Y-3.3
X2.35Y-3.45
X2.35Y-3.5
X2.38Y-1.6
X2.4Y-3.3
X2.4Y-3.5
X2.45Y-3.3
X2.45Y-3.45
X2.45Y-3.5
X2.94Y-1.725
X2.94Y-1.93
X2.94Y-2.461
X2.94Y-2.789
X2.95Y-2.125
X3.03Y-1.75
X3.03Y-1.93
X3.05Y-2.125
T2
X1.55Y-3.15
X1.55Y-3.2878
T3
X0.9Y-2.2
X0.9Y-2.2984
X0.9Y-2.3969
X2.8Y-2.225
X2.8Y-2.575
X2.8Y-2.9
X2.8984Y-2.225
X2.8984Y-2.575
X2.8984Y-2.9
X2.9969Y-2.225
X2.9969Y-2.575
X2.9969Y-2.9
X3.0953Y-2.225
X3.0953Y-2.575
X3.0953Y-2.9
T4
X1.0315Y-1.4059
X1.0315Y-1.5059
X1.1315Y-1.4059
X1.1315Y-1.5059
X1.2315Y-1.4059
X1.2315Y-1.5059
X1.3315Y-1.4059
X1.3315Y-1.5059
X1.4173Y-2.1575
X1.4173Y-2.2992
X1.4173Y-2.4409
X1.4315Y-1.4059
X1.4315Y-1.5059
X1.5315Y-1.4059
X1.5315Y-1.5059
X1.6315Y-1.4059
X1.6315Y-1.5059
X1.7315Y-1.4059
X1.7315Y-1.5059
X1.8315Y-1.4059
X1.8315Y-1.5059
X1.9315Y-1.4059
X1.9315Y-1.5059
X2.0Y-3.1
X2.0315Y-1.4059
X2.0315Y-1.5059
X2.1315Y-1.4059
X2.1315Y-1.5059
X2.2315Y-1.4059
X2.2315Y-1.5059
X2.3315Y-1.4059
X2.3315Y-1.5059
X2.4315Y-1.4059
X2.4315Y-1.5059
X2.5315Y-1.4059
X2.5315Y-1.5059
X2.6315Y-1.4059
X2.6315Y-1.5059
X2.7315Y-1.4059
X2.7315Y-1.5059
X2.8315Y-1.4059
X2.8315Y-1.5059
X2.9315Y-1.4059
X2.9315Y-1.5059
T5
X1.925Y-2.05
T4
G00X1.0039Y-2.8228
M15
G01X0.9449Y-2.8228
M16
G05
G00X1.0039Y-3.1772
M15
G01X0.9449Y-3.1772
M16
G05
G00X1.0138Y-2.9744
M15
G01X1.0138Y-3.0256
M16
G05
G00X1.25Y-2.9606
M15
G01X1.25Y-3.0394
M16
G05
T0
M30
