G04 #@! TF.GenerationSoftware,KiCad,Pcbnew,(5.99.0-11324-gb6e8beb38c)*
G04 #@! TF.CreationDate,2021-07-19T22:25:18+09:00*
G04 #@! TF.ProjectId,RPi_IO-Link_Hat,5250695f-494f-42d4-9c69-6e6b5f486174,rev?*
G04 #@! TF.SameCoordinates,Original*
G04 #@! TF.FileFunction,Soldermask,Bot*
G04 #@! TF.FilePolarity,Negative*
%FSLAX46Y46*%
G04 Gerber Fmt 4.6, Leading zero omitted, Abs format (unit mm)*
G04 Created by KiCad (PCBNEW (5.99.0-11324-gb6e8beb38c)) date 2021-07-19 22:25:18*
%MOMM*%
%LPD*%
G01*
G04 APERTURE LIST*
G04 Aperture macros list*
%AMRoundRect*
0 Rectangle with rounded corners*
0 $1 Rounding radius*
0 $2 $3 $4 $5 $6 $7 $8 $9 X,Y pos of 4 corners*
0 Add a 4 corners polygon primitive as box body*
4,1,4,$2,$3,$4,$5,$6,$7,$8,$9,$2,$3,0*
0 Add four circle primitives for the rounded corners*
1,1,$1+$1,$2,$3*
1,1,$1+$1,$4,$5*
1,1,$1+$1,$6,$7*
1,1,$1+$1,$8,$9*
0 Add four rect primitives between the rounded corners*
20,1,$1+$1,$2,$3,$4,$5,0*
20,1,$1+$1,$4,$5,$6,$7,0*
20,1,$1+$1,$6,$7,$8,$9,0*
20,1,$1+$1,$8,$9,$2,$3,0*%
G04 Aperture macros list end*
%ADD10C,2.000000*%
%ADD11R,1.600000X1.600000*%
%ADD12C,1.600000*%
%ADD13R,2.000000X4.000000*%
%ADD14O,2.000000X3.300000*%
%ADD15O,3.500000X2.000000*%
%ADD16RoundRect,0.250000X-0.725000X0.600000X-0.725000X-0.600000X0.725000X-0.600000X0.725000X0.600000X0*%
%ADD17O,1.950000X1.700000*%
%ADD18RoundRect,0.250000X-0.600000X-0.725000X0.600000X-0.725000X0.600000X0.725000X-0.600000X0.725000X0*%
%ADD19O,1.700000X1.950000*%
%ADD20C,1.500000*%
%ADD21C,2.400000*%
%ADD22C,5.750000*%
%ADD23RoundRect,0.250000X0.337500X0.475000X-0.337500X0.475000X-0.337500X-0.475000X0.337500X-0.475000X0*%
%ADD24R,1.700000X1.700000*%
%ADD25O,1.700000X1.700000*%
G04 APERTURE END LIST*
D10*
G04 #@! TO.C,TP3*
X36000000Y-62000000D03*
G04 #@! TD*
G04 #@! TO.C,TP2*
X36000000Y-58400000D03*
G04 #@! TD*
G04 #@! TO.C,TP1*
X36000000Y-54800000D03*
G04 #@! TD*
D11*
G04 #@! TO.C,C7*
X39370000Y-80010000D03*
D12*
X39370000Y-83510000D03*
G04 #@! TD*
G04 #@! TO.C,J1*
X22750000Y-76200000D03*
D13*
X31750000Y-76200000D03*
D14*
X25750000Y-76200000D03*
D15*
X24750000Y-71700000D03*
X24750000Y-80700000D03*
G04 #@! TD*
D16*
G04 #@! TO.C,J3*
X22860000Y-55880000D03*
D17*
X22860000Y-58380000D03*
X22860000Y-60880000D03*
G04 #@! TD*
D18*
G04 #@! TO.C,J4*
X71120000Y-56515000D03*
D19*
X73620000Y-56515000D03*
X76120000Y-56515000D03*
X78620000Y-56515000D03*
G04 #@! TD*
D18*
G04 #@! TO.C,J5*
X71120000Y-65405000D03*
D19*
X73620000Y-65405000D03*
X76120000Y-65405000D03*
X78620000Y-65405000D03*
G04 #@! TD*
D18*
G04 #@! TO.C,J6*
X71120000Y-73660000D03*
D19*
X73620000Y-73660000D03*
X76120000Y-73660000D03*
X78620000Y-73660000D03*
G04 #@! TD*
D20*
G04 #@! TO.C,U1*
X50800000Y-78740000D03*
G04 #@! TD*
D21*
G04 #@! TO.C,U2*
X48895000Y-52070000D03*
G04 #@! TD*
D22*
G04 #@! TO.C,*
X21280000Y-86020000D03*
G04 #@! TD*
G04 #@! TO.C,*
X79280000Y-37020000D03*
G04 #@! TD*
G04 #@! TO.C,*
X79280000Y-86020000D03*
G04 #@! TD*
G04 #@! TO.C,*
X21280000Y-37020000D03*
G04 #@! TD*
D23*
G04 #@! TO.C,C8*
X75565000Y-59055000D03*
X73490000Y-59055000D03*
G04 #@! TD*
G04 #@! TO.C,C9*
X75967500Y-67945000D03*
X73892500Y-67945000D03*
G04 #@! TD*
G04 #@! TO.C,C10*
X75967500Y-76200000D03*
X73892500Y-76200000D03*
G04 #@! TD*
D24*
G04 #@! TO.C,J2*
X26200000Y-38250000D03*
D25*
X26200000Y-35710000D03*
X28740000Y-38250000D03*
X28740000Y-35710000D03*
X31280000Y-38250000D03*
X31280000Y-35710000D03*
X33820000Y-38250000D03*
X33820000Y-35710000D03*
X36360000Y-38250000D03*
X36360000Y-35710000D03*
X38900000Y-38250000D03*
X38900000Y-35710000D03*
X41440000Y-38250000D03*
X41440000Y-35710000D03*
X43980000Y-38250000D03*
X43980000Y-35710000D03*
X46520000Y-38250000D03*
X46520000Y-35710000D03*
X49060000Y-38250000D03*
X49060000Y-35710000D03*
X51600000Y-38250000D03*
X51600000Y-35710000D03*
X54140000Y-38250000D03*
X54140000Y-35710000D03*
X56680000Y-38250000D03*
X56680000Y-35710000D03*
X59220000Y-38250000D03*
X59220000Y-35710000D03*
X61760000Y-38250000D03*
X61760000Y-35710000D03*
X64300000Y-38250000D03*
X64300000Y-35710000D03*
X66840000Y-38250000D03*
X66840000Y-35710000D03*
X69380000Y-38250000D03*
X69380000Y-35710000D03*
X71920000Y-38250000D03*
X71920000Y-35710000D03*
X74460000Y-38250000D03*
X74460000Y-35710000D03*
G04 #@! TD*
M02*
