G04 #@! TF.GenerationSoftware,KiCad,Pcbnew,(5.99.0-11324-gb6e8beb38c)*
G04 #@! TF.CreationDate,2021-07-19T22:25:18+09:00*
G04 #@! TF.ProjectId,RPi_IO-Link_Hat,5250695f-494f-42d4-9c69-6e6b5f486174,rev?*
G04 #@! TF.SameCoordinates,Original*
G04 #@! TF.FileFunction,Legend,Bot*
G04 #@! TF.FilePolarity,Positive*
%FSLAX46Y46*%
G04 Gerber Fmt 4.6, Leading zero omitted, Abs format (unit mm)*
G04 Created by KiCad (PCBNEW (5.99.0-11324-gb6e8beb38c)) date 2021-07-19 22:25:18*
%MOMM*%
%LPD*%
G01*
G04 APERTURE LIST*
%ADD10C,0.150000*%
%ADD11C,0.120000*%
G04 APERTURE END LIST*
D10*
G04 #@! TO.C,C8*
X74694166Y-61317142D02*
X74741785Y-61364761D01*
X74884642Y-61412380D01*
X74979880Y-61412380D01*
X75122738Y-61364761D01*
X75217976Y-61269523D01*
X75265595Y-61174285D01*
X75313214Y-60983809D01*
X75313214Y-60840952D01*
X75265595Y-60650476D01*
X75217976Y-60555238D01*
X75122738Y-60460000D01*
X74979880Y-60412380D01*
X74884642Y-60412380D01*
X74741785Y-60460000D01*
X74694166Y-60507619D01*
X74122738Y-60840952D02*
X74217976Y-60793333D01*
X74265595Y-60745714D01*
X74313214Y-60650476D01*
X74313214Y-60602857D01*
X74265595Y-60507619D01*
X74217976Y-60460000D01*
X74122738Y-60412380D01*
X73932261Y-60412380D01*
X73837023Y-60460000D01*
X73789404Y-60507619D01*
X73741785Y-60602857D01*
X73741785Y-60650476D01*
X73789404Y-60745714D01*
X73837023Y-60793333D01*
X73932261Y-60840952D01*
X74122738Y-60840952D01*
X74217976Y-60888571D01*
X74265595Y-60936190D01*
X74313214Y-61031428D01*
X74313214Y-61221904D01*
X74265595Y-61317142D01*
X74217976Y-61364761D01*
X74122738Y-61412380D01*
X73932261Y-61412380D01*
X73837023Y-61364761D01*
X73789404Y-61317142D01*
X73741785Y-61221904D01*
X73741785Y-61031428D01*
X73789404Y-60936190D01*
X73837023Y-60888571D01*
X73932261Y-60840952D01*
G04 #@! TO.C,C9*
X75096666Y-70207142D02*
X75144285Y-70254761D01*
X75287142Y-70302380D01*
X75382380Y-70302380D01*
X75525238Y-70254761D01*
X75620476Y-70159523D01*
X75668095Y-70064285D01*
X75715714Y-69873809D01*
X75715714Y-69730952D01*
X75668095Y-69540476D01*
X75620476Y-69445238D01*
X75525238Y-69350000D01*
X75382380Y-69302380D01*
X75287142Y-69302380D01*
X75144285Y-69350000D01*
X75096666Y-69397619D01*
X74620476Y-70302380D02*
X74430000Y-70302380D01*
X74334761Y-70254761D01*
X74287142Y-70207142D01*
X74191904Y-70064285D01*
X74144285Y-69873809D01*
X74144285Y-69492857D01*
X74191904Y-69397619D01*
X74239523Y-69350000D01*
X74334761Y-69302380D01*
X74525238Y-69302380D01*
X74620476Y-69350000D01*
X74668095Y-69397619D01*
X74715714Y-69492857D01*
X74715714Y-69730952D01*
X74668095Y-69826190D01*
X74620476Y-69873809D01*
X74525238Y-69921428D01*
X74334761Y-69921428D01*
X74239523Y-69873809D01*
X74191904Y-69826190D01*
X74144285Y-69730952D01*
G04 #@! TO.C,C10*
X75572857Y-78462142D02*
X75620476Y-78509761D01*
X75763333Y-78557380D01*
X75858571Y-78557380D01*
X76001428Y-78509761D01*
X76096666Y-78414523D01*
X76144285Y-78319285D01*
X76191904Y-78128809D01*
X76191904Y-77985952D01*
X76144285Y-77795476D01*
X76096666Y-77700238D01*
X76001428Y-77605000D01*
X75858571Y-77557380D01*
X75763333Y-77557380D01*
X75620476Y-77605000D01*
X75572857Y-77652619D01*
X74620476Y-78557380D02*
X75191904Y-78557380D01*
X74906190Y-78557380D02*
X74906190Y-77557380D01*
X75001428Y-77700238D01*
X75096666Y-77795476D01*
X75191904Y-77843095D01*
X74001428Y-77557380D02*
X73906190Y-77557380D01*
X73810952Y-77605000D01*
X73763333Y-77652619D01*
X73715714Y-77747857D01*
X73668095Y-77938333D01*
X73668095Y-78176428D01*
X73715714Y-78366904D01*
X73763333Y-78462142D01*
X73810952Y-78509761D01*
X73906190Y-78557380D01*
X74001428Y-78557380D01*
X74096666Y-78509761D01*
X74144285Y-78462142D01*
X74191904Y-78366904D01*
X74239523Y-78176428D01*
X74239523Y-77938333D01*
X74191904Y-77747857D01*
X74144285Y-77652619D01*
X74096666Y-77605000D01*
X74001428Y-77557380D01*
G04 #@! TO.C,J2*
X22882380Y-36646666D02*
X23596666Y-36646666D01*
X23739523Y-36599047D01*
X23834761Y-36503809D01*
X23882380Y-36360952D01*
X23882380Y-36265714D01*
X22977619Y-37075238D02*
X22930000Y-37122857D01*
X22882380Y-37218095D01*
X22882380Y-37456190D01*
X22930000Y-37551428D01*
X22977619Y-37599047D01*
X23072857Y-37646666D01*
X23168095Y-37646666D01*
X23310952Y-37599047D01*
X23882380Y-37027619D01*
X23882380Y-37646666D01*
D11*
G04 #@! TO.C,C8*
X74788752Y-58320000D02*
X74266248Y-58320000D01*
X74788752Y-59790000D02*
X74266248Y-59790000D01*
G04 #@! TO.C,C9*
X75191252Y-67210000D02*
X74668748Y-67210000D01*
X75191252Y-68680000D02*
X74668748Y-68680000D01*
G04 #@! TO.C,C10*
X75191252Y-75465000D02*
X74668748Y-75465000D01*
X75191252Y-76935000D02*
X74668748Y-76935000D01*
G04 #@! TO.C,J2*
X24870000Y-39580000D02*
X26200000Y-39580000D01*
X24870000Y-34380000D02*
X24870000Y-36980000D01*
X24870000Y-36980000D02*
X27470000Y-36980000D01*
X24870000Y-34380000D02*
X75790000Y-34380000D01*
X75790000Y-34380000D02*
X75790000Y-39580000D01*
X27470000Y-36980000D02*
X27470000Y-39580000D01*
X27470000Y-39580000D02*
X75790000Y-39580000D01*
X24870000Y-38250000D02*
X24870000Y-39580000D01*
G04 #@! TD*
M02*
